<svg xmlns="http://www.w3.org/2000/svg" version="1.1" viewBox="251.62 159 266.32 266.35">
  <desc>Produce by Acme CAD Converter</desc>
<path d="M252.88 187.16L252.88 185.86 252.87 186.15 252.88 187.16Z" fill="black" stroke="black" stroke-width="0.2"/>
<path d="M252.88 187.16L252.9 187.62 252.88 185.86 252.88 187.16Z" fill="black" stroke="black" stroke-width="0.2"/>
<path d="M252.9 187.62L252.9 185.13 252.88 185.86 252.9 187.62Z" fill="black" stroke="black" stroke-width="0.2"/>
<path d="M252.9 187.62L252.93 188.17 252.9 185.13 252.9 187.62Z" fill="black" stroke="black" stroke-width="0.2"/>
<path d="M252.93 188.17L252.93 184.76 252.9 185.13 252.93 188.17Z" fill="black" stroke="black" stroke-width="0.2"/>
<path d="M252.93 188.17L252.97 188.68 252.93 184.76 252.93 188.17Z" fill="black" stroke="black" stroke-width="0.2"/>
<path d="M252.97 188.68L252.97 184.12 252.93 184.76 252.97 188.68Z" fill="black" stroke="black" stroke-width="0.2"/>
<path d="M252.97 188.68L253.01 189.18 252.97 184.12 252.97 188.68Z" fill="black" stroke="black" stroke-width="0.2"/>
<path d="M253.01 189.18L253.01 183.72 252.97 184.12 253.01 189.18Z" fill="black" stroke="black" stroke-width="0.2"/>
<path d="M253.01 189.18L253.08 189.7 253.01 183.72 253.01 189.18Z" fill="black" stroke="black" stroke-width="0.2"/>
<path d="M253.08 189.7L253.08 183.12 253.01 183.72 253.08 189.7Z" fill="black" stroke="black" stroke-width="0.2"/>
<path d="M253.08 189.7L253.14 190.18 253.08 183.12 253.08 189.7Z" fill="black" stroke="black" stroke-width="0.2"/>
<path d="M253.14 190.18L253.14 182.71 253.08 183.12 253.14 190.18Z" fill="black" stroke="black" stroke-width="0.2"/>
<path d="M253.14 190.18L253.23 190.71 253.14 182.71 253.14 190.18Z" fill="black" stroke="black" stroke-width="0.2"/>
<path d="M253.23 190.71L253.23 182.11 253.14 182.71 253.23 190.71Z" fill="black" stroke="black" stroke-width="0.2"/>
<path d="M253.23 190.71L253.3 191.18 253.23 182.11 253.23 190.71Z" fill="black" stroke="black" stroke-width="0.2"/>
<path d="M253.3 191.18L253.3 181.7 253.23 182.11 253.3 191.18Z" fill="black" stroke="black" stroke-width="0.2"/>
<path d="M253.3 191.18L253.41 191.71 253.3 181.7 253.3 191.18Z" fill="black" stroke="black" stroke-width="0.2"/>
<path d="M253.41 191.71L253.41 181.12 253.3 181.7 253.41 191.71Z" fill="black" stroke="black" stroke-width="0.2"/>
<path d="M253.41 191.71L253.51 192.17 253.41 181.12 253.41 191.71Z" fill="black" stroke="black" stroke-width="0.2"/>
<path d="M253.51 192.17L253.51 180.7 253.41 181.12 253.51 192.17Z" fill="black" stroke="black" stroke-width="0.2"/>
<path d="M253.51 192.17L253.64 192.7 253.51 180.7 253.51 192.17Z" fill="black" stroke="black" stroke-width="0.2"/>
<path d="M253.64 192.7L253.64 180.13 253.51 180.7 253.64 192.7Z" fill="black" stroke="black" stroke-width="0.2"/>
<path d="M253.64 192.7L253.75 193.16 253.64 180.13 253.64 192.7Z" fill="black" stroke="black" stroke-width="0.2"/>
<path d="M253.75 193.16L253.75 179.72 253.64 180.13 253.75 193.16Z" fill="black" stroke="black" stroke-width="0.2"/>
<path d="M253.75 193.16L253.9 193.68 253.75 179.72 253.75 193.16Z" fill="black" stroke="black" stroke-width="0.2"/>
<path d="M253.9 193.68L253.9 179.15 253.75 179.72 253.9 193.68Z" fill="black" stroke="black" stroke-width="0.2"/>
<path d="M253.9 193.68L254.03 194.13 253.9 179.15 253.9 193.68Z" fill="black" stroke="black" stroke-width="0.2"/>
<path d="M254.03 194.13L254.03 178.74 253.9 179.15 254.03 194.13Z" fill="black" stroke="black" stroke-width="0.2"/>
<path d="M254.03 194.13L254.2 194.65 254.03 178.74 254.03 194.13Z" fill="black" stroke="black" stroke-width="0.2"/>
<path d="M254.2 194.65L254.2 178.19 254.03 178.74 254.2 194.65Z" fill="black" stroke="black" stroke-width="0.2"/>
<path d="M254.2 194.65L254.35 195.09 254.2 178.19 254.2 194.65Z" fill="black" stroke="black" stroke-width="0.2"/>
<path d="M254.35 195.09L254.35 177.78 254.2 178.19 254.35 195.09Z" fill="black" stroke="black" stroke-width="0.2"/>
<path d="M254.35 195.09L254.54 195.61 254.35 177.78 254.35 195.09Z" fill="black" stroke="black" stroke-width="0.2"/>
<path d="M254.54 195.61L254.54 177.23 254.35 177.78 254.54 195.61Z" fill="black" stroke="black" stroke-width="0.2"/>
<path d="M254.54 195.61L254.7 196.04 254.54 177.23 254.54 195.61Z" fill="black" stroke="black" stroke-width="0.2"/>
<path d="M254.7 196.04L254.7 176.83 254.54 177.23 254.7 196.04Z" fill="black" stroke="black" stroke-width="0.2"/>
<path d="M254.7 196.04L254.91 196.55 254.7 176.83 254.7 196.04Z" fill="black" stroke="black" stroke-width="0.2"/>
<path d="M254.91 196.55L254.91 176.29 254.7 176.83 254.91 196.55Z" fill="black" stroke="black" stroke-width="0.2"/>
<path d="M254.91 196.55L255.09 196.98 254.91 176.29 254.91 196.55Z" fill="black" stroke="black" stroke-width="0.2"/>
<path d="M255.09 196.98L255.09 175.89 254.91 176.29 255.09 196.98Z" fill="black" stroke="black" stroke-width="0.2"/>
<path d="M255.09 196.98L255.32 197.48 255.09 175.89 255.09 196.98Z" fill="black" stroke="black" stroke-width="0.2"/>
<path d="M255.32 197.48L255.32 175.37 255.09 175.89 255.32 197.48Z" fill="black" stroke="black" stroke-width="0.2"/>
<path d="M255.32 197.48L255.52 197.89 255.32 175.37 255.32 197.48Z" fill="black" stroke="black" stroke-width="0.2"/>
<path d="M255.52 197.89L255.52 174.97 255.32 175.37 255.52 197.89Z" fill="black" stroke="black" stroke-width="0.2"/>
<path d="M255.52 197.89L255.77 198.39 255.52 174.97 255.52 197.89Z" fill="black" stroke="black" stroke-width="0.2"/>
<path d="M255.77 198.39L255.77 174.46 255.52 174.97 255.77 198.39Z" fill="black" stroke="black" stroke-width="0.2"/>
<path d="M255.77 198.39L255.98 198.8 255.77 174.46 255.77 198.39Z" fill="black" stroke="black" stroke-width="0.2"/>
<path d="M255.98 198.8L255.98 174.07 255.77 174.46 255.98 198.8Z" fill="black" stroke="black" stroke-width="0.2"/>
<path d="M255.98 198.8L256.25 199.81 255.98 174.07 255.98 198.8Z" fill="black" stroke="black" stroke-width="0.2"/>
<path d="M256.25 199.81L256.25 173.57 255.98 174.07 256.25 199.81Z" fill="black" stroke="black" stroke-width="0.2"/>
<path d="M256.25 199.81L256.76 201.74 256.25 173.57 256.25 199.81Z" fill="black" stroke="black" stroke-width="0.2"/>
<path d="M256.76 201.74L256.76 172.69 256.25 173.57 256.76 201.74Z" fill="black" stroke="black" stroke-width="0.2"/>
<path d="M256.76 201.74L257.31 203.78 256.76 172.69 256.76 201.74Z" fill="black" stroke="black" stroke-width="0.2"/>
<path d="M257.31 203.78L257.31 171.84 256.76 172.69 257.31 203.78Z" fill="black" stroke="black" stroke-width="0.2"/>
<path d="M257.31 203.78L257.89 205.95 257.31 171.84 257.31 203.78Z" fill="black" stroke="black" stroke-width="0.2"/>
<path d="M257.89 205.95L257.89 171.01 257.31 171.84 257.89 205.95Z" fill="black" stroke="black" stroke-width="0.2"/>
<path d="M257.89 205.95L258.51 208.24 257.89 171.01 257.89 205.95Z" fill="black" stroke="black" stroke-width="0.2"/>
<path d="M258.51 208.24L258.51 170.21 257.89 171.01 258.51 208.24Z" fill="black" stroke="black" stroke-width="0.2"/>
<path d="M258.51 208.24L259.15 210.64 258.51 170.21 258.51 208.24Z" fill="black" stroke="black" stroke-width="0.2"/>
<path d="M259.15 210.64L259.15 169.42 258.51 170.21 259.15 210.64Z" fill="black" stroke="black" stroke-width="0.2"/>
<path d="M259.15 210.64L259.82 213.15 259.15 169.42 259.15 210.64Z" fill="black" stroke="black" stroke-width="0.2"/>
<path d="M259.82 213.15L259.82 168.67 259.15 169.42 259.82 213.15Z" fill="black" stroke="black" stroke-width="0.2"/>
<path d="M259.82 213.15L260.52 215.77 259.82 168.67 259.82 213.15Z" fill="black" stroke="black" stroke-width="0.2"/>
<path d="M260.52 215.77L260.52 167.94 259.82 168.67 260.52 215.77Z" fill="black" stroke="black" stroke-width="0.2"/>
<path d="M260.52 215.77L261.25 218.49 260.52 167.94 260.52 215.77Z" fill="black" stroke="black" stroke-width="0.2"/>
<path d="M261.25 218.49L261.25 167.24 260.52 167.94 261.25 218.49Z" fill="black" stroke="black" stroke-width="0.2"/>
<path d="M261.25 218.49L262.01 221.31 261.25 167.24 261.25 218.49Z" fill="black" stroke="black" stroke-width="0.2"/>
<path d="M262.01 221.31L262.01 166.56 261.25 167.24 262.01 221.31Z" fill="black" stroke="black" stroke-width="0.2"/>
<path d="M262.01 221.31L262.79 224.23 262.01 166.56 262.01 221.31Z" fill="black" stroke="black" stroke-width="0.2"/>
<path d="M262.79 224.23L262.79 165.92 262.01 166.56 262.79 224.23Z" fill="black" stroke="black" stroke-width="0.2"/>
<path d="M262.79 224.23L263.6 227.24 262.79 165.92 262.79 224.23Z" fill="black" stroke="black" stroke-width="0.2"/>
<path d="M263.6 227.24L263.6 165.31 262.79 165.92 263.6 227.24Z" fill="black" stroke="black" stroke-width="0.2"/>
<path d="M263.6 227.24L264.43 230.33 263.6 165.31 263.6 227.24Z" fill="black" stroke="black" stroke-width="0.2"/>
<path d="M264.43 230.33L264.43 164.72 263.6 165.31 264.43 230.33Z" fill="black" stroke="black" stroke-width="0.2"/>
<path d="M264.43 230.33L265.28 233.51 264.43 164.72 264.43 230.33Z" fill="black" stroke="black" stroke-width="0.2"/>
<path d="M265.28 233.51L265.28 164.18 264.43 164.72 265.28 233.51Z" fill="black" stroke="black" stroke-width="0.2"/>
<path d="M265.28 233.51L266.15 236.76 265.28 164.18 265.28 233.51Z" fill="black" stroke="black" stroke-width="0.2"/>
<path d="M266.15 236.76L266.15 163.66 265.28 164.18 266.15 236.76Z" fill="black" stroke="black" stroke-width="0.2"/>
<path d="M266.15 236.76L267.04 240.09 266.15 163.66 266.15 236.76Z" fill="black" stroke="black" stroke-width="0.2"/>
<path d="M267.04 240.09L267.04 163.18 266.15 163.66 267.04 240.09Z" fill="black" stroke="black" stroke-width="0.2"/>
<path d="M267.04 240.09L267.95 243.48 267.04 163.18 267.04 240.09Z" fill="black" stroke="black" stroke-width="0.2"/>
<path d="M267.95 243.48L267.95 162.73 267.04 163.18 267.95 243.48Z" fill="black" stroke="black" stroke-width="0.2"/>
<path d="M267.95 243.48L268.88 246.93 267.95 162.73 267.95 243.48Z" fill="black" stroke="black" stroke-width="0.2"/>
<path d="M268.88 246.93L268.88 162.32 267.95 162.73 268.88 246.93Z" fill="black" stroke="black" stroke-width="0.2"/>
<path d="M268.88 246.93L269.82 250.44 268.88 162.32 268.88 246.93Z" fill="black" stroke="black" stroke-width="0.2"/>
<path d="M269.82 250.44L269.82 161.95 268.88 162.32 269.82 250.44Z" fill="black" stroke="black" stroke-width="0.2"/>
<path d="M269.82 250.44L270.77 254.01 269.82 161.95 269.82 250.44Z" fill="black" stroke="black" stroke-width="0.2"/>
<path d="M270.77 254.01L270.77 161.61 269.82 161.95 270.77 254.01Z" fill="black" stroke="black" stroke-width="0.2"/>
<path d="M270.77 254.01L271.74 257.62 270.77 161.61 270.77 254.01Z" fill="black" stroke="black" stroke-width="0.2"/>
<path d="M271.74 257.62L271.74 161.31 270.77 161.61 271.74 257.62Z" fill="black" stroke="black" stroke-width="0.2"/>
<path d="M271.74 257.62L272.72 261.26 271.74 161.31 271.74 257.62Z" fill="black" stroke="black" stroke-width="0.2"/>
<path d="M272.72 261.26L272.72 161.05 271.74 161.31 272.72 261.26Z" fill="black" stroke="black" stroke-width="0.2"/>
<path d="M272.72 261.26L273.7 264.95 272.72 161.05 272.72 261.26Z" fill="black" stroke="black" stroke-width="0.2"/>
<path d="M273.7 264.95L273.7 160.82 272.72 161.05 273.7 264.95Z" fill="black" stroke="black" stroke-width="0.2"/>
<path d="M273.7 264.95L274.7 268.66 273.7 160.82 273.7 264.95Z" fill="black" stroke="black" stroke-width="0.2"/>
<path d="M274.7 268.66L274.7 160.63 273.7 160.82 274.7 268.66Z" fill="black" stroke="black" stroke-width="0.2"/>
<path d="M274.7 268.66L275.7 272.4 274.7 160.63 274.7 268.66Z" fill="black" stroke="black" stroke-width="0.2"/>
<path d="M275.7 272.4L275.7 160.49 274.7 160.63 275.7 272.4Z" fill="black" stroke="black" stroke-width="0.2"/>
<path d="M275.7 272.4L276.71 276.16 275.7 160.49 275.7 272.4Z" fill="black" stroke="black" stroke-width="0.2"/>
<path d="M276.71 276.16L276.71 160.38 275.7 160.49 276.71 276.16Z" fill="black" stroke="black" stroke-width="0.2"/>
<path d="M276.71 276.16L277.72 279.93 276.71 160.38 276.71 276.16Z" fill="black" stroke="black" stroke-width="0.2"/>
<path d="M277.72 279.93L277.72 160.31 276.71 160.38 277.72 279.93Z" fill="black" stroke="black" stroke-width="0.2"/>
<path d="M277.72 279.93L278.73 283.71 277.72 160.31 277.72 279.93Z" fill="black" stroke="black" stroke-width="0.2"/>
<path d="M278.73 283.71L278.73 160.27 277.72 160.31 278.73 283.71Z" fill="black" stroke="black" stroke-width="0.2"/>
<path d="M278.73 283.71L279.74 287.49 278.73 160.27 278.73 283.71Z" fill="black" stroke="black" stroke-width="0.2"/>
<path d="M279.74 287.49L279.74 160.28 278.73 160.27 279.74 287.49Z" fill="black" stroke="black" stroke-width="0.2"/>
<path d="M279.74 287.49L280.75 291.26 279.74 160.28 279.74 287.49Z" fill="black" stroke="black" stroke-width="0.2"/>
<path d="M280.75 291.26L280.75 160.33 279.74 160.28 280.75 291.26Z" fill="black" stroke="black" stroke-width="0.2"/>
<path d="M280.75 291.26L281.37 293.57 280.75 160.33 280.75 291.26Z" fill="black" stroke="black" stroke-width="0.2"/>
<path d="M281.37 293.57L281.37 160.38 280.75 160.33 281.37 293.57Z" fill="black" stroke="black" stroke-width="0.2"/>
<path d="M281.37 191.35L281.39 191.04 281.37 160.38 281.37 191.35Z" fill="black" stroke="black" stroke-width="0.2"/>
<path d="M281.39 191.04L281.39 160.38 281.37 160.38 281.39 191.04Z" fill="black" stroke="black" stroke-width="0.2"/>
<path d="M281.37 293.57L281.4 293.66 281.37 191.35 281.37 293.57Z" fill="black" stroke="black" stroke-width="0.2"/>
<path d="M281.4 293.66L281.4 191.66 281.37 191.35 281.4 293.66Z" fill="black" stroke="black" stroke-width="0.2"/>
<path d="M281.39 191.04L281.44 190.73 281.39 160.38 281.39 191.04Z" fill="black" stroke="black" stroke-width="0.2"/>
<path d="M281.44 190.73L281.44 160.39 281.39 160.38 281.44 190.73Z" fill="black" stroke="black" stroke-width="0.2"/>
<path d="M281.4 293.66L281.46 293.89 281.4 191.66 281.4 293.66Z" fill="black" stroke="black" stroke-width="0.2"/>
<path d="M281.46 293.89L281.46 191.97 281.4 191.66 281.46 293.89Z" fill="black" stroke="black" stroke-width="0.2"/>
<path d="M281.44 190.73L281.53 190.43 281.44 160.39 281.44 190.73Z" fill="black" stroke="black" stroke-width="0.2"/>
<path d="M281.53 190.43L281.53 160.4 281.44 160.39 281.53 190.43Z" fill="black" stroke="black" stroke-width="0.2"/>
<path d="M281.53 190.43L281.66 190.15 281.53 160.4 281.53 190.43Z" fill="black" stroke="black" stroke-width="0.2"/>
<path d="M281.66 190.15L281.66 160.41 281.53 160.4 281.66 190.15Z" fill="black" stroke="black" stroke-width="0.2"/>
<path d="M281.66 190.15L281.76 189.97 281.66 160.41 281.66 190.15Z" fill="black" stroke="black" stroke-width="0.2"/>
<path d="M281.76 189.97L281.76 160.42 281.66 160.41 281.76 189.97Z" fill="black" stroke="black" stroke-width="0.2"/>
<path d="M281.76 189.97L281.82 189.88 281.76 160.42 281.76 189.97Z" fill="black" stroke="black" stroke-width="0.2"/>
<path d="M281.82 189.88L281.82 160.42 281.76 160.42 281.82 189.88Z" fill="black" stroke="black" stroke-width="0.2"/>
<path d="M281.82 189.88L282.01 189.63 281.82 160.42 281.82 189.88Z" fill="black" stroke="black" stroke-width="0.2"/>
<path d="M282.01 189.63L282.01 160.45 281.82 160.42 282.01 189.63Z" fill="black" stroke="black" stroke-width="0.2"/>
<path d="M282.01 189.63L282.23 189.41 282.01 160.45 282.01 189.63Z" fill="black" stroke="black" stroke-width="0.2"/>
<path d="M282.23 189.41L282.23 160.47 282.01 160.45 282.23 189.41Z" fill="black" stroke="black" stroke-width="0.2"/>
<path d="M282.23 189.41L282.48 189.22 282.23 160.47 282.23 189.41Z" fill="black" stroke="black" stroke-width="0.2"/>
<path d="M282.48 189.22L282.48 160.51 282.23 160.47 282.48 189.22Z" fill="black" stroke="black" stroke-width="0.2"/>
<path d="M282.48 189.22L282.74 189.06 282.48 160.51 282.48 189.22Z" fill="black" stroke="black" stroke-width="0.2"/>
<path d="M282.74 189.06L282.74 160.54 282.48 160.51 282.74 189.06Z" fill="black" stroke="black" stroke-width="0.2"/>
<path d="M282.74 189.06L282.77 189.05 282.74 160.54 282.74 189.06Z" fill="black" stroke="black" stroke-width="0.2"/>
<path d="M282.77 189.05L282.77 160.54 282.74 160.54 282.77 189.05Z" fill="black" stroke="black" stroke-width="0.2"/>
<path d="M282.77 189.05L283.03 188.93 282.77 160.54 282.77 189.05Z" fill="black" stroke="black" stroke-width="0.2"/>
<path d="M283.03 188.93L283.03 160.59 282.77 160.54 283.03 188.93Z" fill="black" stroke="black" stroke-width="0.2"/>
<path d="M283.03 188.93L283.33 188.84 283.03 160.59 283.03 188.93Z" fill="black" stroke="black" stroke-width="0.2"/>
<path d="M283.33 188.84L283.33 160.63 283.03 160.59 283.33 188.84Z" fill="black" stroke="black" stroke-width="0.2"/>
<path d="M283.33 188.84L283.64 188.79 283.33 160.63 283.33 188.84Z" fill="black" stroke="black" stroke-width="0.2"/>
<path d="M283.64 188.79L283.64 160.69 283.33 160.63 283.64 188.79Z" fill="black" stroke="black" stroke-width="0.2"/>
<path d="M283.64 188.79L283.77 188.78 283.64 160.69 283.64 188.79Z" fill="black" stroke="black" stroke-width="0.2"/>
<path d="M283.77 188.78L283.77 160.71 283.64 160.69 283.77 188.78Z" fill="black" stroke="black" stroke-width="0.2"/>
<path d="M283.77 188.78L283.95 188.77 283.77 160.71 283.77 188.78Z" fill="black" stroke="black" stroke-width="0.2"/>
<path d="M283.95 188.77L283.95 160.74 283.77 160.71 283.95 188.77Z" fill="black" stroke="black" stroke-width="0.2"/>
<path d="M283.95 188.77L284.26 188.8 283.95 160.74 283.95 188.77Z" fill="black" stroke="black" stroke-width="0.2"/>
<path d="M284.26 188.8L284.26 160.81 283.95 160.74 284.26 188.8Z" fill="black" stroke="black" stroke-width="0.2"/>
<path d="M284.26 188.8L284.57 188.86 284.26 160.81 284.26 188.8Z" fill="black" stroke="black" stroke-width="0.2"/>
<path d="M284.57 188.86L284.57 160.87 284.26 160.81 284.57 188.86Z" fill="black" stroke="black" stroke-width="0.2"/>
<path d="M284.57 188.86L284.76 188.91 284.57 160.87 284.57 188.86Z" fill="black" stroke="black" stroke-width="0.2"/>
<path d="M284.76 188.91L284.76 160.91 284.57 160.87 284.76 188.91Z" fill="black" stroke="black" stroke-width="0.2"/>
<path d="M284.76 188.91L285.74 189.17 284.76 160.91 284.76 188.91Z" fill="black" stroke="black" stroke-width="0.2"/>
<path d="M285.74 189.17L285.74 161.15 284.76 160.91 285.74 189.17Z" fill="black" stroke="black" stroke-width="0.2"/>
<path d="M285.74 189.17L286.72 189.44 285.74 161.15 285.74 189.17Z" fill="black" stroke="black" stroke-width="0.2"/>
<path d="M286.72 189.44L286.72 161.43 285.74 161.15 286.72 189.44Z" fill="black" stroke="black" stroke-width="0.2"/>
<path d="M286.72 189.44L287.68 189.69 286.72 161.43 286.72 189.44Z" fill="black" stroke="black" stroke-width="0.2"/>
<path d="M287.68 189.69L287.68 161.75 286.72 161.43 287.68 189.69Z" fill="black" stroke="black" stroke-width="0.2"/>
<path d="M287.68 189.69L288.63 189.95 287.68 161.75 287.68 189.69Z" fill="black" stroke="black" stroke-width="0.2"/>
<path d="M288.63 189.95L288.63 162.1 287.68 161.75 288.63 189.95Z" fill="black" stroke="black" stroke-width="0.2"/>
<path d="M288.63 189.95L289.56 190.2 288.63 162.1 288.63 189.95Z" fill="black" stroke="black" stroke-width="0.2"/>
<path d="M289.56 190.2L289.56 162.49 288.63 162.1 289.56 190.2Z" fill="black" stroke="black" stroke-width="0.2"/>
<path d="M289.56 190.2L290.48 190.44 289.56 162.49 289.56 190.2Z" fill="black" stroke="black" stroke-width="0.2"/>
<path d="M290.48 190.44L290.48 162.92 289.56 162.49 290.48 190.44Z" fill="black" stroke="black" stroke-width="0.2"/>
<path d="M290.48 190.44L291.38 190.69 290.48 162.92 290.48 190.44Z" fill="black" stroke="black" stroke-width="0.2"/>
<path d="M291.38 190.69L291.38 163.38 290.48 162.92 291.38 190.69Z" fill="black" stroke="black" stroke-width="0.2"/>
<path d="M281.46 293.89L310.6 402.64 281.46 191.97 281.46 293.89Z" fill="black" stroke="black" stroke-width="0.2"/>
<path d="M310.6 402.64L310.6 300.72 281.46 191.97 310.6 402.64Z" fill="black" stroke="black" stroke-width="0.2"/>
<path d="M310.6 402.64L310.89 403.66 310.6 300.72 310.6 402.64Z" fill="black" stroke="black" stroke-width="0.2"/>
<path d="M310.89 403.66L310.89 301.81 310.6 300.72 310.89 403.66Z" fill="black" stroke="black" stroke-width="0.2"/>
<path d="M310.89 403.66L311.22 404.67 310.89 301.81 310.89 403.66Z" fill="black" stroke="black" stroke-width="0.2"/>
<path d="M311.22 404.67L311.22 303.05 310.89 301.81 311.22 404.67Z" fill="black" stroke="black" stroke-width="0.2"/>
<path d="M311.22 404.67L311.59 405.67 311.22 303.05 311.22 404.67Z" fill="black" stroke="black" stroke-width="0.2"/>
<path d="M311.59 405.67L311.59 304.42 311.22 303.05 311.59 405.67Z" fill="black" stroke="black" stroke-width="0.2"/>
<path d="M311.59 405.67L311.99 406.65 311.59 304.42 311.59 405.67Z" fill="black" stroke="black" stroke-width="0.2"/>
<path d="M311.99 406.65L311.99 305.93 311.59 304.42 311.99 406.65Z" fill="black" stroke="black" stroke-width="0.2"/>
<path d="M311.99 406.65L312.43 407.62 311.99 305.93 311.99 406.65Z" fill="black" stroke="black" stroke-width="0.2"/>
<path d="M312.43 407.62L312.43 307.57 311.99 305.93 312.43 407.62Z" fill="black" stroke="black" stroke-width="0.2"/>
<path d="M312.43 407.62L312.91 408.57 312.43 307.57 312.43 407.62Z" fill="black" stroke="black" stroke-width="0.2"/>
<path d="M312.91 408.57L312.91 309.35 312.43 307.57 312.91 408.57Z" fill="black" stroke="black" stroke-width="0.2"/>
<path d="M312.91 408.57L313.42 409.5 312.91 309.35 312.91 408.57Z" fill="black" stroke="black" stroke-width="0.2"/>
<path d="M313.42 409.5L313.42 311.25 312.91 309.35 313.42 409.5Z" fill="black" stroke="black" stroke-width="0.2"/>
<path d="M313.42 409.5L313.96 410.41 313.42 311.25 313.42 409.5Z" fill="black" stroke="black" stroke-width="0.2"/>
<path d="M313.96 410.41L313.96 313.28 313.42 311.25 313.96 410.41Z" fill="black" stroke="black" stroke-width="0.2"/>
<path d="M313.96 410.41L314.54 411.3 313.96 313.28 313.96 410.41Z" fill="black" stroke="black" stroke-width="0.2"/>
<path d="M314.54 411.3L314.54 315.44 313.96 313.28 314.54 411.3Z" fill="black" stroke="black" stroke-width="0.2"/>
<path d="M314.54 411.3L315.15 412.17 314.54 315.44 314.54 411.3Z" fill="black" stroke="black" stroke-width="0.2"/>
<path d="M315.15 412.17L315.15 317.71 314.54 315.44 315.15 412.17Z" fill="black" stroke="black" stroke-width="0.2"/>
<path d="M315.15 412.17L315.79 413.02 315.15 317.71 315.15 412.17Z" fill="black" stroke="black" stroke-width="0.2"/>
<path d="M315.79 413.02L315.79 320.1 315.15 317.71 315.79 413.02Z" fill="black" stroke="black" stroke-width="0.2"/>
<path d="M315.79 413.02L316.46 413.84 315.79 320.1 315.79 413.02Z" fill="black" stroke="black" stroke-width="0.2"/>
<path d="M316.46 413.84L316.46 322.61 315.79 320.1 316.46 413.84Z" fill="black" stroke="black" stroke-width="0.2"/>
<path d="M316.46 413.84L317.16 414.64 316.46 322.61 316.46 413.84Z" fill="black" stroke="black" stroke-width="0.2"/>
<path d="M317.16 414.64L317.16 325.23 316.46 322.61 317.16 414.64Z" fill="black" stroke="black" stroke-width="0.2"/>
<path d="M317.16 414.64L317.89 415.41 317.16 325.23 317.16 414.64Z" fill="black" stroke="black" stroke-width="0.2"/>
<path d="M317.89 415.41L317.89 327.95 317.16 325.23 317.89 415.41Z" fill="black" stroke="black" stroke-width="0.2"/>
<path d="M317.89 415.41L318.65 416.16 317.89 327.95 317.89 415.41Z" fill="black" stroke="black" stroke-width="0.2"/>
<path d="M318.65 416.16L318.65 330.78 317.89 327.95 318.65 416.16Z" fill="black" stroke="black" stroke-width="0.2"/>
<path d="M318.65 416.16L319.44 416.87 318.65 330.78 318.65 416.16Z" fill="black" stroke="black" stroke-width="0.2"/>
<path d="M319.44 416.87L319.44 333.71 318.65 330.78 319.44 416.87Z" fill="black" stroke="black" stroke-width="0.2"/>
<path d="M319.44 416.87L320.25 417.56 319.44 333.71 319.44 416.87Z" fill="black" stroke="black" stroke-width="0.2"/>
<path d="M320.25 417.56L320.25 336.74 319.44 333.71 320.25 417.56Z" fill="black" stroke="black" stroke-width="0.2"/>
<path d="M320.25 417.56L321.08 418.22 320.25 336.74 320.25 417.56Z" fill="black" stroke="black" stroke-width="0.2"/>
<path d="M321.08 418.22L321.08 339.86 320.25 336.74 321.08 418.22Z" fill="black" stroke="black" stroke-width="0.2"/>
<path d="M321.08 418.22L321.94 418.84 321.08 339.86 321.08 418.22Z" fill="black" stroke="black" stroke-width="0.2"/>
<path d="M321.94 418.84L321.94 343.06 321.08 339.86 321.94 418.84Z" fill="black" stroke="black" stroke-width="0.2"/>
<path d="M321.94 418.84L322.82 419.44 321.94 343.06 321.94 418.84Z" fill="black" stroke="black" stroke-width="0.2"/>
<path d="M322.82 419.44L322.82 346.35 321.94 343.06 322.82 419.44Z" fill="black" stroke="black" stroke-width="0.2"/>
<path d="M322.82 419.44L323.73 420 322.82 346.35 322.82 419.44Z" fill="black" stroke="black" stroke-width="0.2"/>
<path d="M323.73 420L323.73 349.72 322.82 346.35 323.73 420Z" fill="black" stroke="black" stroke-width="0.2"/>
<path d="M323.73 420L324.65 420.52 323.73 349.72 323.73 420Z" fill="black" stroke="black" stroke-width="0.2"/>
<path d="M324.65 420.52L324.65 353.16 323.73 349.72 324.65 420.52Z" fill="black" stroke="black" stroke-width="0.2"/>
<path d="M324.65 420.52L325.59 421.02 324.65 353.16 324.65 420.52Z" fill="black" stroke="black" stroke-width="0.2"/>
<path d="M325.59 421.02L325.59 356.67 324.65 353.16 325.59 421.02Z" fill="black" stroke="black" stroke-width="0.2"/>
<path d="M325.59 421.02L326.55 421.47 325.59 356.67 325.59 421.02Z" fill="black" stroke="black" stroke-width="0.2"/>
<path d="M326.55 421.47L326.55 360.25 325.59 356.67 326.55 421.47Z" fill="black" stroke="black" stroke-width="0.2"/>
<path d="M326.55 421.47L327.52 421.9 326.55 360.25 326.55 421.47Z" fill="black" stroke="black" stroke-width="0.2"/>
<path d="M327.52 421.9L327.52 363.89 326.55 360.25 327.52 421.9Z" fill="black" stroke="black" stroke-width="0.2"/>
<path d="M327.52 421.9L328.51 422.28 327.52 363.89 327.52 421.9Z" fill="black" stroke="black" stroke-width="0.2"/>
<path d="M328.51 422.28L328.51 367.59 327.52 363.89 328.51 422.28Z" fill="black" stroke="black" stroke-width="0.2"/>
<path d="M328.51 422.28L329.52 422.63 328.51 367.59 328.51 422.28Z" fill="black" stroke="black" stroke-width="0.2"/>
<path d="M329.52 422.63L329.52 371.33 328.51 367.59 329.52 422.63Z" fill="black" stroke="black" stroke-width="0.2"/>
<path d="M329.52 422.63L330.53 422.94 329.52 371.33 329.52 422.63Z" fill="black" stroke="black" stroke-width="0.2"/>
<path d="M330.53 422.94L330.53 375.12 329.52 371.33 330.53 422.94Z" fill="black" stroke="black" stroke-width="0.2"/>
<path d="M330.53 422.94L331.56 423.22 330.53 375.12 330.53 422.94Z" fill="black" stroke="black" stroke-width="0.2"/>
<path d="M331.56 423.22L331.56 378.95 330.53 375.12 331.56 423.22Z" fill="black" stroke="black" stroke-width="0.2"/>
<path d="M331.56 423.22L332.59 423.46 331.56 378.95 331.56 423.22Z" fill="black" stroke="black" stroke-width="0.2"/>
<path d="M332.59 423.46L332.59 382.82 331.56 378.95 332.59 423.46Z" fill="black" stroke="black" stroke-width="0.2"/>
<path d="M332.59 423.46L333.64 423.66 332.59 382.82 332.59 423.46Z" fill="black" stroke="black" stroke-width="0.2"/>
<path d="M333.64 423.66L333.64 386.71 332.59 382.82 333.64 423.66Z" fill="black" stroke="black" stroke-width="0.2"/>
<path d="M333.64 423.66L334.69 423.82 333.64 386.71 333.64 423.66Z" fill="black" stroke="black" stroke-width="0.2"/>
<path d="M334.69 423.82L334.69 390.63 333.64 386.71 334.69 423.82Z" fill="black" stroke="black" stroke-width="0.2"/>
<path d="M334.69 423.82L335.74 423.94 334.69 390.63 334.69 423.82Z" fill="black" stroke="black" stroke-width="0.2"/>
<path d="M335.74 423.94L335.74 394.57 334.69 390.63 335.74 423.94Z" fill="black" stroke="black" stroke-width="0.2"/>
<path d="M335.74 423.94L336.08 423.96 335.74 394.57 335.74 423.94Z" fill="black" stroke="black" stroke-width="0.2"/>
<path d="M336.08 423.96L336.08 395.81 335.74 394.57 336.08 423.96Z" fill="black" stroke="black" stroke-width="0.2"/>
<path d="M336.08 423.96L336.18 423.97 336.08 395.81 336.08 423.96Z" fill="black" stroke="black" stroke-width="0.2"/>
<path d="M336.18 423.97L336.18 396.11 336.08 395.81 336.18 423.97Z" fill="black" stroke="black" stroke-width="0.2"/>
<path d="M336.18 423.97L336.31 423.98 336.18 396.11 336.18 423.97Z" fill="black" stroke="black" stroke-width="0.2"/>
<path d="M336.31 423.98L336.31 396.39 336.18 396.11 336.31 423.98Z" fill="black" stroke="black" stroke-width="0.2"/>
<path d="M336.31 423.98L336.48 424 336.31 396.39 336.31 423.98Z" fill="black" stroke="black" stroke-width="0.2"/>
<path d="M336.48 424L336.48 396.65 336.31 396.39 336.48 424Z" fill="black" stroke="black" stroke-width="0.2"/>
<path d="M336.48 424L336.68 424.01 336.48 396.65 336.48 424Z" fill="black" stroke="black" stroke-width="0.2"/>
<path d="M336.68 424.01L336.68 396.89 336.48 396.65 336.68 424.01Z" fill="black" stroke="black" stroke-width="0.2"/>
<path d="M336.68 424.01L336.8 424.02 336.68 396.89 336.68 424.01Z" fill="black" stroke="black" stroke-width="0.2"/>
<path d="M336.8 424.02L336.8 397.01 336.68 396.89 336.8 424.02Z" fill="black" stroke="black" stroke-width="0.2"/>
<path d="M336.8 424.02L336.91 424.03 336.8 397.01 336.8 424.02Z" fill="black" stroke="black" stroke-width="0.2"/>
<path d="M336.91 424.03L336.91 397.11 336.8 397.01 336.91 424.03Z" fill="black" stroke="black" stroke-width="0.2"/>
<path d="M336.91 424.03L337.16 424.04 336.91 397.11 336.91 424.03Z" fill="black" stroke="black" stroke-width="0.2"/>
<path d="M337.16 424.04L337.16 397.29 336.91 397.11 337.16 424.04Z" fill="black" stroke="black" stroke-width="0.2"/>
<path d="M337.16 424.04L337.43 424.05 337.16 397.29 337.16 424.04Z" fill="black" stroke="black" stroke-width="0.2"/>
<path d="M337.43 424.05L337.43 397.44 337.16 397.29 337.43 424.05Z" fill="black" stroke="black" stroke-width="0.2"/>
<path d="M337.43 424.05L337.72 424.06 337.43 397.44 337.43 424.05Z" fill="black" stroke="black" stroke-width="0.2"/>
<path d="M337.72 424.06L337.72 397.56 337.43 397.44 337.72 424.06Z" fill="black" stroke="black" stroke-width="0.2"/>
<path d="M337.72 424.06L337.87 424.06 337.72 397.56 337.72 424.06Z" fill="black" stroke="black" stroke-width="0.2"/>
<path d="M337.87 424.06L337.87 397.6 337.72 397.56 337.87 424.06Z" fill="black" stroke="black" stroke-width="0.2"/>
<path d="M337.87 424.06L338.02 424.07 337.87 397.6 337.87 424.06Z" fill="black" stroke="black" stroke-width="0.2"/>
<path d="M338.02 424.07L338.02 397.64 337.87 397.6 338.02 424.07Z" fill="black" stroke="black" stroke-width="0.2"/>
<path d="M338.02 424.07L338.33 424.07 338.02 397.64 338.02 424.07Z" fill="black" stroke="black" stroke-width="0.2"/>
<path d="M338.33 424.07L338.33 397.69 338.02 397.64 338.33 424.07Z" fill="black" stroke="black" stroke-width="0.2"/>
<path d="M338.33 424.07L338.65 424.07 338.33 397.69 338.33 424.07Z" fill="black" stroke="black" stroke-width="0.2"/>
<path d="M338.65 424.07L338.65 397.69 338.33 397.69 338.65 424.07Z" fill="black" stroke="black" stroke-width="0.2"/>
<path d="M338.65 424.07L338.93 424.07 338.65 397.69 338.65 424.07Z" fill="black" stroke="black" stroke-width="0.2"/>
<path d="M338.93 424.07L338.93 397.66 338.65 397.69 338.93 424.07Z" fill="black" stroke="black" stroke-width="0.2"/>
<path d="M338.93 424.07L338.96 424.07 338.93 397.66 338.93 424.07Z" fill="black" stroke="black" stroke-width="0.2"/>
<path d="M338.96 424.07L338.96 397.66 338.93 397.66 338.96 424.07Z" fill="black" stroke="black" stroke-width="0.2"/>
<path d="M338.96 424.07L339.26 424.06 338.96 397.66 338.96 424.07Z" fill="black" stroke="black" stroke-width="0.2"/>
<path d="M339.26 424.06L339.26 397.59 338.96 397.66 339.26 424.06Z" fill="black" stroke="black" stroke-width="0.2"/>
<path d="M339.26 424.06L339.55 424.05 339.26 397.59 339.26 424.06Z" fill="black" stroke="black" stroke-width="0.2"/>
<path d="M339.55 424.05L339.55 397.48 339.26 397.59 339.55 424.05Z" fill="black" stroke="black" stroke-width="0.2"/>
<path d="M339.55 424.05L339.83 424.04 339.55 397.48 339.55 424.05Z" fill="black" stroke="black" stroke-width="0.2"/>
<path d="M339.83 424.04L339.83 397.33 339.55 397.48 339.83 424.04Z" fill="black" stroke="black" stroke-width="0.2"/>
<path d="M339.83 424.04L339.99 424.04 339.83 397.33 339.83 424.04Z" fill="black" stroke="black" stroke-width="0.2"/>
<path d="M339.99 424.04L339.99 397.23 339.83 397.33 339.99 424.04Z" fill="black" stroke="black" stroke-width="0.2"/>
<path d="M339.99 424.04L340.09 424.03 339.99 397.23 339.99 424.04Z" fill="black" stroke="black" stroke-width="0.2"/>
<path d="M340.09 424.03L340.09 397.16 339.99 397.23 340.09 424.03Z" fill="black" stroke="black" stroke-width="0.2"/>
<path d="M340.09 424.03L340.32 424.01 340.09 397.16 340.09 424.03Z" fill="black" stroke="black" stroke-width="0.2"/>
<path d="M340.32 424.01L340.32 396.95 340.09 397.16 340.32 424.01Z" fill="black" stroke="black" stroke-width="0.2"/>
<path d="M340.32 424.01L341.05 423.96 340.32 396.95 340.32 424.01Z" fill="black" stroke="black" stroke-width="0.2"/>
<path d="M341.05 423.96L341.05 396.22 340.32 396.95 341.05 423.96Z" fill="black" stroke="black" stroke-width="0.2"/>
<path d="M341.05 423.96L342.11 423.85 341.05 396.22 341.05 423.96Z" fill="black" stroke="black" stroke-width="0.2"/>
<path d="M342.11 423.85L342.11 395.17 341.05 396.22 342.11 423.85Z" fill="black" stroke="black" stroke-width="0.2"/>
<path d="M342.11 423.85L343.16 423.7 342.11 395.17 342.11 423.85Z" fill="black" stroke="black" stroke-width="0.2"/>
<path d="M343.16 423.7L343.16 394.12 342.11 395.17 343.16 423.7Z" fill="black" stroke="black" stroke-width="0.2"/>
<path d="M343.16 423.7L344.2 423.51 343.16 394.12 343.16 423.7Z" fill="black" stroke="black" stroke-width="0.2"/>
<path d="M344.2 423.51L344.2 393.07 343.16 394.12 344.2 423.51Z" fill="black" stroke="black" stroke-width="0.2"/>
<path d="M344.2 423.51L345.24 423.28 344.2 393.07 344.2 423.51Z" fill="black" stroke="black" stroke-width="0.2"/>
<path d="M345.24 423.28L345.24 392.03 344.2 393.07 345.24 423.28Z" fill="black" stroke="black" stroke-width="0.2"/>
<path d="M345.24 423.28L346.27 423.02 345.24 392.03 345.24 423.28Z" fill="black" stroke="black" stroke-width="0.2"/>
<path d="M346.27 423.02L346.27 391 345.24 392.03 346.27 423.02Z" fill="black" stroke="black" stroke-width="0.2"/>
<path d="M346.27 423.02L347.29 422.71 346.27 391 346.27 423.02Z" fill="black" stroke="black" stroke-width="0.2"/>
<path d="M347.29 422.71L347.29 389.99 346.27 391 347.29 422.71Z" fill="black" stroke="black" stroke-width="0.2"/>
<path d="M347.29 422.71L348.29 422.37 347.29 389.99 347.29 422.71Z" fill="black" stroke="black" stroke-width="0.2"/>
<path d="M348.29 422.37L348.29 388.98 347.29 389.99 348.29 422.37Z" fill="black" stroke="black" stroke-width="0.2"/>
<path d="M348.29 422.37L349.29 422 348.29 388.98 348.29 422.37Z" fill="black" stroke="black" stroke-width="0.2"/>
<path d="M349.29 422L349.29 387.99 348.29 388.98 349.29 422Z" fill="black" stroke="black" stroke-width="0.2"/>
<path d="M349.29 422L350.27 421.58 349.29 387.99 349.29 422Z" fill="black" stroke="black" stroke-width="0.2"/>
<path d="M350.27 421.58L350.27 387.01 349.29 387.99 350.27 421.58Z" fill="black" stroke="black" stroke-width="0.2"/>
<path d="M350.27 421.58L351.23 421.13 350.27 387.01 350.27 421.58Z" fill="black" stroke="black" stroke-width="0.2"/>
<path d="M351.23 421.13L351.23 386.04 350.27 387.01 351.23 421.13Z" fill="black" stroke="black" stroke-width="0.2"/>
<path d="M351.23 421.13L352.18 420.65 351.23 386.04 351.23 421.13Z" fill="black" stroke="black" stroke-width="0.2"/>
<path d="M352.18 420.65L352.18 385.1 351.23 386.04 352.18 420.65Z" fill="black" stroke="black" stroke-width="0.2"/>
<path d="M352.18 420.65L353.1 420.13 352.18 385.1 352.18 420.65Z" fill="black" stroke="black" stroke-width="0.2"/>
<path d="M353.1 420.13L353.1 384.17 352.18 385.1 353.1 420.13Z" fill="black" stroke="black" stroke-width="0.2"/>
<path d="M353.1 420.13L354.01 419.58 353.1 384.17 353.1 420.13Z" fill="black" stroke="black" stroke-width="0.2"/>
<path d="M354.01 419.58L354.01 383.26 353.1 384.17 354.01 419.58Z" fill="black" stroke="black" stroke-width="0.2"/>
<path d="M354.01 419.58L354.9 418.99 354.01 383.26 354.01 419.58Z" fill="black" stroke="black" stroke-width="0.2"/>
<path d="M354.9 418.99L354.9 382.38 354.01 383.26 354.9 418.99Z" fill="black" stroke="black" stroke-width="0.2"/>
<path d="M354.9 418.99L355.76 418.38 354.9 382.38 354.9 418.99Z" fill="black" stroke="black" stroke-width="0.2"/>
<path d="M355.76 418.38L355.76 381.51 354.9 382.38 355.76 418.38Z" fill="black" stroke="black" stroke-width="0.2"/>
<path d="M355.76 418.38L356.6 417.73 355.76 381.51 355.76 418.38Z" fill="black" stroke="black" stroke-width="0.2"/>
<path d="M356.6 417.73L356.6 380.67 355.76 381.51 356.6 417.73Z" fill="black" stroke="black" stroke-width="0.2"/>
<path d="M356.6 417.73L357.42 417.05 356.6 380.67 356.6 417.73Z" fill="black" stroke="black" stroke-width="0.2"/>
<path d="M357.42 417.05L357.42 379.85 356.6 380.67 357.42 417.05Z" fill="black" stroke="black" stroke-width="0.2"/>
<path d="M357.42 417.05L358.21 416.34 357.42 379.85 357.42 417.05Z" fill="black" stroke="black" stroke-width="0.2"/>
<path d="M358.21 416.34L358.21 379.06 357.42 379.85 358.21 416.34Z" fill="black" stroke="black" stroke-width="0.2"/>
<path d="M358.21 416.34L358.98 415.6 358.21 379.06 358.21 416.34Z" fill="black" stroke="black" stroke-width="0.2"/>
<path d="M358.98 415.6L358.98 378.3 358.21 379.06 358.98 415.6Z" fill="black" stroke="black" stroke-width="0.2"/>
<path d="M291.38 190.69L488.41 243.48 291.38 163.38 291.38 190.69Z" fill="black" stroke="black" stroke-width="0.2"/>
<path d="M488.41 243.48L488.41 216.17 291.38 163.38 488.41 243.48Z" fill="black" stroke="black" stroke-width="0.2"/>
<path d="M488.41 243.48L488.7 243.58 488.41 216.17 488.41 243.48Z" fill="black" stroke="black" stroke-width="0.2"/>
<path d="M488.7 243.58L488.7 216.25 488.41 216.17 488.7 243.58Z" fill="black" stroke="black" stroke-width="0.2"/>
<path d="M488.7 243.58L488.98 243.71 488.7 216.25 488.7 243.58Z" fill="black" stroke="black" stroke-width="0.2"/>
<path d="M488.98 243.71L488.98 216.32 488.7 216.25 488.98 243.71Z" fill="black" stroke="black" stroke-width="0.2"/>
<path d="M488.98 243.71L489.25 243.88 488.98 216.32 488.98 243.71Z" fill="black" stroke="black" stroke-width="0.2"/>
<path d="M489.25 243.88L489.25 216.39 488.98 216.32 489.25 243.88Z" fill="black" stroke="black" stroke-width="0.2"/>
<path d="M489.25 243.88L489.49 244.08 489.25 216.39 489.25 243.88Z" fill="black" stroke="black" stroke-width="0.2"/>
<path d="M489.49 244.08L489.49 216.46 489.25 216.39 489.49 244.08Z" fill="black" stroke="black" stroke-width="0.2"/>
<path d="M358.98 415.6L489.55 285.03 358.98 378.3 358.98 415.6Z" fill="black" stroke="black" stroke-width="0.2"/>
<path d="M489.55 285.03L489.55 247.73 358.98 378.3 489.55 285.03Z" fill="black" stroke="black" stroke-width="0.2"/>
<path d="M489.49 244.08L489.7 244.31 489.49 216.46 489.49 244.08Z" fill="black" stroke="black" stroke-width="0.2"/>
<path d="M489.7 244.31L489.7 216.52 489.49 216.46 489.7 244.31Z" fill="black" stroke="black" stroke-width="0.2"/>
<path d="M489.55 285.03L489.75 284.83 489.55 247.73 489.55 285.03Z" fill="black" stroke="black" stroke-width="0.2"/>
<path d="M489.75 284.83L489.75 247.49 489.55 247.73 489.75 284.83Z" fill="black" stroke="black" stroke-width="0.2"/>
<path d="M489.7 244.31L489.89 244.56 489.7 216.52 489.7 244.31Z" fill="black" stroke="black" stroke-width="0.2"/>
<path d="M489.89 244.56L489.89 216.57 489.7 216.52 489.89 244.56Z" fill="black" stroke="black" stroke-width="0.2"/>
<path d="M489.75 284.83L489.93 284.65 489.75 247.49 489.75 284.83Z" fill="black" stroke="black" stroke-width="0.2"/>
<path d="M489.93 284.65L489.93 247.23 489.75 247.49 489.93 284.65Z" fill="black" stroke="black" stroke-width="0.2"/>
<path d="M489.89 244.56L490.04 244.83 489.89 216.57 489.89 244.56Z" fill="black" stroke="black" stroke-width="0.2"/>
<path d="M490.04 244.83L490.04 216.61 489.89 216.57 490.04 244.83Z" fill="black" stroke="black" stroke-width="0.2"/>
<path d="M489.93 284.65L490.08 284.5 489.93 247.23 489.93 284.65Z" fill="black" stroke="black" stroke-width="0.2"/>
<path d="M490.08 284.5L490.08 246.96 489.93 247.23 490.08 284.5Z" fill="black" stroke="black" stroke-width="0.2"/>
<path d="M490.04 244.83L490.16 245.12 490.04 216.61 490.04 244.83Z" fill="black" stroke="black" stroke-width="0.2"/>
<path d="M490.16 245.12L490.16 216.64 490.04 216.61 490.16 245.12Z" fill="black" stroke="black" stroke-width="0.2"/>
<path d="M490.08 284.5L490.18 284.4 490.08 246.96 490.08 284.5Z" fill="black" stroke="black" stroke-width="0.2"/>
<path d="M490.18 284.4L490.18 246.66 490.08 246.96 490.18 284.4Z" fill="black" stroke="black" stroke-width="0.2"/>
<path d="M490.16 245.12L490.24 245.42 490.16 216.64 490.16 245.12Z" fill="black" stroke="black" stroke-width="0.2"/>
<path d="M490.24 245.42L490.24 216.66 490.16 216.64 490.24 245.42Z" fill="black" stroke="black" stroke-width="0.2"/>
<path d="M490.18 284.4L490.25 284.32 490.18 246.66 490.18 284.4Z" fill="black" stroke="black" stroke-width="0.2"/>
<path d="M490.25 284.32L490.25 246.36 490.18 246.66 490.25 284.32Z" fill="black" stroke="black" stroke-width="0.2"/>
<path d="M490.24 245.42L490.28 245.73 490.24 216.66 490.24 245.42Z" fill="black" stroke="black" stroke-width="0.2"/>
<path d="M490.28 245.73L490.28 216.67 490.24 216.66 490.28 245.73Z" fill="black" stroke="black" stroke-width="0.2"/>
<path d="M490.25 284.32L490.29 284.29 490.25 246.36 490.25 284.32Z" fill="black" stroke="black" stroke-width="0.2"/>
<path d="M490.29 284.29L490.29 246.05 490.25 246.36 490.29 284.29Z" fill="black" stroke="black" stroke-width="0.2"/>
<path d="M490.28 245.73L490.29 246.05 490.28 216.67 490.28 245.73Z" fill="black" stroke="black" stroke-width="0.2"/>
<path d="M490.29 246.05L490.29 216.67 490.28 216.67 490.29 246.05Z" fill="black" stroke="black" stroke-width="0.2"/>
<path d="M490.29 284.29L495.22 279.36 490.29 216.67 490.29 284.29Z" fill="black" stroke="black" stroke-width="0.2"/>
<path d="M495.22 279.36L495.22 218 490.29 216.67 495.22 279.36Z" fill="black" stroke="black" stroke-width="0.2"/>
<path d="M495.22 279.36L496.24 278.34 495.22 218 495.22 279.36Z" fill="black" stroke="black" stroke-width="0.2"/>
<path d="M496.24 278.34L496.24 218.29 495.22 218 496.24 278.34Z" fill="black" stroke="black" stroke-width="0.2"/>
<path d="M496.24 278.34L497.25 277.33 496.24 218.29 496.24 278.34Z" fill="black" stroke="black" stroke-width="0.2"/>
<path d="M497.25 277.33L497.25 218.62 496.24 218.29 497.25 277.33Z" fill="black" stroke="black" stroke-width="0.2"/>
<path d="M497.25 277.33L498.25 276.33 497.25 218.62 497.25 277.33Z" fill="black" stroke="black" stroke-width="0.2"/>
<path d="M498.25 276.33L498.25 218.99 497.25 218.62 498.25 276.33Z" fill="black" stroke="black" stroke-width="0.2"/>
<path d="M498.25 276.33L499.23 275.35 498.25 218.99 498.25 276.33Z" fill="black" stroke="black" stroke-width="0.2"/>
<path d="M499.23 275.35L499.23 219.39 498.25 218.99 499.23 275.35Z" fill="black" stroke="black" stroke-width="0.2"/>
<path d="M499.23 275.35L500.2 274.38 499.23 219.39 499.23 275.35Z" fill="black" stroke="black" stroke-width="0.2"/>
<path d="M500.2 274.38L500.2 219.83 499.23 219.39 500.2 274.38Z" fill="black" stroke="black" stroke-width="0.2"/>
<path d="M500.2 274.38L501.15 273.43 500.2 219.83 500.2 274.38Z" fill="black" stroke="black" stroke-width="0.2"/>
<path d="M501.15 273.43L501.15 220.31 500.2 219.83 501.15 273.43Z" fill="black" stroke="black" stroke-width="0.2"/>
<path d="M501.15 273.43L502.09 272.49 501.15 220.31 501.15 273.43Z" fill="black" stroke="black" stroke-width="0.2"/>
<path d="M502.09 272.49L502.09 220.82 501.15 220.31 502.09 272.49Z" fill="black" stroke="black" stroke-width="0.2"/>
<path d="M502.09 272.49L503 271.58 502.09 220.82 502.09 272.49Z" fill="black" stroke="black" stroke-width="0.2"/>
<path d="M503 271.58L503 221.36 502.09 220.82 503 271.58Z" fill="black" stroke="black" stroke-width="0.2"/>
<path d="M503 271.58L503.89 270.69 503 221.36 503 271.58Z" fill="black" stroke="black" stroke-width="0.2"/>
<path d="M503.89 270.69L503.89 221.94 503 221.36 503.89 270.69Z" fill="black" stroke="black" stroke-width="0.2"/>
<path d="M503.89 270.69L504.76 269.82 503.89 221.94 503.89 270.69Z" fill="black" stroke="black" stroke-width="0.2"/>
<path d="M504.76 269.82L504.76 222.55 503.89 221.94 504.76 269.82Z" fill="black" stroke="black" stroke-width="0.2"/>
<path d="M504.76 269.82L505.61 268.97 504.76 222.55 504.76 269.82Z" fill="black" stroke="black" stroke-width="0.2"/>
<path d="M505.61 268.97L505.61 223.19 504.76 222.55 505.61 268.97Z" fill="black" stroke="black" stroke-width="0.2"/>
<path d="M505.61 268.97L506.43 268.15 505.61 223.19 505.61 268.97Z" fill="black" stroke="black" stroke-width="0.2"/>
<path d="M506.43 268.15L506.43 223.86 505.61 223.19 506.43 268.15Z" fill="black" stroke="black" stroke-width="0.2"/>
<path d="M506.43 268.15L507.23 267.35 506.43 223.86 506.43 268.15Z" fill="black" stroke="black" stroke-width="0.2"/>
<path d="M507.23 267.35L507.23 224.56 506.43 223.86 507.23 267.35Z" fill="black" stroke="black" stroke-width="0.2"/>
<path d="M507.23 267.35L508 266.58 507.23 224.56 507.23 267.35Z" fill="black" stroke="black" stroke-width="0.2"/>
<path d="M508 266.58L508 225.29 507.23 224.56 508 266.58Z" fill="black" stroke="black" stroke-width="0.2"/>
<path d="M508 266.58L508.2 266.38 508 225.29 508 266.58Z" fill="black" stroke="black" stroke-width="0.2"/>
<path d="M508.2 266.38L508.2 225.49 508 225.29 508.2 266.38Z" fill="black" stroke="black" stroke-width="0.2"/>
<path d="M508.2 266.38L508.75 265.81 508.2 225.49 508.2 266.38Z" fill="black" stroke="black" stroke-width="0.2"/>
<path d="M508.75 265.81L508.75 226.05 508.2 225.49 508.75 265.81Z" fill="black" stroke="black" stroke-width="0.2"/>
<path d="M508.75 265.81L508.94 265.61 508.75 226.05 508.75 265.81Z" fill="black" stroke="black" stroke-width="0.2"/>
<path d="M508.94 265.61L508.94 226.25 508.75 226.05 508.94 265.61Z" fill="black" stroke="black" stroke-width="0.2"/>
<path d="M508.94 265.61L509.47 265.03 508.94 226.25 508.94 265.61Z" fill="black" stroke="black" stroke-width="0.2"/>
<path d="M509.47 265.03L509.47 226.83 508.94 226.25 509.47 265.03Z" fill="black" stroke="black" stroke-width="0.2"/>
<path d="M509.47 265.03L509.65 264.82 509.47 226.83 509.47 265.03Z" fill="black" stroke="black" stroke-width="0.2"/>
<path d="M509.65 264.82L509.65 227.05 509.47 226.83 509.65 264.82Z" fill="black" stroke="black" stroke-width="0.2"/>
<path d="M509.65 264.82L510.15 264.21 509.65 227.05 509.65 264.82Z" fill="black" stroke="black" stroke-width="0.2"/>
<path d="M510.15 264.21L510.15 227.64 509.65 227.05 510.15 264.21Z" fill="black" stroke="black" stroke-width="0.2"/>
<path d="M510.15 264.21L510.33 264.01 510.15 227.64 510.15 264.21Z" fill="black" stroke="black" stroke-width="0.2"/>
<path d="M510.33 264.01L510.33 227.86 510.15 227.64 510.33 264.01Z" fill="black" stroke="black" stroke-width="0.2"/>
<path d="M510.33 264.01L510.81 263.38 510.33 227.86 510.33 264.01Z" fill="black" stroke="black" stroke-width="0.2"/>
<path d="M510.81 263.38L510.81 228.48 510.33 227.86 510.81 263.38Z" fill="black" stroke="black" stroke-width="0.2"/>
<path d="M510.81 263.38L510.98 263.16 510.81 228.48 510.81 263.38Z" fill="black" stroke="black" stroke-width="0.2"/>
<path d="M510.98 263.16L510.98 228.71 510.81 228.48 510.98 263.16Z" fill="black" stroke="black" stroke-width="0.2"/>
<path d="M510.98 263.16L511.43 262.52 510.98 228.71 510.98 263.16Z" fill="black" stroke="black" stroke-width="0.2"/>
<path d="M511.43 262.52L511.43 229.34 510.98 228.71 511.43 262.52Z" fill="black" stroke="black" stroke-width="0.2"/>
<path d="M511.43 262.52L511.59 262.3 511.43 229.34 511.43 262.52Z" fill="black" stroke="black" stroke-width="0.2"/>
<path d="M511.59 262.3L511.59 229.57 511.43 229.34 511.59 262.3Z" fill="black" stroke="black" stroke-width="0.2"/>
<path d="M511.59 262.3L512.03 261.64 511.59 229.57 511.59 262.3Z" fill="black" stroke="black" stroke-width="0.2"/>
<path d="M512.03 261.64L512.03 230.22 511.59 229.57 512.03 261.64Z" fill="black" stroke="black" stroke-width="0.2"/>
<path d="M512.03 261.64L512.18 261.41 512.03 230.22 512.03 261.64Z" fill="black" stroke="black" stroke-width="0.2"/>
<path d="M512.18 261.41L512.18 230.46 512.03 230.22 512.18 261.41Z" fill="black" stroke="black" stroke-width="0.2"/>
<path d="M512.18 261.41L512.59 260.73 512.18 230.46 512.18 261.41Z" fill="black" stroke="black" stroke-width="0.2"/>
<path d="M512.59 260.73L512.59 231.12 512.18 230.46 512.59 260.73Z" fill="black" stroke="black" stroke-width="0.2"/>
<path d="M512.59 260.73L512.73 260.5 512.59 231.12 512.59 260.73Z" fill="black" stroke="black" stroke-width="0.2"/>
<path d="M512.73 260.5L512.73 231.37 512.59 231.12 512.73 260.5Z" fill="black" stroke="black" stroke-width="0.2"/>
<path d="M512.73 260.5L513.12 259.81 512.73 231.37 512.73 260.5Z" fill="black" stroke="black" stroke-width="0.2"/>
<path d="M513.12 259.81L513.12 232.04 512.73 231.37 513.12 259.81Z" fill="black" stroke="black" stroke-width="0.2"/>
<path d="M513.12 259.81L513.25 259.58 513.12 232.04 513.12 259.81Z" fill="black" stroke="black" stroke-width="0.2"/>
<path d="M513.25 259.58L513.25 232.3 513.12 232.04 513.25 259.58Z" fill="black" stroke="black" stroke-width="0.2"/>
<path d="M513.25 259.58L513.61 258.87 513.25 232.3 513.25 259.58Z" fill="black" stroke="black" stroke-width="0.2"/>
<path d="M513.61 258.87L513.61 232.98 513.25 232.3 513.61 258.87Z" fill="black" stroke="black" stroke-width="0.2"/>
<path d="M513.61 258.87L513.73 258.63 513.61 232.98 513.61 258.87Z" fill="black" stroke="black" stroke-width="0.2"/>
<path d="M513.73 258.63L513.73 233.24 513.61 232.98 513.73 258.63Z" fill="black" stroke="black" stroke-width="0.2"/>
<path d="M513.73 258.63L514.07 257.91 513.73 233.24 513.73 258.63Z" fill="black" stroke="black" stroke-width="0.2"/>
<path d="M514.07 257.91L514.07 233.94 513.73 233.24 514.07 257.91Z" fill="black" stroke="black" stroke-width="0.2"/>
<path d="M514.07 257.91L514.18 257.67 514.07 233.94 514.07 257.91Z" fill="black" stroke="black" stroke-width="0.2"/>
<path d="M514.18 257.67L514.18 234.21 514.07 233.94 514.18 257.67Z" fill="black" stroke="black" stroke-width="0.2"/>
<path d="M514.18 257.67L514.49 256.93 514.18 234.21 514.18 257.67Z" fill="black" stroke="black" stroke-width="0.2"/>
<path d="M514.49 256.93L514.49 234.92 514.18 234.21 514.49 256.93Z" fill="black" stroke="black" stroke-width="0.2"/>
<path d="M514.49 256.93L514.6 256.69 514.49 234.92 514.49 256.93Z" fill="black" stroke="black" stroke-width="0.2"/>
<path d="M514.6 256.69L514.6 235.19 514.49 234.92 514.6 256.69Z" fill="black" stroke="black" stroke-width="0.2"/>
<path d="M514.6 256.69L514.88 255.94 514.6 235.19 514.6 256.69Z" fill="black" stroke="black" stroke-width="0.2"/>
<path d="M514.88 255.94L514.88 235.91 514.6 235.19 514.88 255.94Z" fill="black" stroke="black" stroke-width="0.2"/>
<path d="M514.88 255.94L514.97 255.69 514.88 235.91 514.88 255.94Z" fill="black" stroke="black" stroke-width="0.2"/>
<path d="M514.97 255.69L514.97 236.18 514.88 235.91 514.97 255.69Z" fill="black" stroke="black" stroke-width="0.2"/>
<path d="M514.97 255.69L515.23 254.94 514.97 236.18 514.97 255.69Z" fill="black" stroke="black" stroke-width="0.2"/>
<path d="M515.23 254.94L515.23 236.91 514.97 236.18 515.23 254.94Z" fill="black" stroke="black" stroke-width="0.2"/>
<path d="M515.23 254.94L515.31 254.69 515.23 236.91 515.23 254.94Z" fill="black" stroke="black" stroke-width="0.2"/>
<path d="M515.31 254.69L515.31 237.19 515.23 236.91 515.31 254.69Z" fill="black" stroke="black" stroke-width="0.2"/>
<path d="M515.31 254.69L515.54 253.92 515.31 237.19 515.31 254.69Z" fill="black" stroke="black" stroke-width="0.2"/>
<path d="M515.54 253.92L515.54 237.93 515.31 237.19 515.54 253.92Z" fill="black" stroke="black" stroke-width="0.2"/>
<path d="M515.54 253.92L515.62 253.67 515.54 237.93 515.54 253.92Z" fill="black" stroke="black" stroke-width="0.2"/>
<path d="M515.62 253.67L515.62 238.21 515.54 237.93 515.62 253.67Z" fill="black" stroke="black" stroke-width="0.2"/>
<path d="M515.62 253.67L515.82 252.89 515.62 238.21 515.62 253.67Z" fill="black" stroke="black" stroke-width="0.2"/>
<path d="M515.82 252.89L515.82 238.95 515.62 238.21 515.82 252.89Z" fill="black" stroke="black" stroke-width="0.2"/>
<path d="M515.82 252.89L515.88 252.64 515.82 238.95 515.82 252.89Z" fill="black" stroke="black" stroke-width="0.2"/>
<path d="M515.88 252.64L515.88 239.24 515.82 238.95 515.88 252.64Z" fill="black" stroke="black" stroke-width="0.2"/>
<path d="M515.88 252.64L516.05 251.85 515.88 239.24 515.88 252.64Z" fill="black" stroke="black" stroke-width="0.2"/>
<path d="M516.05 251.85L516.05 239.99 515.88 239.24 516.05 251.85Z" fill="black" stroke="black" stroke-width="0.2"/>
<path d="M516.05 251.85L516.11 251.6 516.05 239.99 516.05 251.85Z" fill="black" stroke="black" stroke-width="0.2"/>
<path d="M516.11 251.6L516.11 240.28 516.05 239.99 516.11 251.6Z" fill="black" stroke="black" stroke-width="0.2"/>
<path d="M516.11 251.6L516.25 250.81 516.11 240.28 516.11 251.6Z" fill="black" stroke="black" stroke-width="0.2"/>
<path d="M516.25 250.81L516.25 241.03 516.11 240.28 516.25 250.81Z" fill="black" stroke="black" stroke-width="0.2"/>
<path d="M516.25 250.81L516.3 250.56 516.25 241.03 516.25 250.81Z" fill="black" stroke="black" stroke-width="0.2"/>
<path d="M516.3 250.56L516.3 241.33 516.25 241.03 516.3 250.56Z" fill="black" stroke="black" stroke-width="0.2"/>
<path d="M516.3 250.56L516.41 249.75 516.3 241.33 516.3 250.56Z" fill="black" stroke="black" stroke-width="0.2"/>
<path d="M516.41 249.75L516.41 242.08 516.3 241.33 516.41 249.75Z" fill="black" stroke="black" stroke-width="0.2"/>
<path d="M516.41 249.75L516.45 249.5 516.41 242.08 516.41 249.75Z" fill="black" stroke="black" stroke-width="0.2"/>
<path d="M516.45 249.5L516.45 242.39 516.41 242.08 516.45 249.5Z" fill="black" stroke="black" stroke-width="0.2"/>
<path d="M516.45 249.5L516.54 248.69 516.45 242.39 516.45 249.5Z" fill="black" stroke="black" stroke-width="0.2"/>
<path d="M516.54 248.69L516.54 243.14 516.45 242.39 516.54 248.69Z" fill="black" stroke="black" stroke-width="0.2"/>
<path d="M516.54 248.69L516.56 248.45 516.54 243.14 516.54 248.69Z" fill="black" stroke="black" stroke-width="0.2"/>
<path d="M516.56 248.45L516.56 243.46 516.54 243.14 516.56 248.45Z" fill="black" stroke="black" stroke-width="0.2"/>
<path d="M516.56 248.45L516.62 247.61 516.56 243.46 516.56 248.45Z" fill="black" stroke="black" stroke-width="0.2"/>
<path d="M516.62 247.61L516.62 244.2 516.56 243.46 516.62 247.61Z" fill="black" stroke="black" stroke-width="0.2"/>
<path d="M516.62 247.61L516.63 247.39 516.62 244.2 516.62 247.61Z" fill="black" stroke="black" stroke-width="0.2"/>
<path d="M516.63 247.39L516.63 244.57 516.62 244.2 516.63 247.39Z" fill="black" stroke="black" stroke-width="0.2"/>
<path d="M516.63 247.39L516.66 246.48 516.63 244.57 516.63 247.39Z" fill="black" stroke="black" stroke-width="0.2"/>
<path d="M516.66 246.48L516.66 245.26 516.63 244.57 516.66 246.48Z" fill="black" stroke="black" stroke-width="0.2"/>
<path d="M516.66 246.48L516.67 246.32 516.66 245.26 516.66 246.48Z" fill="black" stroke="black" stroke-width="0.2"/>
<path d="M336.08 395.81L281.46 191.97" fill="none" stroke="black" stroke-width="0.5"/>
<path d="M284.57 188.86L488.41 243.48" fill="none" stroke="black" stroke-width="0.5"/>
<path d="M340.32 396.95L489.55 247.73" fill="none" stroke="black" stroke-width="0.5"/>
<path d="M 284.57 188.86 A 2.538 2.538 0 0 0 281.46 191.97" fill="none" stroke="black" stroke-width="0.5"/>
<path d="M310.6 402.64L255.98 198.8" fill="none" stroke="black" stroke-width="0.5"/>
<path d="M291.38 163.38L495.23 218" fill="none" stroke="black" stroke-width="0.5"/>
<path d="M 336.08 395.81 A 2.538 2.538 0 0 0 340.32 396.95" fill="none" stroke="black" stroke-width="0.5"/>
<path d="M358.98 415.6L508.2 266.38" fill="none" stroke="black" stroke-width="0.5"/>
<path d="M 489.55 247.73 A 2.538 2.538 0 0 0 488.41 243.48" fill="none" stroke="black" stroke-width="0.5"/>
<path d="M 310.6 402.64 A 28.918 28.918 0 0 0 358.98 415.6" fill="none" stroke="black" stroke-width="0.5"/>
<path d="M 508.2 266.38 A 28.918 28.918 0 0 0 495.22 218" fill="none" stroke="black" stroke-width="0.5"/>
<path d="M 291.38 163.38 A 26.155 26.155 0 0 0 255.98 198.8" fill="none" stroke="black" stroke-width="0.5"/>
</svg>