<svg style="fill:#fe4a49;stroke:#fe4a49;" xmlns="http://www.w3.org/2000/svg" version="1.1" viewBox="227.23 146.83 331.52 331.53">
  <desc>Produce by Acme CAD Converter</desc>
<path d="M228.5 175.97L228.5 174.1 228.49 174.94 228.5 175.97Z" stroke-width="0.2"/>
<path d="M228.5 175.97L228.51 176.04 228.5 174.1 228.5 175.97Z" stroke-width="0.2"/>
<path d="M228.51 176.04L228.51 173.92 228.5 174.1 228.51 176.04Z" stroke-width="0.2"/>
<path d="M228.51 176.04L228.56 177 228.51 173.92 228.51 176.04Z" stroke-width="0.2"/>
<path d="M228.56 177L228.56 173.02 228.51 173.92 228.56 177Z" stroke-width="0.2"/>
<path d="M228.56 177L228.57 177.08 228.56 173.02 228.56 177Z" stroke-width="0.2"/>
<path d="M228.57 177.08L228.57 172.89 228.56 173.02 228.57 177.08Z" stroke-width="0.2"/>
<path d="M228.57 177.08L228.66 178.02 228.57 172.89 228.57 177.08Z" stroke-width="0.2"/>
<path d="M228.66 178.02L228.66 171.98 228.57 172.89 228.66 178.02Z" stroke-width="0.2"/>
<path d="M228.66 178.02L228.67 178.11 228.66 171.98 228.66 178.02Z" stroke-width="0.2"/>
<path d="M228.67 178.11L228.67 171.87 228.66 171.98 228.67 178.11Z" stroke-width="0.2"/>
<path d="M228.67 178.11L228.79 179.04 228.67 171.87 228.67 178.11Z" stroke-width="0.2"/>
<path d="M228.79 179.04L228.79 170.96 228.67 171.87 228.79 179.04Z" stroke-width="0.2"/>
<path d="M228.79 179.04L228.81 179.13 228.79 170.96 228.79 179.04Z" stroke-width="0.2"/>
<path d="M228.81 179.13L228.81 170.85 228.79 170.96 228.81 179.13Z" stroke-width="0.2"/>
<path d="M228.81 179.13L228.97 180.06 228.81 170.85 228.81 179.13Z" stroke-width="0.2"/>
<path d="M228.97 180.06L228.97 169.94 228.81 170.85 228.97 180.06Z" stroke-width="0.2"/>
<path d="M228.97 180.06L228.98 180.15 228.97 169.94 228.97 180.06Z" stroke-width="0.2"/>
<path d="M228.98 180.15L228.98 169.83 228.97 169.94 228.98 180.15Z" stroke-width="0.2"/>
<path d="M228.98 180.15L229.18 181.06 228.98 169.83 228.98 180.15Z" stroke-width="0.2"/>
<path d="M229.18 181.06L229.18 168.93 228.98 169.83 229.18 181.06Z" stroke-width="0.2"/>
<path d="M229.18 181.06L229.2 181.15 229.18 168.93 229.18 181.06Z" stroke-width="0.2"/>
<path d="M229.2 181.15L229.2 168.83 229.18 168.93 229.2 181.15Z" stroke-width="0.2"/>
<path d="M229.2 181.15L229.43 182.06 229.2 168.83 229.2 181.15Z" stroke-width="0.2"/>
<path d="M229.43 182.06L229.43 167.94 229.2 168.83 229.43 182.06Z" stroke-width="0.2"/>
<path d="M229.43 182.06L229.46 182.15 229.43 167.94 229.43 182.06Z" stroke-width="0.2"/>
<path d="M229.46 182.15L229.46 167.83 229.43 167.94 229.46 182.15Z" stroke-width="0.2"/>
<path d="M229.46 182.15L229.72 183.05 229.46 167.83 229.46 182.15Z" stroke-width="0.2"/>
<path d="M229.72 183.05L229.72 166.95 229.46 167.83 229.72 183.05Z" stroke-width="0.2"/>
<path d="M229.72 183.05L229.75 183.14 229.72 166.95 229.72 183.05Z" stroke-width="0.2"/>
<path d="M229.75 183.14L229.75 166.85 229.72 166.95 229.75 183.14Z" stroke-width="0.2"/>
<path d="M229.75 183.14L230.05 184.02 229.75 166.85 229.75 183.14Z" stroke-width="0.2"/>
<path d="M230.05 184.02L230.05 165.97 229.75 166.85 230.05 184.02Z" stroke-width="0.2"/>
<path d="M230.05 184.02L230.08 184.11 230.05 165.97 230.05 184.02Z" stroke-width="0.2"/>
<path d="M230.08 184.11L230.08 165.87 230.05 165.97 230.08 184.11Z" stroke-width="0.2"/>
<path d="M230.08 184.11L230.41 184.98 230.08 165.87 230.08 184.11Z" stroke-width="0.2"/>
<path d="M230.41 184.98L230.41 165.01 230.08 165.87 230.41 184.98Z" stroke-width="0.2"/>
<path d="M230.41 184.98L230.45 185.07 230.41 165.01 230.41 184.98Z" stroke-width="0.2"/>
<path d="M230.45 185.07L230.45 164.91 230.41 165.01 230.45 185.07Z" stroke-width="0.2"/>
<path d="M230.45 185.07L230.81 185.93 230.45 164.91 230.45 185.07Z" stroke-width="0.2"/>
<path d="M230.81 185.93L230.81 164.06 230.45 164.91 230.81 185.93Z" stroke-width="0.2"/>
<path d="M230.81 185.93L230.85 186.02 230.81 164.06 230.81 185.93Z" stroke-width="0.2"/>
<path d="M230.85 186.02L230.85 163.97 230.81 164.06 230.85 186.02Z" stroke-width="0.2"/>
<path d="M230.85 186.02L231.25 186.86 230.85 163.97 230.85 186.02Z" stroke-width="0.2"/>
<path d="M231.25 186.86L231.25 163.13 230.85 163.97 231.25 186.86Z" stroke-width="0.2"/>
<path d="M231.25 186.86L231.29 187.03 231.25 163.13 231.25 186.86Z" stroke-width="0.2"/>
<path d="M231.29 187.03L231.29 163.04 231.25 163.13 231.29 187.03Z" stroke-width="0.2"/>
<path d="M231.29 187.03L231.76 188.8 231.29 163.04 231.29 187.03Z" stroke-width="0.2"/>
<path d="M231.76 188.8L231.76 162.12 231.29 163.04 231.76 188.8Z" stroke-width="0.2"/>
<path d="M231.76 188.8L232.27 190.7 231.76 162.12 231.76 188.8Z" stroke-width="0.2"/>
<path d="M232.27 190.7L232.27 161.23 231.76 162.12 232.27 190.7Z" stroke-width="0.2"/>
<path d="M232.27 190.7L232.82 192.73 232.27 161.23 232.27 190.7Z" stroke-width="0.2"/>
<path d="M232.82 192.73L232.82 160.36 232.27 161.23 232.82 192.73Z" stroke-width="0.2"/>
<path d="M232.82 192.73L233.39 194.88 232.82 160.36 232.82 192.73Z" stroke-width="0.2"/>
<path d="M233.39 194.88L233.39 159.5 232.82 160.36 233.39 194.88Z" stroke-width="0.2"/>
<path d="M233.39 194.88L234 197.15 233.39 159.5 233.39 194.88Z" stroke-width="0.2"/>
<path d="M234 197.15L234 158.67 233.39 159.5 234 197.15Z" stroke-width="0.2"/>
<path d="M234 197.15L234.64 199.54 234 158.67 234 197.15Z" stroke-width="0.2"/>
<path d="M234.64 199.54L234.64 157.87 234 158.67 234.64 199.54Z" stroke-width="0.2"/>
<path d="M234.64 199.54L235.31 202.04 234.64 157.87 234.64 199.54Z" stroke-width="0.2"/>
<path d="M235.31 202.04L235.31 157.09 234.64 157.87 235.31 202.04Z" stroke-width="0.2"/>
<path d="M235.31 202.04L236.01 204.64 235.31 157.09 235.31 202.04Z" stroke-width="0.2"/>
<path d="M236.01 204.64L236.01 156.33 235.31 157.09 236.01 204.64Z" stroke-width="0.2"/>
<path d="M236.01 204.64L236.74 207.36 236.01 156.33 236.01 204.64Z" stroke-width="0.2"/>
<path d="M236.74 207.36L236.74 155.61 236.01 156.33 236.74 207.36Z" stroke-width="0.2"/>
<path d="M236.74 207.36L237.49 210.18 236.74 155.61 236.74 207.36Z" stroke-width="0.2"/>
<path d="M237.49 210.18L237.49 154.91 236.74 155.61 237.49 210.18Z" stroke-width="0.2"/>
<path d="M237.49 210.18L238.27 213.09 237.49 154.91 237.49 210.18Z" stroke-width="0.2"/>
<path d="M238.27 213.09L238.27 154.24 237.49 154.91 238.27 213.09Z" stroke-width="0.2"/>
<path d="M238.27 213.09L239.08 216.1 238.27 154.24 238.27 213.09Z" stroke-width="0.2"/>
<path d="M239.08 216.1L239.08 153.6 238.27 154.24 239.08 216.1Z" stroke-width="0.2"/>
<path d="M239.08 216.1L239.91 219.19 239.08 153.6 239.08 216.1Z" stroke-width="0.2"/>
<path d="M239.91 219.19L239.91 152.99 239.08 153.6 239.91 219.19Z" stroke-width="0.2"/>
<path d="M239.91 219.19L240.76 222.38 239.91 152.99 239.91 219.19Z" stroke-width="0.2"/>
<path d="M240.76 222.38L240.76 152.42 239.91 152.99 240.76 222.38Z" stroke-width="0.2"/>
<path d="M240.76 222.38L241.63 225.64 240.76 152.42 240.76 222.38Z" stroke-width="0.2"/>
<path d="M241.63 225.64L241.63 151.87 240.76 152.42 241.63 225.64Z" stroke-width="0.2"/>
<path d="M241.63 225.64L242.53 228.97 241.63 151.87 241.63 225.64Z" stroke-width="0.2"/>
<path d="M242.53 228.97L242.53 151.37 241.63 151.87 242.53 228.97Z" stroke-width="0.2"/>
<path d="M242.53 228.97L243.44 232.38 242.53 151.37 242.53 228.97Z" stroke-width="0.2"/>
<path d="M243.44 232.38L243.44 150.89 242.53 151.37 243.44 232.38Z" stroke-width="0.2"/>
<path d="M243.44 232.38L244.37 235.85 243.44 150.89 243.44 232.38Z" stroke-width="0.2"/>
<path d="M244.37 235.85L244.37 150.45 243.44 150.89 244.37 235.85Z" stroke-width="0.2"/>
<path d="M244.37 235.85L245.32 239.38 244.37 150.45 244.37 235.85Z" stroke-width="0.2"/>
<path d="M245.32 239.38L245.32 150.05 244.37 150.45 245.32 239.38Z" stroke-width="0.2"/>
<path d="M245.32 239.38L246.28 242.97 245.32 150.05 245.32 239.38Z" stroke-width="0.2"/>
<path d="M246.28 242.97L246.28 149.68 245.32 150.05 246.28 242.97Z" stroke-width="0.2"/>
<path d="M246.28 242.97L247.25 246.6 246.28 149.68 246.28 242.97Z" stroke-width="0.2"/>
<path d="M247.25 246.6L247.25 149.35 246.28 149.68 247.25 246.6Z" stroke-width="0.2"/>
<path d="M247.25 246.6L248.24 250.28 247.25 149.35 247.25 246.6Z" stroke-width="0.2"/>
<path d="M248.24 250.28L248.24 149.06 247.25 149.35 248.24 250.28Z" stroke-width="0.2"/>
<path d="M248.24 250.28L249.23 254 248.24 149.06 248.24 250.28Z" stroke-width="0.2"/>
<path d="M249.23 254L249.23 148.81 248.24 149.06 249.23 254Z" stroke-width="0.2"/>
<path d="M249.23 254L250.24 257.75 249.23 148.81 249.23 254Z" stroke-width="0.2"/>
<path d="M250.24 257.75L250.24 148.59 249.23 148.81 250.24 257.75Z" stroke-width="0.2"/>
<path d="M250.24 257.75L251.25 261.54 250.24 148.59 250.24 257.75Z" stroke-width="0.2"/>
<path d="M251.25 261.54L251.25 148.41 250.24 148.59 251.25 261.54Z" stroke-width="0.2"/>
<path d="M251.25 261.54L252.27 265.34 251.25 148.41 251.25 261.54Z" stroke-width="0.2"/>
<path d="M252.27 265.34L252.27 148.28 251.25 148.41 252.27 265.34Z" stroke-width="0.2"/>
<path d="M252.27 265.34L253.3 269.16 252.27 148.28 252.27 265.34Z" stroke-width="0.2"/>
<path d="M253.3 269.16L253.3 148.18 252.27 148.28 253.3 269.16Z" stroke-width="0.2"/>
<path d="M253.3 269.16L254.32 272.99 253.3 148.18 253.3 269.16Z" stroke-width="0.2"/>
<path d="M254.32 272.99L254.32 148.12 253.3 148.18 254.32 272.99Z" stroke-width="0.2"/>
<path d="M254.32 272.99L255.35 276.83 254.32 148.12 254.32 272.99Z" stroke-width="0.2"/>
<path d="M255.35 276.83L255.35 148.09 254.32 148.12 255.35 276.83Z" stroke-width="0.2"/>
<path d="M255.35 276.83L256.3 280.38 255.35 148.09 255.35 276.83Z" stroke-width="0.2"/>
<path d="M256.3 179.08L256.3 148.11 255.35 148.09 256.3 179.08Z" stroke-width="0.2"/>
<path d="M256.3 280.38L256.34 280.52 256.3 179.43 256.3 280.38Z" stroke-width="0.2"/>
<path d="M256.34 280.52L256.34 179.78 256.3 179.43 256.34 280.52Z" stroke-width="0.2"/>
<path d="M256.3 179.08L256.34 178.73 256.3 148.11 256.3 179.08Z" stroke-width="0.2"/>
<path d="M256.34 178.73L256.34 148.11 256.3 148.11 256.34 178.73Z" stroke-width="0.2"/>
<path d="M256.34 178.73L256.38 178.55 256.34 148.11 256.34 178.73Z" stroke-width="0.2"/>
<path d="M256.38 178.55L256.38 148.11 256.34 148.11 256.38 178.55Z" stroke-width="0.2"/>
<path d="M256.34 280.52L256.41 280.79 256.34 179.78 256.34 280.52Z" stroke-width="0.2"/>
<path d="M256.41 280.79L256.41 180.12 256.34 179.78 256.41 280.79Z" stroke-width="0.2"/>
<path d="M256.38 178.55L256.41 178.39 256.38 148.11 256.38 178.55Z" stroke-width="0.2"/>
<path d="M256.41 178.39L256.41 148.11 256.38 148.11 256.41 178.39Z" stroke-width="0.2"/>
<path d="M256.41 178.39L256.52 178.06 256.41 148.11 256.41 178.39Z" stroke-width="0.2"/>
<path d="M256.52 178.06L256.52 148.12 256.41 148.11 256.52 178.06Z" stroke-width="0.2"/>
<path d="M256.52 178.06L256.66 177.74 256.52 148.12 256.52 178.06Z" stroke-width="0.2"/>
<path d="M256.66 177.74L256.66 148.13 256.52 148.12 256.66 177.74Z" stroke-width="0.2"/>
<path d="M256.66 177.74L256.84 177.43 256.66 148.13 256.66 177.74Z" stroke-width="0.2"/>
<path d="M256.84 177.43L256.84 148.14 256.66 148.13 256.84 177.43Z" stroke-width="0.2"/>
<path d="M256.84 177.43L257.04 177.15 256.84 148.14 256.84 177.43Z" stroke-width="0.2"/>
<path d="M257.04 177.15L257.04 148.15 256.84 148.14 257.04 177.15Z" stroke-width="0.2"/>
<path d="M257.04 177.15L257.28 176.89 257.04 148.15 257.04 177.15Z" stroke-width="0.2"/>
<path d="M257.28 176.89L257.28 148.16 257.04 148.15 257.28 176.89Z" stroke-width="0.2"/>
<path d="M257.28 176.89L257.41 176.78 257.28 148.16 257.28 176.89Z" stroke-width="0.2"/>
<path d="M257.41 176.78L257.41 148.17 257.28 148.16 257.41 176.78Z" stroke-width="0.2"/>
<path d="M257.41 176.78L257.54 176.66 257.41 148.17 257.41 176.78Z" stroke-width="0.2"/>
<path d="M257.54 176.66L257.54 148.18 257.41 148.17 257.54 176.66Z" stroke-width="0.2"/>
<path d="M257.54 176.66L257.82 176.45 257.54 148.18 257.54 176.66Z" stroke-width="0.2"/>
<path d="M257.82 176.45L257.82 148.21 257.54 148.18 257.82 176.45Z" stroke-width="0.2"/>
<path d="M257.82 176.45L258.12 176.28 257.82 148.21 257.82 176.45Z" stroke-width="0.2"/>
<path d="M258.12 176.28L258.12 148.24 257.82 148.21 258.12 176.28Z" stroke-width="0.2"/>
<path d="M258.12 176.28L258.43 176.14 258.12 148.24 258.12 176.28Z" stroke-width="0.2"/>
<path d="M258.43 176.14L258.43 148.27 258.12 148.24 258.43 176.14Z" stroke-width="0.2"/>
<path d="M258.43 176.14L258.44 176.13 258.43 148.27 258.43 176.14Z" stroke-width="0.2"/>
<path d="M258.44 176.13L258.44 148.27 258.43 148.27 258.44 176.13Z" stroke-width="0.2"/>
<path d="M258.44 176.13L258.78 176.03 258.44 148.27 258.44 176.13Z" stroke-width="0.2"/>
<path d="M258.78 176.03L258.78 148.31 258.44 148.27 258.78 176.03Z" stroke-width="0.2"/>
<path d="M258.78 176.03L259.12 175.95 258.78 148.31 258.78 176.03Z" stroke-width="0.2"/>
<path d="M259.12 175.95L259.12 148.36 258.78 148.31 259.12 175.95Z" stroke-width="0.2"/>
<path d="M259.12 175.95L259.45 175.92 259.12 148.36 259.12 175.95Z" stroke-width="0.2"/>
<path d="M259.45 175.92L259.45 148.4 259.12 148.36 259.45 175.92Z" stroke-width="0.2"/>
<path d="M259.45 175.92L259.47 175.92 259.45 148.4 259.45 175.92Z" stroke-width="0.2"/>
<path d="M259.47 175.92L259.47 148.41 259.45 148.4 259.47 175.92Z" stroke-width="0.2"/>
<path d="M259.47 175.92L259.82 175.92 259.47 148.41 259.47 175.92Z" stroke-width="0.2"/>
<path d="M259.82 175.92L259.82 148.47 259.47 148.41 259.82 175.92Z" stroke-width="0.2"/>
<path d="M259.82 175.92L260.17 175.95 259.82 148.47 259.82 175.92Z" stroke-width="0.2"/>
<path d="M260.17 175.95L260.17 148.53 259.82 148.47 260.17 175.95Z" stroke-width="0.2"/>
<path d="M260.17 175.95L260.46 176.02 260.17 148.53 260.17 175.95Z" stroke-width="0.2"/>
<path d="M260.46 176.02L260.46 148.58 260.17 148.53 260.46 176.02Z" stroke-width="0.2"/>
<path d="M260.46 176.02L260.51 176.03 260.46 148.58 260.46 176.02Z" stroke-width="0.2"/>
<path d="M260.51 176.03L260.51 148.59 260.46 148.58 260.51 176.03Z" stroke-width="0.2"/>
<path d="M260.51 176.03L261.47 176.28 260.51 148.59 260.51 176.03Z" stroke-width="0.2"/>
<path d="M261.47 176.28L261.47 148.79 260.51 148.59 261.47 176.28Z" stroke-width="0.2"/>
<path d="M261.47 176.28L262.47 176.55 261.47 148.79 261.47 176.28Z" stroke-width="0.2"/>
<path d="M262.47 176.55L262.47 149.04 261.47 148.79 262.47 176.55Z" stroke-width="0.2"/>
<path d="M262.47 176.55L263.45 176.81 262.47 149.04 262.47 176.55Z" stroke-width="0.2"/>
<path d="M263.45 176.81L263.45 149.33 262.47 149.04 263.45 176.81Z" stroke-width="0.2"/>
<path d="M263.45 176.81L264.43 177.08 263.45 149.33 263.45 176.81Z" stroke-width="0.2"/>
<path d="M264.43 177.08L264.43 149.66 263.45 149.33 264.43 177.08Z" stroke-width="0.2"/>
<path d="M264.43 177.08L265.39 177.33 264.43 149.66 264.43 177.08Z" stroke-width="0.2"/>
<path d="M265.39 177.33L265.39 150.02 264.43 149.66 265.39 177.33Z" stroke-width="0.2"/>
<path d="M265.39 177.33L266.34 177.59 265.39 150.02 265.39 177.33Z" stroke-width="0.2"/>
<path d="M266.34 177.59L266.34 150.43 265.39 150.02 266.34 177.59Z" stroke-width="0.2"/>
<path d="M266.34 177.59L267.27 177.84 266.34 150.43 266.34 177.59Z" stroke-width="0.2"/>
<path d="M267.27 177.84L267.27 150.86 266.34 150.43 267.27 177.84Z" stroke-width="0.2"/>
<path d="M256.41 280.79L303.18 455.32 256.41 180.12 256.41 280.79Z" stroke-width="0.2"/>
<path d="M303.18 455.32L303.18 354.65 256.41 180.12 303.18 455.32Z" stroke-width="0.2"/>
<path d="M303.18 455.32L303.48 456.36 303.18 354.65 303.18 455.32Z" stroke-width="0.2"/>
<path d="M303.48 456.36L303.48 355.77 303.18 354.65 303.48 456.36Z" stroke-width="0.2"/>
<path d="M303.48 456.36L303.81 457.39 303.48 355.77 303.48 456.36Z" stroke-width="0.2"/>
<path d="M303.81 457.39L303.81 357.02 303.48 355.77 303.81 457.39Z" stroke-width="0.2"/>
<path d="M303.81 457.39L304.19 458.4 303.81 357.02 303.81 457.39Z" stroke-width="0.2"/>
<path d="M304.19 458.4L304.19 358.42 303.81 357.02 304.19 458.4Z" stroke-width="0.2"/>
<path d="M304.19 458.4L304.6 459.4 304.19 358.42 304.19 458.4Z" stroke-width="0.2"/>
<path d="M304.6 459.4L304.6 359.95 304.19 358.42 304.6 459.4Z" stroke-width="0.2"/>
<path d="M304.6 459.4L305.05 460.38 304.6 359.95 304.6 459.4Z" stroke-width="0.2"/>
<path d="M305.05 460.38L305.05 361.62 304.6 359.95 305.05 460.38Z" stroke-width="0.2"/>
<path d="M305.05 460.38L305.53 461.35 305.05 361.62 305.05 460.38Z" stroke-width="0.2"/>
<path d="M305.53 461.35L305.53 363.43 305.05 361.62 305.53 461.35Z" stroke-width="0.2"/>
<path d="M305.53 461.35L306.05 462.3 305.53 363.43 305.53 461.35Z" stroke-width="0.2"/>
<path d="M306.05 462.3L306.05 365.36 305.53 363.43 306.05 462.3Z" stroke-width="0.2"/>
<path d="M306.05 462.3L306.6 463.23 306.05 365.36 306.05 462.3Z" stroke-width="0.2"/>
<path d="M306.6 463.23L306.6 367.42 306.05 365.36 306.6 463.23Z" stroke-width="0.2"/>
<path d="M306.6 463.23L307.19 464.13 306.6 367.42 306.6 463.23Z" stroke-width="0.2"/>
<path d="M307.19 464.13L307.19 369.61 306.6 367.42 307.19 464.13Z" stroke-width="0.2"/>
<path d="M307.19 464.13L307.81 465.02 307.19 369.61 307.19 464.13Z" stroke-width="0.2"/>
<path d="M307.81 465.02L307.81 371.93 307.19 369.61 307.81 465.02Z" stroke-width="0.2"/>
<path d="M307.81 465.02L308.46 465.88 307.81 371.93 307.81 465.02Z" stroke-width="0.2"/>
<path d="M308.46 465.88L308.46 374.36 307.81 371.93 308.46 465.88Z" stroke-width="0.2"/>
<path d="M308.46 465.88L309.14 466.72 308.46 374.36 308.46 465.88Z" stroke-width="0.2"/>
<path d="M309.14 466.72L309.14 376.91 308.46 374.36 309.14 466.72Z" stroke-width="0.2"/>
<path d="M309.14 466.72L309.86 467.53 309.14 376.91 309.14 466.72Z" stroke-width="0.2"/>
<path d="M309.86 467.53L309.86 379.57 309.14 376.91 309.86 467.53Z" stroke-width="0.2"/>
<path d="M309.86 467.53L310.6 468.31 309.86 379.57 309.86 467.53Z" stroke-width="0.2"/>
<path d="M310.6 468.31L310.6 382.34 309.86 379.57 310.6 468.31Z" stroke-width="0.2"/>
<path d="M310.6 468.31L311.37 469.07 310.6 382.34 310.6 468.31Z" stroke-width="0.2"/>
<path d="M311.37 469.07L311.37 385.22 310.6 382.34 311.37 469.07Z" stroke-width="0.2"/>
<path d="M311.37 469.07L312.17 469.8 311.37 385.22 311.37 469.07Z" stroke-width="0.2"/>
<path d="M312.17 469.8L312.17 388.19 311.37 385.22 312.17 469.8Z" stroke-width="0.2"/>
<path d="M312.17 469.8L312.99 470.49 312.17 388.19 312.17 469.8Z" stroke-width="0.2"/>
<path d="M312.99 470.49L312.99 391.27 312.17 388.19 312.99 470.49Z" stroke-width="0.2"/>
<path d="M312.99 470.49L313.84 471.16 312.99 391.27 312.99 470.49Z" stroke-width="0.2"/>
<path d="M313.84 471.16L313.84 394.44 312.99 391.27 313.84 471.16Z" stroke-width="0.2"/>
<path d="M313.84 471.16L314.71 471.8 313.84 394.44 313.84 471.16Z" stroke-width="0.2"/>
<path d="M314.71 471.8L314.71 397.7 313.84 394.44 314.71 471.8Z" stroke-width="0.2"/>
<path d="M314.71 471.8L315.61 472.4 314.71 397.7 314.71 471.8Z" stroke-width="0.2"/>
<path d="M315.61 472.4L315.61 401.04 314.71 397.7 315.61 472.4Z" stroke-width="0.2"/>
<path d="M315.61 472.4L316.53 472.97 315.61 401.04 315.61 472.4Z" stroke-width="0.2"/>
<path d="M316.53 472.97L316.53 404.47 315.61 401.04 316.53 472.97Z" stroke-width="0.2"/>
<path d="M316.53 472.97L317.47 473.51 316.53 404.47 316.53 472.97Z" stroke-width="0.2"/>
<path d="M317.47 473.51L317.47 407.97 316.53 404.47 317.47 473.51Z" stroke-width="0.2"/>
<path d="M317.47 473.51L318.42 474.01 317.47 407.97 317.47 473.51Z" stroke-width="0.2"/>
<path d="M318.42 474.01L318.42 411.54 317.47 407.97 318.42 474.01Z" stroke-width="0.2"/>
<path d="M318.42 474.01L319.4 474.47 318.42 411.54 318.42 474.01Z" stroke-width="0.2"/>
<path d="M319.4 474.47L319.4 415.18 318.42 411.54 319.4 474.47Z" stroke-width="0.2"/>
<path d="M319.4 474.47L320.39 474.9 319.4 415.18 319.4 474.47Z" stroke-width="0.2"/>
<path d="M320.39 474.9L320.39 418.88 319.4 415.18 320.39 474.9Z" stroke-width="0.2"/>
<path d="M320.39 474.9L321.39 475.29 320.39 418.88 320.39 474.9Z" stroke-width="0.2"/>
<path d="M321.39 475.29L321.39 422.63 320.39 418.88 321.39 475.29Z" stroke-width="0.2"/>
<path d="M321.39 475.29L322.41 475.65 321.39 422.63 321.39 475.29Z" stroke-width="0.2"/>
<path d="M322.41 475.65L322.41 426.44 321.39 422.63 322.41 475.65Z" stroke-width="0.2"/>
<path d="M322.41 475.65L323.45 475.97 322.41 426.44 322.41 475.65Z" stroke-width="0.2"/>
<path d="M323.45 475.97L323.45 430.29 322.41 426.44 323.45 475.97Z" stroke-width="0.2"/>
<path d="M323.45 475.97L324.49 476.25 323.45 430.29 323.45 475.97Z" stroke-width="0.2"/>
<path d="M324.49 476.25L324.49 434.19 323.45 430.29 324.49 476.25Z" stroke-width="0.2"/>
<path d="M324.49 476.25L325.54 476.49 324.49 434.19 324.49 476.25Z" stroke-width="0.2"/>
<path d="M325.54 476.49L325.54 438.12 324.49 434.19 325.54 476.49Z" stroke-width="0.2"/>
<path d="M325.54 476.49L326.6 476.69 325.54 438.12 325.54 476.49Z" stroke-width="0.2"/>
<path d="M326.6 476.69L326.6 442.08 325.54 438.12 326.6 476.69Z" stroke-width="0.2"/>
<path d="M326.6 476.69L327.67 476.85 326.6 442.08 326.6 476.69Z" stroke-width="0.2"/>
<path d="M327.67 476.85L327.67 446.06 326.6 442.08 327.67 476.85Z" stroke-width="0.2"/>
<path d="M327.67 476.85L328.35 476.93 327.67 446.06 327.67 476.85Z" stroke-width="0.2"/>
<path d="M328.35 476.93L328.35 448.58 327.67 446.06 328.35 476.93Z" stroke-width="0.2"/>
<path d="M328.35 476.93L328.46 476.94 328.35 448.58 328.35 476.93Z" stroke-width="0.2"/>
<path d="M328.46 476.94L328.46 448.91 328.35 448.58 328.46 476.94Z" stroke-width="0.2"/>
<path d="M328.46 476.94L328.6 476.96 328.46 448.91 328.46 476.94Z" stroke-width="0.2"/>
<path d="M328.6 476.96L328.6 449.23 328.46 448.91 328.6 476.96Z" stroke-width="0.2"/>
<path d="M328.6 476.96L328.74 476.98 328.6 449.23 328.6 476.96Z" stroke-width="0.2"/>
<path d="M328.74 476.98L328.74 449.49 328.6 449.23 328.74 476.98Z" stroke-width="0.2"/>
<path d="M328.74 476.98L328.77 476.98 328.74 449.49 328.74 476.98Z" stroke-width="0.2"/>
<path d="M328.77 476.98L328.77 449.54 328.74 449.49 328.77 476.98Z" stroke-width="0.2"/>
<path d="M328.77 476.98L328.98 477 328.77 449.54 328.77 476.98Z" stroke-width="0.2"/>
<path d="M328.98 477L328.98 449.82 328.77 449.54 328.98 477Z" stroke-width="0.2"/>
<path d="M328.98 477L329.21 477.01 328.98 449.82 328.98 477Z" stroke-width="0.2"/>
<path d="M329.21 477.01L329.21 450.08 328.98 449.82 329.21 477.01Z" stroke-width="0.2"/>
<path d="M329.21 477.01L329.47 477.03 329.21 450.08 329.21 477.01Z" stroke-width="0.2"/>
<path d="M329.47 477.03L329.47 450.31 329.21 450.08 329.47 477.03Z" stroke-width="0.2"/>
<path d="M329.47 477.03L329.76 477.06 329.47 450.31 329.47 477.03Z" stroke-width="0.2"/>
<path d="M329.76 477.06L329.76 450.52 329.47 450.31 329.76 477.06Z" stroke-width="0.2"/>
<path d="M329.76 477.06L329.82 477.06 329.76 450.52 329.76 477.06Z" stroke-width="0.2"/>
<path d="M329.82 477.06L329.82 450.56 329.76 450.52 329.82 477.06Z" stroke-width="0.2"/>
<path d="M329.82 477.06L330.06 477.07 329.82 450.56 329.82 477.06Z" stroke-width="0.2"/>
<path d="M330.06 477.07L330.06 450.69 329.82 450.56 330.06 477.07Z" stroke-width="0.2"/>
<path d="M330.06 477.07L330.38 477.08 330.06 450.69 330.06 477.07Z" stroke-width="0.2"/>
<path d="M330.38 477.08L330.38 450.84 330.06 450.69 330.38 477.08Z" stroke-width="0.2"/>
<path d="M330.38 477.08L330.71 477.1 330.38 450.84 330.38 477.08Z" stroke-width="0.2"/>
<path d="M330.71 477.1L330.71 450.94 330.38 450.84 330.71 477.1Z" stroke-width="0.2"/>
<path d="M330.71 477.1L330.9 477.11 330.71 450.94 330.71 477.1Z" stroke-width="0.2"/>
<path d="M330.9 477.11L330.9 450.98 330.71 450.94 330.9 477.11Z" stroke-width="0.2"/>
<path d="M330.9 477.11L331.05 477.11 330.9 450.98 330.9 477.11Z" stroke-width="0.2"/>
<path d="M331.05 477.11L331.05 451.02 330.9 450.98 331.05 477.11Z" stroke-width="0.2"/>
<path d="M331.05 477.11L331.4 477.11 331.05 451.02 331.05 477.11Z" stroke-width="0.2"/>
<path d="M331.4 477.11L331.4 451.05 331.05 451.02 331.4 477.11Z" stroke-width="0.2"/>
<path d="M331.4 477.11L331.75 477.11 331.4 451.05 331.4 477.11Z" stroke-width="0.2"/>
<path d="M331.75 477.11L331.75 451.05 331.4 451.05 331.75 477.11Z" stroke-width="0.2"/>
<path d="M331.75 477.11L331.98 477.11 331.75 451.05 331.75 477.11Z" stroke-width="0.2"/>
<path d="M331.98 477.11L331.98 451.03 331.75 451.05 331.98 477.11Z" stroke-width="0.2"/>
<path d="M331.98 477.11L332.1 477.11 331.98 451.03 331.98 477.11Z" stroke-width="0.2"/>
<path d="M332.1 477.11L332.1 451.02 331.98 451.03 332.1 477.11Z" stroke-width="0.2"/>
<path d="M332.1 477.11L332.44 477.1 332.1 451.02 332.1 477.11Z" stroke-width="0.2"/>
<path d="M332.44 477.1L332.44 450.94 332.1 451.02 332.44 477.1Z" stroke-width="0.2"/>
<path d="M332.44 477.1L332.77 477.09 332.44 450.94 332.44 477.1Z" stroke-width="0.2"/>
<path d="M332.77 477.09L332.77 450.84 332.44 450.94 332.77 477.09Z" stroke-width="0.2"/>
<path d="M332.77 477.09L333.06 477.08 332.77 450.84 332.77 477.09Z" stroke-width="0.2"/>
<path d="M333.06 477.08L333.06 450.71 332.77 450.84 333.06 477.08Z" stroke-width="0.2"/>
<path d="M333.06 477.08L333.09 477.07 333.06 450.71 333.06 477.08Z" stroke-width="0.2"/>
<path d="M333.09 477.07L333.09 450.69 333.06 450.71 333.09 477.07Z" stroke-width="0.2"/>
<path d="M333.09 477.07L333.4 477.05 333.09 450.69 333.09 477.07Z" stroke-width="0.2"/>
<path d="M333.4 477.05L333.4 450.52 333.09 450.69 333.4 477.05Z" stroke-width="0.2"/>
<path d="M333.4 477.05L333.68 477.03 333.4 450.52 333.4 477.05Z" stroke-width="0.2"/>
<path d="M333.68 477.03L333.68 450.31 333.4 450.52 333.68 477.03Z" stroke-width="0.2"/>
<path d="M333.68 477.03L333.94 477.02 333.68 450.31 333.68 477.03Z" stroke-width="0.2"/>
<path d="M333.94 477.02L333.94 450.08 333.68 450.31 333.94 477.02Z" stroke-width="0.2"/>
<path d="M333.94 477.02L334.14 477 333.94 450.08 333.94 477.02Z" stroke-width="0.2"/>
<path d="M334.14 477L334.14 449.88 333.94 450.08 334.14 477Z" stroke-width="0.2"/>
<path d="M334.14 477L335.21 476.89 334.14 449.88 334.14 477Z" stroke-width="0.2"/>
<path d="M335.21 476.89L335.21 448.81 334.14 449.88 335.21 476.89Z" stroke-width="0.2"/>
<path d="M335.21 476.89L336.28 476.74 335.21 448.81 335.21 476.89Z" stroke-width="0.2"/>
<path d="M336.28 476.74L336.28 447.74 335.21 448.81 336.28 476.74Z" stroke-width="0.2"/>
<path d="M336.28 476.74L337.34 476.54 336.28 447.74 336.28 476.74Z" stroke-width="0.2"/>
<path d="M337.34 476.54L337.34 446.67 336.28 447.74 337.34 476.54Z" stroke-width="0.2"/>
<path d="M337.34 476.54L338.4 476.31 337.34 446.67 337.34 476.54Z" stroke-width="0.2"/>
<path d="M338.4 476.31L338.4 445.62 337.34 446.67 338.4 476.31Z" stroke-width="0.2"/>
<path d="M338.4 476.31L339.45 476.04 338.4 445.62 338.4 476.31Z" stroke-width="0.2"/>
<path d="M339.45 476.04L339.45 444.57 338.4 445.62 339.45 476.04Z" stroke-width="0.2"/>
<path d="M339.45 476.04L340.48 475.73 339.45 444.57 339.45 476.04Z" stroke-width="0.2"/>
<path d="M340.48 475.73L340.48 443.54 339.45 444.57 340.48 475.73Z" stroke-width="0.2"/>
<path d="M340.48 475.73L341.5 475.39 340.48 443.54 340.48 475.73Z" stroke-width="0.2"/>
<path d="M341.5 475.39L341.5 442.51 340.48 443.54 341.5 475.39Z" stroke-width="0.2"/>
<path d="M341.5 475.39L342.51 475 341.5 442.51 341.5 475.39Z" stroke-width="0.2"/>
<path d="M342.51 475L342.51 441.5 341.5 442.51 342.51 475Z" stroke-width="0.2"/>
<path d="M342.51 475L343.51 474.58 342.51 441.5 342.51 475Z" stroke-width="0.2"/>
<path d="M343.51 474.58L343.51 440.51 342.51 441.5 343.51 474.58Z" stroke-width="0.2"/>
<path d="M343.51 474.58L344.49 474.13 343.51 440.51 343.51 474.58Z" stroke-width="0.2"/>
<path d="M344.49 474.13L344.49 439.53 343.51 440.51 344.49 474.13Z" stroke-width="0.2"/>
<path d="M344.49 474.13L345.45 473.63 344.49 439.53 344.49 474.13Z" stroke-width="0.2"/>
<path d="M345.45 473.63L345.45 438.57 344.49 439.53 345.45 473.63Z" stroke-width="0.2"/>
<path d="M345.45 473.63L346.39 473.11 345.45 438.57 345.45 473.63Z" stroke-width="0.2"/>
<path d="M346.39 473.11L346.39 437.63 345.45 438.57 346.39 473.11Z" stroke-width="0.2"/>
<path d="M346.39 473.11L347.32 472.55 346.39 437.63 346.39 473.11Z" stroke-width="0.2"/>
<path d="M347.32 472.55L347.32 436.7 346.39 437.63 347.32 472.55Z" stroke-width="0.2"/>
<path d="M347.32 472.55L348.22 471.95 347.32 436.7 347.32 472.55Z" stroke-width="0.2"/>
<path d="M348.22 471.95L348.22 435.8 347.32 436.7 348.22 471.95Z" stroke-width="0.2"/>
<path d="M348.22 471.95L349.1 471.32 348.22 435.8 348.22 471.95Z" stroke-width="0.2"/>
<path d="M349.1 471.32L349.1 434.92 348.22 435.8 349.1 471.32Z" stroke-width="0.2"/>
<path d="M349.1 471.32L349.95 470.66 349.1 434.92 349.1 471.32Z" stroke-width="0.2"/>
<path d="M349.95 470.66L349.95 434.07 349.1 434.92 349.95 470.66Z" stroke-width="0.2"/>
<path d="M349.95 470.66L350.78 469.97 349.95 434.07 349.95 470.66Z" stroke-width="0.2"/>
<path d="M350.78 469.97L350.78 433.24 349.95 434.07 350.78 469.97Z" stroke-width="0.2"/>
<path d="M350.78 469.97L351.59 469.25 350.78 433.24 350.78 469.97Z" stroke-width="0.2"/>
<path d="M351.59 469.25L351.59 432.43 350.78 433.24 351.59 469.25Z" stroke-width="0.2"/>
<path d="M351.59 469.25L352.36 468.5 351.59 432.43 351.59 469.25Z" stroke-width="0.2"/>
<path d="M352.36 468.5L352.36 431.65 351.59 432.43 352.36 468.5Z" stroke-width="0.2"/>
<path d="M267.27 177.84L528.96 247.96 267.27 150.86 267.27 177.84Z" stroke-width="0.2"/>
<path d="M528.96 247.96L528.96 220.98 267.27 150.86 528.96 247.96Z" stroke-width="0.2"/>
<path d="M528.96 247.96L529.3 248.07 528.96 220.98 528.96 247.96Z" stroke-width="0.2"/>
<path d="M529.3 248.07L529.3 221.07 528.96 220.98 529.3 248.07Z" stroke-width="0.2"/>
<path d="M529.3 248.07L529.62 248.21 529.3 221.07 529.3 248.07Z" stroke-width="0.2"/>
<path d="M529.62 248.21L529.62 221.16 529.3 221.07 529.62 248.21Z" stroke-width="0.2"/>
<path d="M529.62 248.21L529.92 248.38 529.62 221.16 529.62 248.21Z" stroke-width="0.2"/>
<path d="M529.92 248.38L529.92 221.24 529.62 221.16 529.92 248.38Z" stroke-width="0.2"/>
<path d="M529.92 248.38L530.2 248.59 529.92 221.24 529.92 248.38Z" stroke-width="0.2"/>
<path d="M530.2 248.59L530.2 221.31 529.92 221.24 530.2 248.59Z" stroke-width="0.2"/>
<path d="M530.2 248.59L530.46 248.82 530.2 221.31 530.2 248.59Z" stroke-width="0.2"/>
<path d="M530.46 248.82L530.46 221.38 530.2 221.31 530.46 248.82Z" stroke-width="0.2"/>
<path d="M352.36 468.5L530.47 290.4 352.36 431.65 352.36 468.5Z" stroke-width="0.2"/>
<path d="M530.47 290.4L530.47 253.55 352.36 431.65 530.47 290.4Z" stroke-width="0.2"/>
<path d="M530.46 248.82L530.7 249.08 530.46 221.38 530.46 248.82Z" stroke-width="0.2"/>
<path d="M530.7 249.08L530.7 221.45 530.46 221.38 530.7 249.08Z" stroke-width="0.2"/>
<path d="M530.47 290.4L530.7 290.17 530.47 253.55 530.47 290.4Z" stroke-width="0.2"/>
<path d="M530.7 290.17L530.7 253.29 530.47 253.55 530.7 290.17Z" stroke-width="0.2"/>
<path d="M530.7 249.08L530.9 249.36 530.7 221.45 530.7 249.08Z" stroke-width="0.2"/>
<path d="M530.9 249.36L530.9 221.5 530.7 221.45 530.9 249.36Z" stroke-width="0.2"/>
<path d="M530.7 290.17L530.91 289.96 530.7 253.29 530.7 290.17Z" stroke-width="0.2"/>
<path d="M530.91 289.96L530.91 253.01 530.7 253.29 530.91 289.96Z" stroke-width="0.2"/>
<path d="M530.9 249.36L531.08 249.67 530.9 221.5 530.9 249.36Z" stroke-width="0.2"/>
<path d="M531.08 249.67L531.08 221.55 530.9 221.5 531.08 249.67Z" stroke-width="0.2"/>
<path d="M530.91 289.96L531.08 289.79 530.91 253.01 530.91 289.96Z" stroke-width="0.2"/>
<path d="M531.08 289.79L531.08 252.71 530.91 253.01 531.08 289.79Z" stroke-width="0.2"/>
<path d="M531.08 249.67L531.22 249.99 531.08 221.55 531.08 249.67Z" stroke-width="0.2"/>
<path d="M531.22 249.99L531.22 221.59 531.08 221.55 531.22 249.99Z" stroke-width="0.2"/>
<path d="M531.08 289.79L531.22 289.64 531.08 252.71 531.08 289.79Z" stroke-width="0.2"/>
<path d="M531.22 289.64L531.22 252.39 531.08 252.71 531.22 289.64Z" stroke-width="0.2"/>
<path d="M531.22 249.99L531.33 250.32 531.22 221.59 531.22 249.99Z" stroke-width="0.2"/>
<path d="M531.33 250.32L531.33 221.62 531.22 221.59 531.33 250.32Z" stroke-width="0.2"/>
<path d="M531.22 289.64L531.33 289.54 531.22 252.39 531.22 289.64Z" stroke-width="0.2"/>
<path d="M531.33 289.54L531.33 252.05 531.22 252.39 531.33 289.54Z" stroke-width="0.2"/>
<path d="M531.33 250.32L531.4 250.66 531.33 221.62 531.33 250.32Z" stroke-width="0.2"/>
<path d="M531.4 250.66L531.4 221.64 531.33 221.62 531.4 250.66Z" stroke-width="0.2"/>
<path d="M531.33 289.54L531.41 289.46 531.33 252.05 531.33 289.54Z" stroke-width="0.2"/>
<path d="M531.41 289.46L531.41 251.71 531.33 252.05 531.41 289.46Z" stroke-width="0.2"/>
<path d="M531.4 250.66L531.44 251.01 531.4 221.64 531.4 250.66Z" stroke-width="0.2"/>
<path d="M531.44 251.01L531.44 221.65 531.4 221.64 531.44 251.01Z" stroke-width="0.2"/>
<path d="M531.41 289.46L531.44 289.43 531.41 251.71 531.41 289.46Z" stroke-width="0.2"/>
<path d="M531.44 289.43L531.44 251.36 531.41 251.71 531.44 289.43Z" stroke-width="0.2"/>
<path d="M531.44 251.01L531.44 251.36 531.44 221.65 531.44 251.01Z" stroke-width="0.2"/>
<path d="M531.44 251.36L531.44 221.65 531.44 221.65 531.44 251.36Z" stroke-width="0.2"/>
<path d="M531.44 289.43L535.68 285.18 531.44 221.65 531.44 289.43Z" stroke-width="0.2"/>
<path d="M535.68 285.18L535.68 222.78 531.44 221.65 535.68 285.18Z" stroke-width="0.2"/>
<path d="M535.68 285.18L536.72 284.15 535.68 222.78 535.68 285.18Z" stroke-width="0.2"/>
<path d="M536.72 284.15L536.72 223.08 535.68 222.78 536.72 284.15Z" stroke-width="0.2"/>
<path d="M536.72 284.15L537.75 283.12 536.72 223.08 536.72 284.15Z" stroke-width="0.2"/>
<path d="M537.75 283.12L537.75 223.42 536.72 223.08 537.75 283.12Z" stroke-width="0.2"/>
<path d="M537.75 283.12L538.76 282.11 537.75 223.42 537.75 283.12Z" stroke-width="0.2"/>
<path d="M538.76 282.11L538.76 223.79 537.75 223.42 538.76 282.11Z" stroke-width="0.2"/>
<path d="M538.76 282.11L539.76 281.11 538.76 223.79 538.76 282.11Z" stroke-width="0.2"/>
<path d="M539.76 281.11L539.76 224.2 538.76 223.79 539.76 281.11Z" stroke-width="0.2"/>
<path d="M539.76 281.11L540.75 280.12 539.76 224.2 539.76 281.11Z" stroke-width="0.2"/>
<path d="M540.75 280.12L540.75 224.65 539.76 224.2 540.75 280.12Z" stroke-width="0.2"/>
<path d="M540.75 280.12L541.71 279.16 540.75 224.65 540.75 280.12Z" stroke-width="0.2"/>
<path d="M541.71 279.16L541.71 225.13 540.75 224.65 541.71 279.16Z" stroke-width="0.2"/>
<path d="M541.71 279.16L542.66 278.21 541.71 225.13 541.71 279.16Z" stroke-width="0.2"/>
<path d="M542.66 278.21L542.66 225.65 541.71 225.13 542.66 278.21Z" stroke-width="0.2"/>
<path d="M542.66 278.21L543.59 277.28 542.66 225.65 542.66 278.21Z" stroke-width="0.2"/>
<path d="M543.59 277.28L543.59 226.2 542.66 225.65 543.59 277.28Z" stroke-width="0.2"/>
<path d="M543.59 277.28L544.5 276.37 543.59 226.2 543.59 277.28Z" stroke-width="0.2"/>
<path d="M544.5 276.37L544.5 226.78 543.59 226.2 544.5 276.37Z" stroke-width="0.2"/>
<path d="M544.5 276.37L545.38 275.49 544.5 226.78 544.5 276.37Z" stroke-width="0.2"/>
<path d="M545.38 275.49L545.38 227.4 544.5 226.78 545.38 275.49Z" stroke-width="0.2"/>
<path d="M545.38 275.49L546.24 274.62 545.38 227.4 545.38 275.49Z" stroke-width="0.2"/>
<path d="M546.24 274.62L546.24 228.05 545.38 227.4 546.24 274.62Z" stroke-width="0.2"/>
<path d="M546.24 274.62L547.08 273.79 546.24 228.05 546.24 274.62Z" stroke-width="0.2"/>
<path d="M547.08 273.79L547.08 228.74 546.24 228.05 547.08 273.79Z" stroke-width="0.2"/>
<path d="M547.08 273.79L547.89 272.97 547.08 228.74 547.08 273.79Z" stroke-width="0.2"/>
<path d="M547.89 272.97L547.89 229.45 547.08 228.74 547.89 272.97Z" stroke-width="0.2"/>
<path d="M547.89 272.97L548.68 272.19 547.89 229.45 547.89 272.97Z" stroke-width="0.2"/>
<path d="M548.68 272.19L548.68 230.19 547.89 229.45 548.68 272.19Z" stroke-width="0.2"/>
<path d="M548.68 272.19L548.91 271.96 548.68 230.19 548.68 272.19Z" stroke-width="0.2"/>
<path d="M548.91 271.96L548.91 230.42 548.68 230.19 548.91 271.96Z" stroke-width="0.2"/>
<path d="M548.91 271.96L549.44 271.41 548.91 230.42 548.91 271.96Z" stroke-width="0.2"/>
<path d="M549.44 271.41L549.44 230.96 548.91 230.42 549.44 271.41Z" stroke-width="0.2"/>
<path d="M549.44 271.41L549.66 271.18 549.44 230.96 549.44 271.41Z" stroke-width="0.2"/>
<path d="M549.66 271.18L549.66 231.2 549.44 230.96 549.66 271.18Z" stroke-width="0.2"/>
<path d="M549.66 271.18L550.17 270.61 549.66 231.2 549.66 271.18Z" stroke-width="0.2"/>
<path d="M550.17 270.61L550.17 231.76 549.66 231.2 550.17 270.61Z" stroke-width="0.2"/>
<path d="M550.17 270.61L550.38 270.38 550.17 231.76 550.17 270.61Z" stroke-width="0.2"/>
<path d="M550.38 270.38L550.38 232.01 550.17 231.76 550.38 270.38Z" stroke-width="0.2"/>
<path d="M550.38 270.38L550.86 269.79 550.38 232.01 550.38 270.38Z" stroke-width="0.2"/>
<path d="M550.86 269.79L550.86 232.58 550.38 232.01 550.86 269.79Z" stroke-width="0.2"/>
<path d="M550.86 269.79L551.07 269.54 550.86 232.58 550.86 269.79Z" stroke-width="0.2"/>
<path d="M551.07 269.54L551.07 232.84 550.86 232.58 551.07 269.54Z" stroke-width="0.2"/>
<path d="M551.07 269.54L551.53 268.94 551.07 232.84 551.07 269.54Z" stroke-width="0.2"/>
<path d="M551.53 268.94L551.53 233.43 551.07 232.84 551.53 268.94Z" stroke-width="0.2"/>
<path d="M551.53 268.94L551.73 268.69 551.53 233.43 551.53 268.94Z" stroke-width="0.2"/>
<path d="M551.73 268.69L551.73 233.7 551.53 233.43 551.73 268.69Z" stroke-width="0.2"/>
<path d="M551.73 268.69L552.17 268.07 551.73 233.7 551.73 268.69Z" stroke-width="0.2"/>
<path d="M552.17 268.07L552.17 234.3 551.73 233.7 552.17 268.07Z" stroke-width="0.2"/>
<path d="M552.17 268.07L552.35 267.81 552.17 234.3 552.17 268.07Z" stroke-width="0.2"/>
<path d="M552.35 267.81L552.35 234.58 552.17 234.3 552.35 267.81Z" stroke-width="0.2"/>
<path d="M552.35 267.81L552.77 267.17 552.35 234.58 552.35 267.81Z" stroke-width="0.2"/>
<path d="M552.77 267.17L552.77 235.2 552.35 234.58 552.77 267.17Z" stroke-width="0.2"/>
<path d="M552.77 267.17L552.95 266.91 552.77 235.2 552.77 267.17Z" stroke-width="0.2"/>
<path d="M552.95 266.91L552.95 235.48 552.77 235.2 552.95 266.91Z" stroke-width="0.2"/>
<path d="M552.95 266.91L553.34 266.25 552.95 235.48 552.95 266.91Z" stroke-width="0.2"/>
<path d="M553.34 266.25L553.34 236.12 552.95 235.48 553.34 266.25Z" stroke-width="0.2"/>
<path d="M553.34 266.25L553.51 265.98 553.34 236.12 553.34 266.25Z" stroke-width="0.2"/>
<path d="M553.51 265.98L553.51 236.4 553.34 236.12 553.51 265.98Z" stroke-width="0.2"/>
<path d="M553.51 265.98L553.88 265.32 553.51 236.4 553.51 265.98Z" stroke-width="0.2"/>
<path d="M553.88 265.32L553.88 237.05 553.51 236.4 553.88 265.32Z" stroke-width="0.2"/>
<path d="M553.88 265.32L554.03 265.04 553.88 237.05 553.88 265.32Z" stroke-width="0.2"/>
<path d="M554.03 265.04L554.03 237.35 553.88 237.05 554.03 265.04Z" stroke-width="0.2"/>
<path d="M554.03 265.04L554.38 264.36 554.03 237.35 554.03 265.04Z" stroke-width="0.2"/>
<path d="M554.38 264.36L554.38 238.01 554.03 237.35 554.38 264.36Z" stroke-width="0.2"/>
<path d="M554.38 264.36L554.53 264.08 554.38 238.01 554.38 264.36Z" stroke-width="0.2"/>
<path d="M554.53 264.08L554.53 238.31 554.38 238.01 554.53 264.08Z" stroke-width="0.2"/>
<path d="M554.53 264.08L554.85 263.38 554.53 238.31 554.53 264.08Z" stroke-width="0.2"/>
<path d="M554.85 263.38L554.85 238.98 554.53 238.31 554.85 263.38Z" stroke-width="0.2"/>
<path d="M554.85 263.38L554.98 263.1 554.85 238.98 554.85 263.38Z" stroke-width="0.2"/>
<path d="M554.98 263.1L554.98 239.29 554.85 238.98 554.98 263.1Z" stroke-width="0.2"/>
<path d="M554.98 263.1L555.28 262.39 554.98 239.29 554.98 263.1Z" stroke-width="0.2"/>
<path d="M555.28 262.39L555.28 239.97 554.98 239.29 555.28 262.39Z" stroke-width="0.2"/>
<path d="M555.28 262.39L555.4 262.1 555.28 239.97 555.28 262.39Z" stroke-width="0.2"/>
<path d="M555.4 262.1L555.4 240.29 555.28 239.97 555.4 262.1Z" stroke-width="0.2"/>
<path d="M555.4 262.1L555.67 261.38 555.4 240.29 555.4 262.1Z" stroke-width="0.2"/>
<path d="M555.67 261.38L555.67 240.98 555.4 240.29 555.67 261.38Z" stroke-width="0.2"/>
<path d="M555.67 261.38L555.78 261.09 555.67 240.98 555.67 261.38Z" stroke-width="0.2"/>
<path d="M555.78 261.09L555.78 241.3 555.67 240.98 555.78 261.09Z" stroke-width="0.2"/>
<path d="M555.78 261.09L556.03 260.36 555.78 241.3 555.78 261.09Z" stroke-width="0.2"/>
<path d="M556.03 260.36L556.03 242 555.78 241.3 556.03 260.36Z" stroke-width="0.2"/>
<path d="M556.03 260.36L556.13 260.07 556.03 242 556.03 260.36Z" stroke-width="0.2"/>
<path d="M556.13 260.07L556.13 242.32 556.03 242 556.13 260.07Z" stroke-width="0.2"/>
<path d="M556.13 260.07L556.35 259.33 556.13 242.32 556.13 260.07Z" stroke-width="0.2"/>
<path d="M556.35 259.33L556.35 243.03 556.13 242.32 556.35 259.33Z" stroke-width="0.2"/>
<path d="M556.35 259.33L556.44 259.03 556.35 243.03 556.35 259.33Z" stroke-width="0.2"/>
<path d="M556.44 259.03L556.44 243.36 556.35 243.03 556.44 259.03Z" stroke-width="0.2"/>
<path d="M556.44 259.03L556.63 258.28 556.44 243.36 556.44 259.03Z" stroke-width="0.2"/>
<path d="M556.63 258.28L556.63 244.08 556.44 243.36 556.63 258.28Z" stroke-width="0.2"/>
<path d="M556.63 258.28L556.71 257.99 556.63 244.08 556.63 258.28Z" stroke-width="0.2"/>
<path d="M556.71 257.99L556.71 244.41 556.63 244.08 556.71 257.99Z" stroke-width="0.2"/>
<path d="M556.71 257.99L556.87 257.23 556.71 244.41 556.71 257.99Z" stroke-width="0.2"/>
<path d="M556.87 257.23L556.87 245.13 556.71 244.41 556.87 257.23Z" stroke-width="0.2"/>
<path d="M556.87 257.23L556.94 256.93 556.87 245.13 556.87 257.23Z" stroke-width="0.2"/>
<path d="M556.94 256.93L556.94 245.47 556.87 245.13 556.94 256.93Z" stroke-width="0.2"/>
<path d="M556.94 256.93L557.07 256.16 556.94 245.47 556.94 256.93Z" stroke-width="0.2"/>
<path d="M557.07 256.16L557.07 246.19 556.94 245.47 557.07 256.16Z" stroke-width="0.2"/>
<path d="M557.07 256.16L557.13 255.87 557.07 246.19 557.07 256.16Z" stroke-width="0.2"/>
<path d="M557.13 255.87L557.13 246.54 557.07 246.19 557.13 255.87Z" stroke-width="0.2"/>
<path d="M557.13 255.87L557.24 255.09 557.13 246.54 557.13 255.87Z" stroke-width="0.2"/>
<path d="M557.24 255.09L557.24 247.26 557.13 246.54 557.24 255.09Z" stroke-width="0.2"/>
<path d="M557.24 255.09L557.28 254.8 557.24 247.26 557.24 255.09Z" stroke-width="0.2"/>
<path d="M557.28 254.8L557.28 247.61 557.24 247.26 557.28 254.8Z" stroke-width="0.2"/>
<path d="M557.28 254.8L557.36 254.01 557.28 247.61 557.28 254.8Z" stroke-width="0.2"/>
<path d="M557.36 254.01L557.36 248.33 557.28 247.61 557.36 254.01Z" stroke-width="0.2"/>
<path d="M557.36 254.01L557.39 253.72 557.36 248.33 557.36 254.01Z" stroke-width="0.2"/>
<path d="M557.39 253.72L557.39 248.71 557.36 248.33 557.39 253.72Z" stroke-width="0.2"/>
<path d="M557.39 253.72L557.45 252.91 557.39 248.71 557.39 253.72Z" stroke-width="0.2"/>
<path d="M557.45 252.91L557.45 249.41 557.39 248.71 557.45 252.91Z" stroke-width="0.2"/>
<path d="M557.45 252.91L557.47 252.65 557.45 249.41 557.45 252.91Z" stroke-width="0.2"/>
<path d="M557.47 252.65L557.47 249.83 557.45 249.41 557.47 252.65Z" stroke-width="0.2"/>
<path d="M557.47 252.65L557.49 251.76 557.47 249.83 557.47 252.65Z" stroke-width="0.2"/>
<path d="M557.49 251.76L557.49 250.49 557.47 249.83 557.49 251.76Z" stroke-width="0.2"/>
<path d="M557.49 251.76L557.5 251.57 557.49 250.49 557.49 251.76Z" stroke-width="0.2"/>
<path d="M256.3 280.38L256.3 179.43 255.35 148.09 256.3 280.38Z" stroke-width="0.2"/>
<path d="M256.3 179.43L256.3 179.08 255.35 148.09 256.3 179.43Z" stroke-width="0.2"/>
<path d="M328.35 448.58L256.41 180.12" fill="none" stroke-width="0.5"/>
<path d="M260.51 176.03L528.97 247.96" fill="none" stroke-width="0.5"/>
<path d="M333.94 450.08L530.47 253.55" fill="none" stroke-width="0.5"/>
<path d="M 260.51 176.03 A 3.343 3.343 0 0 0 256.41 180.12" fill="none" stroke-width="0.5"/>
<path d="M303.18 455.32L231.25 186.86" fill="none" stroke-width="0.5"/>
<path d="M267.27 150.86L535.74 222.8" fill="none" stroke-width="0.5"/>
<path d="M 328.35 448.58 A 3.343 3.343 0 0 0 333.94 450.08" fill="none" stroke-width="0.5"/>
<path d="M352.36 468.5L548.89 271.98" fill="none" stroke-width="0.5"/>
<path d="M 530.47 253.55 A 3.343 3.343 0 0 0 528.96 247.96" fill="none" stroke-width="0.5"/>
<path d="M 303.18 455.32 A 29.399 29.399 0 0 0 352.36 468.5" fill="none" stroke-width="0.5"/>
<path d="M 548.87 271.99 A 29.399 29.399 0 0 0 535.68 222.78" fill="none" stroke-width="0.5"/>
<path d="M 267.27 150.86 A 26.9 26.9 0 0 0 231.25 186.86" fill="none" stroke-width="0.5"/>
</svg>