<svg xmlns="http://www.w3.org/2000/svg" version="1.1" viewBox="311.57 234.32 173.58 173.62">
  <desc>Produce by Acme CAD Converter</desc>
<path d="M312.83 247.54L312.83 246.35 312.82 247.02 312.83 247.54Z" fill="black" stroke="black" stroke-width="0.2"/>
<path d="M312.83 247.54L312.84 247.68 312.83 246.35 312.83 247.54Z" fill="black" stroke="black" stroke-width="0.2"/>
<path d="M312.84 247.68L312.84 246.3 312.83 246.35 312.84 247.68Z" fill="black" stroke="black" stroke-width="0.2"/>
<path d="M312.84 247.68L312.89 248.24 312.84 246.3 312.84 247.68Z" fill="black" stroke="black" stroke-width="0.2"/>
<path d="M312.89 248.24L312.89 245.69 312.84 246.3 312.89 248.24Z" fill="black" stroke="black" stroke-width="0.2"/>
<path d="M312.89 248.24L312.9 248.35 312.89 245.69 312.89 248.24Z" fill="black" stroke="black" stroke-width="0.2"/>
<path d="M312.9 248.35L312.9 245.62 312.89 245.69 312.9 248.35Z" fill="black" stroke="black" stroke-width="0.2"/>
<path d="M312.9 248.35L312.98 248.91 312.9 245.62 312.9 248.35Z" fill="black" stroke="black" stroke-width="0.2"/>
<path d="M312.98 248.91L312.98 245.03 312.9 245.62 312.98 248.91Z" fill="black" stroke="black" stroke-width="0.2"/>
<path d="M312.98 248.91L313 249 312.98 245.03 312.98 248.91Z" fill="black" stroke="black" stroke-width="0.2"/>
<path d="M313 249L313 244.96 312.98 245.03 313 249Z" fill="black" stroke="black" stroke-width="0.2"/>
<path d="M313 249L313.12 249.56 313 244.96 313 249Z" fill="black" stroke="black" stroke-width="0.2"/>
<path d="M313.12 249.56L313.12 244.38 313 244.96 313.12 249.56Z" fill="black" stroke="black" stroke-width="0.2"/>
<path d="M313.12 249.56L313.14 249.65 313.12 244.38 313.12 249.56Z" fill="black" stroke="black" stroke-width="0.2"/>
<path d="M313.14 249.65L313.14 244.31 313.12 244.38 313.14 249.65Z" fill="black" stroke="black" stroke-width="0.2"/>
<path d="M313.14 249.65L313.29 250.21 313.14 244.31 313.14 249.65Z" fill="black" stroke="black" stroke-width="0.2"/>
<path d="M313.29 250.21L313.29 243.74 313.14 244.31 313.29 250.21Z" fill="black" stroke="black" stroke-width="0.2"/>
<path d="M313.29 250.21L313.31 250.3 313.29 243.74 313.29 250.21Z" fill="black" stroke="black" stroke-width="0.2"/>
<path d="M313.31 250.3L313.31 243.67 313.29 243.74 313.31 250.3Z" fill="black" stroke="black" stroke-width="0.2"/>
<path d="M313.31 250.3L313.49 250.84 313.31 243.67 313.31 250.3Z" fill="black" stroke="black" stroke-width="0.2"/>
<path d="M313.49 250.84L313.49 243.11 313.31 243.67 313.49 250.84Z" fill="black" stroke="black" stroke-width="0.2"/>
<path d="M313.49 250.84L313.52 250.93 313.49 243.11 313.49 250.84Z" fill="black" stroke="black" stroke-width="0.2"/>
<path d="M313.52 250.93L313.52 243.03 313.49 243.11 313.52 250.93Z" fill="black" stroke="black" stroke-width="0.2"/>
<path d="M313.52 250.93L313.74 251.46 313.52 243.03 313.52 250.93Z" fill="black" stroke="black" stroke-width="0.2"/>
<path d="M313.74 251.46L313.74 242.49 313.52 243.03 313.74 251.46Z" fill="black" stroke="black" stroke-width="0.2"/>
<path d="M313.74 251.46L313.77 251.54 313.74 242.49 313.74 251.46Z" fill="black" stroke="black" stroke-width="0.2"/>
<path d="M313.77 251.54L313.77 242.42 313.74 242.49 313.77 251.54Z" fill="black" stroke="black" stroke-width="0.2"/>
<path d="M313.77 251.54L314.02 252.07 313.77 242.42 313.77 251.54Z" fill="black" stroke="black" stroke-width="0.2"/>
<path d="M314.02 252.07L314.02 241.88 313.77 242.42 314.02 252.07Z" fill="black" stroke="black" stroke-width="0.2"/>
<path d="M314.02 252.07L314.06 252.14 314.02 241.88 314.02 252.07Z" fill="black" stroke="black" stroke-width="0.2"/>
<path d="M314.06 252.14L314.06 241.81 314.02 241.88 314.06 252.14Z" fill="black" stroke="black" stroke-width="0.2"/>
<path d="M314.06 252.14L314.33 252.65 314.06 241.81 314.06 252.14Z" fill="black" stroke="black" stroke-width="0.2"/>
<path d="M314.33 252.65L314.33 241.3 314.06 241.81 314.33 252.65Z" fill="black" stroke="black" stroke-width="0.2"/>
<path d="M314.33 252.65L314.38 252.73 314.33 241.3 314.33 252.65Z" fill="black" stroke="black" stroke-width="0.2"/>
<path d="M314.38 252.73L314.38 241.23 314.33 241.3 314.38 252.73Z" fill="black" stroke="black" stroke-width="0.2"/>
<path d="M314.38 252.73L314.68 253.88 314.38 241.23 314.38 252.73Z" fill="black" stroke="black" stroke-width="0.2"/>
<path d="M314.68 253.88L314.68 240.73 314.38 241.23 314.68 253.88Z" fill="black" stroke="black" stroke-width="0.2"/>
<path d="M314.68 253.88L315.06 255.3 314.68 240.73 314.68 253.88Z" fill="black" stroke="black" stroke-width="0.2"/>
<path d="M315.06 255.3L315.06 240.19 314.68 240.73 315.06 255.3Z" fill="black" stroke="black" stroke-width="0.2"/>
<path d="M315.06 255.3L315.48 256.84 315.06 240.19 315.06 255.3Z" fill="black" stroke="black" stroke-width="0.2"/>
<path d="M315.48 256.84L315.48 239.66 315.06 240.19 315.48 256.84Z" fill="black" stroke="black" stroke-width="0.2"/>
<path d="M315.48 256.84L315.92 258.49 315.48 239.66 315.48 256.84Z" fill="black" stroke="black" stroke-width="0.2"/>
<path d="M315.92 258.49L315.92 239.17 315.48 239.66 315.92 258.49Z" fill="black" stroke="black" stroke-width="0.2"/>
<path d="M315.92 258.49L316.39 260.25 315.92 239.17 315.92 258.49Z" fill="black" stroke="black" stroke-width="0.2"/>
<path d="M316.39 260.25L316.39 238.7 315.92 239.17 316.39 260.25Z" fill="black" stroke="black" stroke-width="0.2"/>
<path d="M316.39 260.25L316.89 262.1 316.39 238.7 316.39 260.25Z" fill="black" stroke="black" stroke-width="0.2"/>
<path d="M316.89 262.1L316.89 238.26 316.39 238.7 316.89 262.1Z" fill="black" stroke="black" stroke-width="0.2"/>
<path d="M316.89 262.1L317.41 264.05 316.89 238.26 316.89 262.1Z" fill="black" stroke="black" stroke-width="0.2"/>
<path d="M317.41 264.05L317.41 237.84 316.89 238.26 317.41 264.05Z" fill="black" stroke="black" stroke-width="0.2"/>
<path d="M317.41 264.05L317.95 266.08 317.41 237.84 317.41 264.05Z" fill="black" stroke="black" stroke-width="0.2"/>
<path d="M317.95 266.08L317.95 237.46 317.41 237.84 317.95 266.08Z" fill="black" stroke="black" stroke-width="0.2"/>
<path d="M317.95 266.08L318.52 268.2 317.95 237.46 317.95 266.08Z" fill="black" stroke="black" stroke-width="0.2"/>
<path d="M318.52 268.2L318.52 237.11 317.95 237.46 318.52 268.2Z" fill="black" stroke="black" stroke-width="0.2"/>
<path d="M318.52 268.2L319.11 270.39 318.52 237.11 318.52 268.2Z" fill="black" stroke="black" stroke-width="0.2"/>
<path d="M319.11 270.39L319.11 236.8 318.52 237.11 319.11 270.39Z" fill="black" stroke="black" stroke-width="0.2"/>
<path d="M319.11 270.39L319.71 272.64 319.11 236.8 319.11 270.39Z" fill="black" stroke="black" stroke-width="0.2"/>
<path d="M319.71 272.64L319.71 236.52 319.11 236.8 319.71 272.64Z" fill="black" stroke="black" stroke-width="0.2"/>
<path d="M319.71 272.64L320.33 274.95 319.71 236.52 319.71 272.64Z" fill="black" stroke="black" stroke-width="0.2"/>
<path d="M320.33 274.95L320.33 236.28 319.71 236.52 320.33 274.95Z" fill="black" stroke="black" stroke-width="0.2"/>
<path d="M320.33 274.95L320.96 277.31 320.33 236.28 320.33 274.95Z" fill="black" stroke="black" stroke-width="0.2"/>
<path d="M320.96 277.31L320.96 236.07 320.33 236.28 320.96 277.31Z" fill="black" stroke="black" stroke-width="0.2"/>
<path d="M320.96 277.31L321.6 279.71 320.96 236.07 320.96 277.31Z" fill="black" stroke="black" stroke-width="0.2"/>
<path d="M321.6 279.71L321.6 235.9 320.96 236.07 321.6 279.71Z" fill="black" stroke="black" stroke-width="0.2"/>
<path d="M321.6 279.71L322.26 282.14 321.6 235.9 321.6 279.71Z" fill="black" stroke="black" stroke-width="0.2"/>
<path d="M322.26 282.14L322.26 235.77 321.6 235.9 322.26 282.14Z" fill="black" stroke="black" stroke-width="0.2"/>
<path d="M322.26 282.14L322.92 284.6 322.26 235.77 322.26 282.14Z" fill="black" stroke="black" stroke-width="0.2"/>
<path d="M322.92 284.6L322.92 235.67 322.26 235.77 322.92 284.6Z" fill="black" stroke="black" stroke-width="0.2"/>
<path d="M322.92 284.6L323.58 287.07 322.92 235.67 322.92 284.6Z" fill="black" stroke="black" stroke-width="0.2"/>
<path d="M323.58 287.07L323.58 235.62 322.92 235.67 323.58 287.07Z" fill="black" stroke="black" stroke-width="0.2"/>
<path d="M323.58 287.07L324.24 289.55 323.58 235.62 323.58 287.07Z" fill="black" stroke="black" stroke-width="0.2"/>
<path d="M324.24 289.55L324.24 235.6 323.58 235.62 324.24 289.55Z" fill="black" stroke="black" stroke-width="0.2"/>
<path d="M324.24 289.55L324.85 291.83 324.24 235.6 324.24 289.55Z" fill="black" stroke="black" stroke-width="0.2"/>
<path d="M324.85 291.83L324.85 235.62 324.24 235.6 324.85 291.83Z" fill="black" stroke="black" stroke-width="0.2"/>
<path d="M324.85 291.83L324.87 291.88 324.85 249.41 324.85 291.83Z" fill="black" stroke="black" stroke-width="0.2"/>
<path d="M324.87 291.88L324.87 249.66 324.85 249.41 324.87 291.88Z" fill="black" stroke="black" stroke-width="0.2"/>
<path d="M324.85 249.41L324.88 249.16 324.85 235.62 324.85 249.41Z" fill="black" stroke="black" stroke-width="0.2"/>
<path d="M324.88 249.16L324.88 235.62 324.85 235.62 324.88 249.16Z" fill="black" stroke="black" stroke-width="0.2"/>
<path d="M324.88 249.16L324.91 249.01 324.88 235.62 324.88 249.16Z" fill="black" stroke="black" stroke-width="0.2"/>
<path d="M324.91 249.01L324.91 235.62 324.88 235.62 324.91 249.01Z" fill="black" stroke="black" stroke-width="0.2"/>
<path d="M324.87 291.88L324.91 292.06 324.87 249.66 324.87 291.88Z" fill="black" stroke="black" stroke-width="0.2"/>
<path d="M324.91 292.06L324.91 249.9 324.87 249.66 324.91 292.06Z" fill="black" stroke="black" stroke-width="0.2"/>
<path d="M324.91 249.01L324.93 248.91 324.91 235.62 324.91 249.01Z" fill="black" stroke="black" stroke-width="0.2"/>
<path d="M324.93 248.91L324.93 235.62 324.91 235.62 324.93 248.91Z" fill="black" stroke="black" stroke-width="0.2"/>
<path d="M324.93 248.91L325.02 248.68 324.93 235.62 324.93 248.91Z" fill="black" stroke="black" stroke-width="0.2"/>
<path d="M325.02 248.68L325.02 235.63 324.93 235.62 325.02 248.68Z" fill="black" stroke="black" stroke-width="0.2"/>
<path d="M325.02 248.68L325.14 248.46 325.02 235.63 325.02 248.68Z" fill="black" stroke="black" stroke-width="0.2"/>
<path d="M325.14 248.46L325.14 235.64 325.02 235.63 325.14 248.46Z" fill="black" stroke="black" stroke-width="0.2"/>
<path d="M325.14 248.46L325.29 248.26 325.14 235.64 325.14 248.46Z" fill="black" stroke="black" stroke-width="0.2"/>
<path d="M325.29 248.26L325.29 235.66 325.14 235.64 325.29 248.26Z" fill="black" stroke="black" stroke-width="0.2"/>
<path d="M325.29 248.26L325.47 248.08 325.29 235.66 325.29 248.26Z" fill="black" stroke="black" stroke-width="0.2"/>
<path d="M325.47 248.08L325.47 235.67 325.29 235.66 325.47 248.08Z" fill="black" stroke="black" stroke-width="0.2"/>
<path d="M325.47 248.08L325.57 248.01 325.47 235.67 325.47 248.08Z" fill="black" stroke="black" stroke-width="0.2"/>
<path d="M325.57 248.01L325.57 235.68 325.47 235.67 325.57 248.01Z" fill="black" stroke="black" stroke-width="0.2"/>
<path d="M325.57 248.01L325.67 247.93 325.57 235.68 325.57 248.01Z" fill="black" stroke="black" stroke-width="0.2"/>
<path d="M325.67 247.93L325.67 235.7 325.57 235.68 325.67 247.93Z" fill="black" stroke="black" stroke-width="0.2"/>
<path d="M325.67 247.93L325.89 247.81 325.67 235.7 325.67 247.93Z" fill="black" stroke="black" stroke-width="0.2"/>
<path d="M325.89 247.81L325.89 235.73 325.67 235.7 325.89 247.81Z" fill="black" stroke="black" stroke-width="0.2"/>
<path d="M325.89 247.81L326.13 247.72 325.89 235.73 325.89 247.81Z" fill="black" stroke="black" stroke-width="0.2"/>
<path d="M326.13 247.72L326.13 235.77 325.89 235.73 326.13 247.72Z" fill="black" stroke="black" stroke-width="0.2"/>
<path d="M326.13 247.72L326.23 247.69 326.13 235.77 326.13 247.72Z" fill="black" stroke="black" stroke-width="0.2"/>
<path d="M326.23 247.69L326.23 235.78 326.13 235.77 326.23 247.69Z" fill="black" stroke="black" stroke-width="0.2"/>
<path d="M326.23 247.69L326.37 247.66 326.23 235.78 326.23 247.69Z" fill="black" stroke="black" stroke-width="0.2"/>
<path d="M326.37 247.66L326.37 235.81 326.23 235.78 326.37 247.66Z" fill="black" stroke="black" stroke-width="0.2"/>
<path d="M326.37 247.66L326.62 247.64 326.37 235.81 326.37 247.66Z" fill="black" stroke="black" stroke-width="0.2"/>
<path d="M326.62 247.64L326.62 235.87 326.37 235.81 326.62 247.64Z" fill="black" stroke="black" stroke-width="0.2"/>
<path d="M326.62 247.64L326.87 247.65 326.62 235.87 326.62 247.64Z" fill="black" stroke="black" stroke-width="0.2"/>
<path d="M326.87 247.65L326.87 235.92 326.62 235.87 326.87 247.65Z" fill="black" stroke="black" stroke-width="0.2"/>
<path d="M326.87 247.65L326.88 247.65 326.87 235.92 326.87 247.65Z" fill="black" stroke="black" stroke-width="0.2"/>
<path d="M326.88 247.65L326.88 235.92 326.87 235.92 326.88 247.65Z" fill="black" stroke="black" stroke-width="0.2"/>
<path d="M326.88 247.65L327.12 247.7 326.88 235.92 326.88 247.65Z" fill="black" stroke="black" stroke-width="0.2"/>
<path d="M327.12 247.7L327.12 235.99 326.88 235.92 327.12 247.7Z" fill="black" stroke="black" stroke-width="0.2"/>
<path d="M327.12 247.7L327.52 247.81 327.12 235.99 327.12 247.7Z" fill="black" stroke="black" stroke-width="0.2"/>
<path d="M327.52 247.81L327.52 236.1 327.12 235.99 327.52 247.81Z" fill="black" stroke="black" stroke-width="0.2"/>
<path d="M327.52 247.81L328.15 247.98 327.52 236.1 327.52 247.81Z" fill="black" stroke="black" stroke-width="0.2"/>
<path d="M328.15 247.98L328.15 236.31 327.52 236.1 328.15 247.98Z" fill="black" stroke="black" stroke-width="0.2"/>
<path d="M328.15 247.98L328.77 248.14 328.15 236.31 328.15 247.98Z" fill="black" stroke="black" stroke-width="0.2"/>
<path d="M328.77 248.14L328.77 236.56 328.15 236.31 328.77 248.14Z" fill="black" stroke="black" stroke-width="0.2"/>
<path d="M328.77 248.14L329.37 248.3 328.77 236.56 328.77 248.14Z" fill="black" stroke="black" stroke-width="0.2"/>
<path d="M329.37 248.3L329.37 236.84 328.77 236.56 329.37 248.3Z" fill="black" stroke="black" stroke-width="0.2"/>
<path d="M329.37 248.3L329.95 248.46 329.37 236.84 329.37 248.3Z" fill="black" stroke="black" stroke-width="0.2"/>
<path d="M329.95 248.46L329.95 237.16 329.37 236.84 329.95 248.46Z" fill="black" stroke="black" stroke-width="0.2"/>
<path d="M324.91 292.06L353.1 397.26 324.91 249.9 324.91 292.06Z" fill="black" stroke="black" stroke-width="0.2"/>
<path d="M353.1 397.26L353.1 355.1 324.91 249.9 353.1 397.26Z" fill="black" stroke="black" stroke-width="0.2"/>
<path d="M353.1 397.26L353.3 397.93 353.1 355.1 353.1 397.26Z" fill="black" stroke="black" stroke-width="0.2"/>
<path d="M353.3 397.93L353.3 355.85 353.1 355.1 353.3 397.93Z" fill="black" stroke="black" stroke-width="0.2"/>
<path d="M353.3 397.93L353.54 398.59 353.3 355.85 353.3 397.93Z" fill="black" stroke="black" stroke-width="0.2"/>
<path d="M353.54 398.59L353.54 356.73 353.3 355.85 353.54 398.59Z" fill="black" stroke="black" stroke-width="0.2"/>
<path d="M353.54 398.59L353.81 399.23 353.54 356.73 353.54 398.59Z" fill="black" stroke="black" stroke-width="0.2"/>
<path d="M353.81 399.23L353.81 357.75 353.54 356.73 353.81 399.23Z" fill="black" stroke="black" stroke-width="0.2"/>
<path d="M353.81 399.23L354.12 399.86 353.81 357.75 353.81 399.23Z" fill="black" stroke="black" stroke-width="0.2"/>
<path d="M354.12 399.86L354.12 358.9 353.81 357.75 354.12 399.86Z" fill="black" stroke="black" stroke-width="0.2"/>
<path d="M354.12 399.86L354.46 400.47 354.12 358.9 354.12 399.86Z" fill="black" stroke="black" stroke-width="0.2"/>
<path d="M354.46 400.47L354.46 360.17 354.12 358.9 354.46 400.47Z" fill="black" stroke="black" stroke-width="0.2"/>
<path d="M354.46 400.47L354.84 401.06 354.46 360.17 354.46 400.47Z" fill="black" stroke="black" stroke-width="0.2"/>
<path d="M354.84 401.06L354.84 361.57 354.46 360.17 354.84 401.06Z" fill="black" stroke="black" stroke-width="0.2"/>
<path d="M354.84 401.06L355.24 401.63 354.84 361.57 354.84 401.06Z" fill="black" stroke="black" stroke-width="0.2"/>
<path d="M355.24 401.63L355.24 363.09 354.84 361.57 355.24 401.63Z" fill="black" stroke="black" stroke-width="0.2"/>
<path d="M355.24 401.63L355.68 402.18 355.24 363.09 355.24 401.63Z" fill="black" stroke="black" stroke-width="0.2"/>
<path d="M355.68 402.18L355.68 364.72 355.24 363.09 355.68 402.18Z" fill="black" stroke="black" stroke-width="0.2"/>
<path d="M355.68 402.18L356.15 402.7 355.68 364.72 355.68 402.18Z" fill="black" stroke="black" stroke-width="0.2"/>
<path d="M356.15 402.7L356.15 366.47 355.68 364.72 356.15 402.7Z" fill="black" stroke="black" stroke-width="0.2"/>
<path d="M356.15 402.7L356.64 403.2 356.15 366.47 356.15 402.7Z" fill="black" stroke="black" stroke-width="0.2"/>
<path d="M356.64 403.2L356.64 368.32 356.15 366.47 356.64 403.2Z" fill="black" stroke="black" stroke-width="0.2"/>
<path d="M356.64 403.2L357.16 403.67 356.64 368.32 356.64 403.2Z" fill="black" stroke="black" stroke-width="0.2"/>
<path d="M357.16 403.67L357.16 370.26 356.64 368.32 357.16 403.67Z" fill="black" stroke="black" stroke-width="0.2"/>
<path d="M357.16 403.67L357.71 404.1 357.16 370.26 357.16 403.67Z" fill="black" stroke="black" stroke-width="0.2"/>
<path d="M357.71 404.1L357.71 372.3 357.16 370.26 357.71 404.1Z" fill="black" stroke="black" stroke-width="0.2"/>
<path d="M357.71 404.1L358.28 404.51 357.71 372.3 357.71 404.1Z" fill="black" stroke="black" stroke-width="0.2"/>
<path d="M358.28 404.51L358.28 374.43 357.71 372.3 358.28 404.51Z" fill="black" stroke="black" stroke-width="0.2"/>
<path d="M358.28 404.51L358.87 404.89 358.28 374.43 358.28 404.51Z" fill="black" stroke="black" stroke-width="0.2"/>
<path d="M358.87 404.89L358.87 376.64 358.28 374.43 358.87 404.89Z" fill="black" stroke="black" stroke-width="0.2"/>
<path d="M358.87 404.89L359.48 405.23 358.87 376.64 358.87 404.89Z" fill="black" stroke="black" stroke-width="0.2"/>
<path d="M359.48 405.23L359.48 378.92 358.87 376.64 359.48 405.23Z" fill="black" stroke="black" stroke-width="0.2"/>
<path d="M359.48 405.23L360.11 405.53 359.48 378.92 359.48 405.23Z" fill="black" stroke="black" stroke-width="0.2"/>
<path d="M360.11 405.53L360.11 381.27 359.48 378.92 360.11 405.53Z" fill="black" stroke="black" stroke-width="0.2"/>
<path d="M360.11 405.53L360.76 405.81 360.11 381.27 360.11 405.53Z" fill="black" stroke="black" stroke-width="0.2"/>
<path d="M360.76 405.81L360.76 383.68 360.11 381.27 360.76 405.81Z" fill="black" stroke="black" stroke-width="0.2"/>
<path d="M360.76 405.81L361.42 406.04 360.76 383.68 360.76 405.81Z" fill="black" stroke="black" stroke-width="0.2"/>
<path d="M361.42 406.04L361.42 386.14 360.76 383.68 361.42 406.04Z" fill="black" stroke="black" stroke-width="0.2"/>
<path d="M361.42 406.04L362.09 406.24 361.42 386.14 361.42 406.04Z" fill="black" stroke="black" stroke-width="0.2"/>
<path d="M362.09 406.24L362.09 388.64 361.42 386.14 362.09 406.24Z" fill="black" stroke="black" stroke-width="0.2"/>
<path d="M362.09 406.24L362.77 406.41 362.09 388.64 362.09 406.24Z" fill="black" stroke="black" stroke-width="0.2"/>
<path d="M362.77 406.41L362.77 391.19 362.09 388.64 362.77 406.41Z" fill="black" stroke="black" stroke-width="0.2"/>
<path d="M362.77 406.41L363.46 406.53 362.77 391.19 362.77 406.41Z" fill="black" stroke="black" stroke-width="0.2"/>
<path d="M363.46 406.53L363.46 393.76 362.77 391.19 363.46 406.53Z" fill="black" stroke="black" stroke-width="0.2"/>
<path d="M363.46 406.53L363.64 406.55 363.46 393.76 363.46 406.53Z" fill="black" stroke="black" stroke-width="0.2"/>
<path d="M363.64 406.55L363.64 394.43 363.46 393.76 363.64 406.55Z" fill="black" stroke="black" stroke-width="0.2"/>
<path d="M363.64 406.55L363.72 406.56 363.64 394.43 363.64 406.55Z" fill="black" stroke="black" stroke-width="0.2"/>
<path d="M363.72 406.56L363.72 394.67 363.64 394.43 363.72 406.56Z" fill="black" stroke="black" stroke-width="0.2"/>
<path d="M363.72 406.56L363.84 406.58 363.72 394.67 363.72 406.56Z" fill="black" stroke="black" stroke-width="0.2"/>
<path d="M363.84 406.58L363.84 394.89 363.72 394.67 363.84 406.58Z" fill="black" stroke="black" stroke-width="0.2"/>
<path d="M363.84 406.58L363.98 406.6 363.84 394.89 363.84 406.58Z" fill="black" stroke="black" stroke-width="0.2"/>
<path d="M363.98 406.6L363.98 395.1 363.84 394.89 363.98 406.6Z" fill="black" stroke="black" stroke-width="0.2"/>
<path d="M363.98 406.6L364.15 406.62 363.98 395.1 363.98 406.6Z" fill="black" stroke="black" stroke-width="0.2"/>
<path d="M364.15 406.62L364.15 395.28 363.98 395.1 364.15 406.62Z" fill="black" stroke="black" stroke-width="0.2"/>
<path d="M364.15 406.62L364.15 406.62 364.15 395.28 364.15 406.62Z" fill="black" stroke="black" stroke-width="0.2"/>
<path d="M364.15 406.62L364.15 395.29 364.15 395.28 364.15 406.62Z" fill="black" stroke="black" stroke-width="0.2"/>
<path d="M364.15 406.62L364.35 406.63 364.15 395.29 364.15 406.62Z" fill="black" stroke="black" stroke-width="0.2"/>
<path d="M364.35 406.63L364.35 395.44 364.15 395.29 364.35 406.63Z" fill="black" stroke="black" stroke-width="0.2"/>
<path d="M364.35 406.63L364.56 406.65 364.35 395.44 364.35 406.63Z" fill="black" stroke="black" stroke-width="0.2"/>
<path d="M364.56 406.65L364.56 395.57 364.35 395.44 364.56 406.65Z" fill="black" stroke="black" stroke-width="0.2"/>
<path d="M364.56 406.65L364.79 406.66 364.56 395.57 364.56 406.65Z" fill="black" stroke="black" stroke-width="0.2"/>
<path d="M364.79 406.66L364.79 395.67 364.56 395.57 364.79 406.66Z" fill="black" stroke="black" stroke-width="0.2"/>
<path d="M364.79 406.66L364.85 406.67 364.79 395.67 364.79 406.66Z" fill="black" stroke="black" stroke-width="0.2"/>
<path d="M364.85 406.67L364.85 395.68 364.79 395.67 364.85 406.67Z" fill="black" stroke="black" stroke-width="0.2"/>
<path d="M364.85 406.67L365.04 406.67 364.85 395.68 364.85 406.67Z" fill="black" stroke="black" stroke-width="0.2"/>
<path d="M365.04 406.67L365.04 395.73 364.85 395.68 365.04 406.67Z" fill="black" stroke="black" stroke-width="0.2"/>
<path d="M365.04 406.67L365.28 406.67 365.04 395.73 365.04 406.67Z" fill="black" stroke="black" stroke-width="0.2"/>
<path d="M365.28 406.67L365.28 395.76 365.04 395.73 365.28 406.67Z" fill="black" stroke="black" stroke-width="0.2"/>
<path d="M365.28 406.67L365.54 406.68 365.28 395.76 365.28 406.67Z" fill="black" stroke="black" stroke-width="0.2"/>
<path d="M365.54 406.68L365.54 395.76 365.28 395.76 365.54 406.68Z" fill="black" stroke="black" stroke-width="0.2"/>
<path d="M365.54 406.68L365.55 406.68 365.54 395.76 365.54 406.68Z" fill="black" stroke="black" stroke-width="0.2"/>
<path d="M365.55 406.68L365.55 395.76 365.54 395.76 365.55 406.68Z" fill="black" stroke="black" stroke-width="0.2"/>
<path d="M365.55 406.68L365.78 406.67 365.55 395.76 365.55 406.68Z" fill="black" stroke="black" stroke-width="0.2"/>
<path d="M365.78 406.67L365.78 395.72 365.55 395.76 365.78 406.67Z" fill="black" stroke="black" stroke-width="0.2"/>
<path d="M365.78 406.67L366.02 406.66 365.78 395.72 365.78 406.67Z" fill="black" stroke="black" stroke-width="0.2"/>
<path d="M366.02 406.66L366.02 395.65 365.78 395.72 366.02 406.66Z" fill="black" stroke="black" stroke-width="0.2"/>
<path d="M366.02 406.66L366.25 406.65 366.02 395.65 366.02 406.66Z" fill="black" stroke="black" stroke-width="0.2"/>
<path d="M366.25 406.65L366.25 395.54 366.02 395.65 366.25 406.65Z" fill="black" stroke="black" stroke-width="0.2"/>
<path d="M366.25 406.65L366.25 406.65 366.25 395.54 366.25 406.65Z" fill="black" stroke="black" stroke-width="0.2"/>
<path d="M366.25 406.65L366.25 395.54 366.25 395.54 366.25 406.65Z" fill="black" stroke="black" stroke-width="0.2"/>
<path d="M366.25 406.65L366.46 406.63 366.25 395.54 366.25 406.65Z" fill="black" stroke="black" stroke-width="0.2"/>
<path d="M366.46 406.63L366.46 395.4 366.25 395.54 366.46 406.63Z" fill="black" stroke="black" stroke-width="0.2"/>
<path d="M366.46 406.63L366.65 406.61 366.46 395.4 366.46 406.63Z" fill="black" stroke="black" stroke-width="0.2"/>
<path d="M366.65 406.61L366.65 395.24 366.46 395.4 366.65 406.61Z" fill="black" stroke="black" stroke-width="0.2"/>
<path d="M366.65 406.61L366.95 406.58 366.65 395.24 366.65 406.61Z" fill="black" stroke="black" stroke-width="0.2"/>
<path d="M366.95 406.58L366.95 394.94 366.65 395.24 366.95 406.58Z" fill="black" stroke="black" stroke-width="0.2"/>
<path d="M366.95 406.58L367.64 406.47 366.95 394.94 366.95 406.58Z" fill="black" stroke="black" stroke-width="0.2"/>
<path d="M367.64 406.47L367.64 394.25 366.95 394.94 367.64 406.47Z" fill="black" stroke="black" stroke-width="0.2"/>
<path d="M367.64 406.47L368.33 406.33 367.64 394.25 367.64 406.47Z" fill="black" stroke="black" stroke-width="0.2"/>
<path d="M368.33 406.33L368.33 393.56 367.64 394.25 368.33 406.33Z" fill="black" stroke="black" stroke-width="0.2"/>
<path d="M368.33 406.33L369.01 406.15 368.33 393.56 368.33 406.33Z" fill="black" stroke="black" stroke-width="0.2"/>
<path d="M369.01 406.15L369.01 392.89 368.33 393.56 369.01 406.15Z" fill="black" stroke="black" stroke-width="0.2"/>
<path d="M369.01 406.15L369.67 405.93 369.01 392.89 369.01 406.15Z" fill="black" stroke="black" stroke-width="0.2"/>
<path d="M369.67 405.93L369.67 392.22 369.01 392.89 369.67 405.93Z" fill="black" stroke="black" stroke-width="0.2"/>
<path d="M369.67 405.93L370.32 405.68 369.67 392.22 369.67 405.93Z" fill="black" stroke="black" stroke-width="0.2"/>
<path d="M370.32 405.68L370.32 391.57 369.67 392.22 370.32 405.68Z" fill="black" stroke="black" stroke-width="0.2"/>
<path d="M370.32 405.68L370.96 405.39 370.32 391.57 370.32 405.68Z" fill="black" stroke="black" stroke-width="0.2"/>
<path d="M370.96 405.39L370.96 390.93 370.32 391.57 370.96 405.39Z" fill="black" stroke="black" stroke-width="0.2"/>
<path d="M370.96 405.39L371.58 405.06 370.96 390.93 370.96 405.39Z" fill="black" stroke="black" stroke-width="0.2"/>
<path d="M371.58 405.06L371.58 390.31 370.96 390.93 371.58 405.06Z" fill="black" stroke="black" stroke-width="0.2"/>
<path d="M371.58 405.06L372.18 404.7 371.58 390.31 371.58 405.06Z" fill="black" stroke="black" stroke-width="0.2"/>
<path d="M372.18 404.7L372.18 389.71 371.58 390.31 372.18 404.7Z" fill="black" stroke="black" stroke-width="0.2"/>
<path d="M372.18 404.7L372.76 404.31 372.18 389.71 372.18 404.7Z" fill="black" stroke="black" stroke-width="0.2"/>
<path d="M372.76 404.31L372.76 389.13 372.18 389.71 372.76 404.31Z" fill="black" stroke="black" stroke-width="0.2"/>
<path d="M372.76 404.31L373.32 403.89 372.76 389.13 372.76 404.31Z" fill="black" stroke="black" stroke-width="0.2"/>
<path d="M373.32 403.89L373.32 388.57 372.76 389.13 373.32 403.89Z" fill="black" stroke="black" stroke-width="0.2"/>
<path d="M373.32 403.89L373.86 403.44 373.32 388.57 373.32 403.89Z" fill="black" stroke="black" stroke-width="0.2"/>
<path d="M373.86 403.44L373.86 388.03 373.32 388.57 373.86 403.44Z" fill="black" stroke="black" stroke-width="0.2"/>
<path d="M373.86 403.44L374.37 402.95 373.86 388.03 373.86 403.44Z" fill="black" stroke="black" stroke-width="0.2"/>
<path d="M374.37 402.95L374.37 387.52 373.86 388.03 374.37 402.95Z" fill="black" stroke="black" stroke-width="0.2"/>
<path d="M329.95 248.46L471.64 286.43 329.95 237.16 329.95 248.46Z" fill="black" stroke="black" stroke-width="0.2"/>
<path d="M471.64 286.43L471.64 275.13 329.95 237.16 471.64 286.43Z" fill="black" stroke="black" stroke-width="0.2"/>
<path d="M471.64 286.43L471.88 286.51 471.64 275.13 471.64 286.43Z" fill="black" stroke="black" stroke-width="0.2"/>
<path d="M471.88 286.51L471.88 275.19 471.64 275.13 471.88 286.51Z" fill="black" stroke="black" stroke-width="0.2"/>
<path d="M471.88 286.51L472.11 286.62 471.88 275.19 471.88 286.51Z" fill="black" stroke="black" stroke-width="0.2"/>
<path d="M472.11 286.62L472.11 275.25 471.88 275.19 472.11 286.62Z" fill="black" stroke="black" stroke-width="0.2"/>
<path d="M472.11 286.62L472.31 286.76 472.11 275.25 472.11 286.62Z" fill="black" stroke="black" stroke-width="0.2"/>
<path d="M472.31 286.76L472.31 275.31 472.11 275.25 472.31 286.76Z" fill="black" stroke="black" stroke-width="0.2"/>
<path d="M374.37 402.95L472.45 304.87 374.37 387.52 374.37 402.95Z" fill="black" stroke="black" stroke-width="0.2"/>
<path d="M472.45 304.87L472.45 289.44 374.37 387.52 472.45 304.87Z" fill="black" stroke="black" stroke-width="0.2"/>
<path d="M472.31 286.76L472.5 286.94 472.31 275.31 472.31 286.76Z" fill="black" stroke="black" stroke-width="0.2"/>
<path d="M472.5 286.94L472.5 275.36 472.31 275.31 472.5 286.94Z" fill="black" stroke="black" stroke-width="0.2"/>
<path d="M472.45 304.87L472.62 304.7 472.45 289.44 472.45 304.87Z" fill="black" stroke="black" stroke-width="0.2"/>
<path d="M472.62 304.7L472.62 289.25 472.45 289.44 472.62 304.7Z" fill="black" stroke="black" stroke-width="0.2"/>
<path d="M472.5 286.94L472.65 287.13 472.5 275.36 472.5 286.94Z" fill="black" stroke="black" stroke-width="0.2"/>
<path d="M472.65 287.13L472.65 275.4 472.5 275.36 472.65 287.13Z" fill="black" stroke="black" stroke-width="0.2"/>
<path d="M472.62 304.7L472.76 304.56 472.62 289.25 472.62 304.7Z" fill="black" stroke="black" stroke-width="0.2"/>
<path d="M472.76 304.56L472.76 289.04 472.62 289.25 472.76 304.56Z" fill="black" stroke="black" stroke-width="0.2"/>
<path d="M472.65 287.13L472.78 287.35 472.65 275.4 472.65 287.13Z" fill="black" stroke="black" stroke-width="0.2"/>
<path d="M472.78 287.35L472.78 275.44 472.65 275.4 472.78 287.35Z" fill="black" stroke="black" stroke-width="0.2"/>
<path d="M472.76 304.56L472.86 304.46 472.76 289.04 472.76 304.56Z" fill="black" stroke="black" stroke-width="0.2"/>
<path d="M472.86 304.46L472.86 288.81 472.76 289.04 472.86 304.46Z" fill="black" stroke="black" stroke-width="0.2"/>
<path d="M472.78 287.35L472.88 287.58 472.78 275.44 472.78 287.35Z" fill="black" stroke="black" stroke-width="0.2"/>
<path d="M472.88 287.58L472.88 275.46 472.78 275.44 472.88 287.58Z" fill="black" stroke="black" stroke-width="0.2"/>
<path d="M472.86 304.46L472.93 304.39 472.86 288.81 472.86 304.46Z" fill="black" stroke="black" stroke-width="0.2"/>
<path d="M472.93 304.39L472.93 288.57 472.86 288.81 472.93 304.39Z" fill="black" stroke="black" stroke-width="0.2"/>
<path d="M472.88 287.58L472.95 287.82 472.88 275.46 472.88 287.58Z" fill="black" stroke="black" stroke-width="0.2"/>
<path d="M472.95 287.82L472.95 275.48 472.88 275.46 472.95 287.82Z" fill="black" stroke="black" stroke-width="0.2"/>
<path d="M472.93 304.39L472.97 304.35 472.93 288.57 472.93 304.39Z" fill="black" stroke="black" stroke-width="0.2"/>
<path d="M472.97 304.35L472.97 288.32 472.93 288.57 472.97 304.35Z" fill="black" stroke="black" stroke-width="0.2"/>
<path d="M472.97 304.35L472.98 304.34 472.97 288.32 472.97 304.35Z" fill="black" stroke="black" stroke-width="0.2"/>
<path d="M472.98 304.34L472.98 288.07 472.97 288.32 472.98 304.34Z" fill="black" stroke="black" stroke-width="0.2"/>
<path d="M472.95 287.82L472.98 288.07 472.95 275.48 472.95 287.82Z" fill="black" stroke="black" stroke-width="0.2"/>
<path d="M472.98 288.07L472.98 275.49 472.95 275.48 472.98 288.07Z" fill="black" stroke="black" stroke-width="0.2"/>
<path d="M472.98 304.34L474.46 302.87 472.98 275.49 472.98 304.34Z" fill="black" stroke="black" stroke-width="0.2"/>
<path d="M474.46 302.87L474.46 275.88 472.98 275.49 474.46 302.87Z" fill="black" stroke="black" stroke-width="0.2"/>
<path d="M474.46 302.87L475.13 302.19 474.46 275.88 474.46 302.87Z" fill="black" stroke="black" stroke-width="0.2"/>
<path d="M475.13 302.19L475.13 276.08 474.46 275.88 475.13 302.19Z" fill="black" stroke="black" stroke-width="0.2"/>
<path d="M475.13 302.19L475.79 301.53 475.13 276.08 475.13 302.19Z" fill="black" stroke="black" stroke-width="0.2"/>
<path d="M475.79 301.53L475.79 276.32 475.13 276.08 475.79 301.53Z" fill="black" stroke="black" stroke-width="0.2"/>
<path d="M475.79 301.53L476.43 300.89 475.79 276.32 475.79 301.53Z" fill="black" stroke="black" stroke-width="0.2"/>
<path d="M476.43 300.89L476.43 276.59 475.79 276.32 476.43 300.89Z" fill="black" stroke="black" stroke-width="0.2"/>
<path d="M476.43 300.89L477.06 300.26 476.43 276.59 476.43 300.89Z" fill="black" stroke="black" stroke-width="0.2"/>
<path d="M477.06 300.26L477.06 276.9 476.43 276.59 477.06 300.26Z" fill="black" stroke="black" stroke-width="0.2"/>
<path d="M477.06 300.26L477.67 299.65 477.06 276.9 477.06 300.26Z" fill="black" stroke="black" stroke-width="0.2"/>
<path d="M477.67 299.65L477.67 277.24 477.06 276.9 477.67 299.65Z" fill="black" stroke="black" stroke-width="0.2"/>
<path d="M477.67 299.65L478.27 299.05 477.67 277.24 477.67 299.65Z" fill="black" stroke="black" stroke-width="0.2"/>
<path d="M478.27 299.05L478.27 277.61 477.67 277.24 478.27 299.05Z" fill="black" stroke="black" stroke-width="0.2"/>
<path d="M478.27 299.05L478.84 298.48 478.27 277.61 478.27 299.05Z" fill="black" stroke="black" stroke-width="0.2"/>
<path d="M478.84 298.48L478.84 278.02 478.27 277.61 478.84 298.48Z" fill="black" stroke="black" stroke-width="0.2"/>
<path d="M478.84 298.48L479.38 297.94 478.84 278.02 478.84 298.48Z" fill="black" stroke="black" stroke-width="0.2"/>
<path d="M479.38 297.94L479.38 278.46 478.84 278.02 479.38 297.94Z" fill="black" stroke="black" stroke-width="0.2"/>
<path d="M479.38 297.94L479.91 297.41 479.38 278.46 479.38 297.94Z" fill="black" stroke="black" stroke-width="0.2"/>
<path d="M479.91 297.41L479.91 278.92 479.38 278.46 479.91 297.41Z" fill="black" stroke="black" stroke-width="0.2"/>
<path d="M479.91 297.41L480.18 297.14 479.91 278.92 479.91 297.41Z" fill="black" stroke="black" stroke-width="0.2"/>
<path d="M480.18 297.14L480.18 279.19 479.91 278.92 480.18 297.14Z" fill="black" stroke="black" stroke-width="0.2"/>
<path d="M480.18 297.14L480.4 296.91 480.18 279.19 480.18 297.14Z" fill="black" stroke="black" stroke-width="0.2"/>
<path d="M480.4 296.91L480.4 279.42 480.18 279.19 480.4 296.91Z" fill="black" stroke="black" stroke-width="0.2"/>
<path d="M480.4 296.91L480.66 296.63 480.4 279.42 480.4 296.91Z" fill="black" stroke="black" stroke-width="0.2"/>
<path d="M480.66 296.63L480.66 279.7 480.4 279.42 480.66 296.63Z" fill="black" stroke="black" stroke-width="0.2"/>
<path d="M480.66 296.63L480.87 296.38 480.66 279.7 480.66 296.63Z" fill="black" stroke="black" stroke-width="0.2"/>
<path d="M480.87 296.38L480.87 279.94 480.66 279.7 480.87 296.38Z" fill="black" stroke="black" stroke-width="0.2"/>
<path d="M480.87 296.38L481.11 296.1 480.87 279.94 480.87 296.38Z" fill="black" stroke="black" stroke-width="0.2"/>
<path d="M481.11 296.1L481.11 280.24 480.87 279.94 481.11 296.1Z" fill="black" stroke="black" stroke-width="0.2"/>
<path d="M481.11 296.1L481.31 295.84 481.11 280.24 481.11 296.1Z" fill="black" stroke="black" stroke-width="0.2"/>
<path d="M481.31 295.84L481.31 280.48 481.11 280.24 481.31 295.84Z" fill="black" stroke="black" stroke-width="0.2"/>
<path d="M481.31 295.84L481.53 295.54 481.31 280.48 481.31 295.84Z" fill="black" stroke="black" stroke-width="0.2"/>
<path d="M481.53 295.54L481.53 280.8 481.31 280.48 481.53 295.54Z" fill="black" stroke="black" stroke-width="0.2"/>
<path d="M481.53 295.54L481.72 295.27 481.53 280.8 481.53 295.54Z" fill="black" stroke="black" stroke-width="0.2"/>
<path d="M481.72 295.27L481.72 281.05 481.53 280.8 481.72 295.27Z" fill="black" stroke="black" stroke-width="0.2"/>
<path d="M481.72 295.27L481.92 294.96 481.72 281.05 481.72 295.27Z" fill="black" stroke="black" stroke-width="0.2"/>
<path d="M481.92 294.96L481.92 281.38 481.72 281.05 481.92 294.96Z" fill="black" stroke="black" stroke-width="0.2"/>
<path d="M481.92 294.96L482.09 294.67 481.92 281.38 481.92 294.96Z" fill="black" stroke="black" stroke-width="0.2"/>
<path d="M482.09 294.67L482.09 281.65 481.92 281.38 482.09 294.67Z" fill="black" stroke="black" stroke-width="0.2"/>
<path d="M482.09 294.67L482.28 294.35 482.09 281.65 482.09 294.67Z" fill="black" stroke="black" stroke-width="0.2"/>
<path d="M482.28 294.35L482.28 281.98 482.09 281.65 482.28 294.35Z" fill="black" stroke="black" stroke-width="0.2"/>
<path d="M482.28 294.35L482.43 294.06 482.28 281.98 482.28 294.35Z" fill="black" stroke="black" stroke-width="0.2"/>
<path d="M482.43 294.06L482.43 282.26 482.28 281.98 482.43 294.06Z" fill="black" stroke="black" stroke-width="0.2"/>
<path d="M482.43 294.06L482.61 293.73 482.43 282.26 482.43 294.06Z" fill="black" stroke="black" stroke-width="0.2"/>
<path d="M482.61 293.73L482.61 282.61 482.43 282.26 482.61 293.73Z" fill="black" stroke="black" stroke-width="0.2"/>
<path d="M482.61 293.73L482.74 293.43 482.61 282.61 482.61 293.73Z" fill="black" stroke="black" stroke-width="0.2"/>
<path d="M482.74 293.43L482.74 282.89 482.61 282.61 482.74 293.43Z" fill="black" stroke="black" stroke-width="0.2"/>
<path d="M482.74 293.43L482.9 293.1 482.74 282.89 482.74 293.43Z" fill="black" stroke="black" stroke-width="0.2"/>
<path d="M482.9 293.1L482.9 283.25 482.74 282.89 482.9 293.1Z" fill="black" stroke="black" stroke-width="0.2"/>
<path d="M482.9 293.1L483.02 292.79 482.9 283.25 482.9 293.1Z" fill="black" stroke="black" stroke-width="0.2"/>
<path d="M483.02 292.79L483.02 283.53 482.9 283.25 483.02 292.79Z" fill="black" stroke="black" stroke-width="0.2"/>
<path d="M483.02 292.79L483.15 292.44 483.02 283.53 483.02 292.79Z" fill="black" stroke="black" stroke-width="0.2"/>
<path d="M483.15 292.44L483.15 283.9 483.02 283.53 483.15 292.44Z" fill="black" stroke="black" stroke-width="0.2"/>
<path d="M483.15 292.44L483.25 292.12 483.15 283.9 483.15 292.44Z" fill="black" stroke="black" stroke-width="0.2"/>
<path d="M483.25 292.12L483.25 284.19 483.15 283.9 483.25 292.12Z" fill="black" stroke="black" stroke-width="0.2"/>
<path d="M483.25 292.12L483.37 291.78 483.25 284.19 483.25 292.12Z" fill="black" stroke="black" stroke-width="0.2"/>
<path d="M483.37 291.78L483.37 284.57 483.25 284.19 483.37 291.78Z" fill="black" stroke="black" stroke-width="0.2"/>
<path d="M483.37 291.78L483.45 291.45 483.37 284.57 483.37 291.78Z" fill="black" stroke="black" stroke-width="0.2"/>
<path d="M483.45 291.45L483.45 284.86 483.37 284.57 483.45 291.45Z" fill="black" stroke="black" stroke-width="0.2"/>
<path d="M483.45 291.45L483.55 291.1 483.45 284.86 483.45 291.45Z" fill="black" stroke="black" stroke-width="0.2"/>
<path d="M483.55 291.1L483.55 285.25 483.45 284.86 483.55 291.1Z" fill="black" stroke="black" stroke-width="0.2"/>
<path d="M483.55 291.1L483.62 290.76 483.55 285.25 483.55 291.1Z" fill="black" stroke="black" stroke-width="0.2"/>
<path d="M483.62 290.76L483.62 285.54 483.55 285.25 483.62 290.76Z" fill="black" stroke="black" stroke-width="0.2"/>
<path d="M483.62 290.76L483.69 290.41 483.62 285.54 483.62 290.76Z" fill="black" stroke="black" stroke-width="0.2"/>
<path d="M483.69 290.41L483.69 285.94 483.62 285.54 483.69 290.41Z" fill="black" stroke="black" stroke-width="0.2"/>
<path d="M483.69 290.41L483.74 290.07 483.69 285.94 483.69 290.41Z" fill="black" stroke="black" stroke-width="0.2"/>
<path d="M483.74 290.07L483.74 286.23 483.69 285.94 483.74 290.07Z" fill="black" stroke="black" stroke-width="0.2"/>
<path d="M483.74 290.07L483.8 289.72 483.74 286.23 483.74 290.07Z" fill="black" stroke="black" stroke-width="0.2"/>
<path d="M483.8 289.72L483.8 286.65 483.74 286.23 483.8 289.72Z" fill="black" stroke="black" stroke-width="0.2"/>
<path d="M483.8 289.72L483.83 289.35 483.8 286.65 483.8 289.72Z" fill="black" stroke="black" stroke-width="0.2"/>
<path d="M483.83 289.35L483.83 286.93 483.8 286.65 483.83 289.35Z" fill="black" stroke="black" stroke-width="0.2"/>
<path d="M483.83 289.35L483.86 289.02 483.83 286.93 483.83 289.35Z" fill="black" stroke="black" stroke-width="0.2"/>
<path d="M483.86 289.02L483.86 287.37 483.83 286.93 483.86 289.02Z" fill="black" stroke="black" stroke-width="0.2"/>
<path d="M483.86 289.02L483.88 288.59 483.86 287.37 483.86 289.02Z" fill="black" stroke="black" stroke-width="0.2"/>
<path d="M483.88 288.59L483.88 287.62 483.86 287.37 483.88 288.59Z" fill="black" stroke="black" stroke-width="0.2"/>
<path d="M483.88 288.59L483.89 288.32 483.88 287.62 483.88 288.59Z" fill="black" stroke="black" stroke-width="0.2"/>
<path d="M363.64 394.43L324.91 249.9" fill="none" stroke="black" stroke-width="0.5"/>
<path d="M327.12 247.7L471.65 286.43" fill="none" stroke="black" stroke-width="0.5"/>
<path d="M366.65 395.24L472.45 289.44" fill="none" stroke="black" stroke-width="0.5"/>
<path d="M 327.12 247.7 A 1.8 1.8 0 0 0 324.91 249.9" fill="none" stroke="black" stroke-width="0.5"/>
<path d="M353.1 397.26L314.38 252.73" fill="none" stroke="black" stroke-width="0.5"/>
<path d="M329.95 237.16L474.49 275.89" fill="none" stroke="black" stroke-width="0.5"/>
<path d="M 363.64 394.43 A 1.8 1.8 0 0 0 366.65 395.24" fill="none" stroke="black" stroke-width="0.5"/>
<path d="M374.37 402.95L480.17 297.15" fill="none" stroke="black" stroke-width="0.5"/>
<path d="M 472.45 289.44 A 1.8 1.8 0 0 0 471.64 286.43" fill="none" stroke="black" stroke-width="0.5"/>
<path d="M 353.1 397.26 A 12.71 12.71 0 0 0 374.37 402.95" fill="none" stroke="black" stroke-width="0.5"/>
<path d="M 480.16 297.16 A 12.71 12.71 0 0 0 474.46 275.88" fill="none" stroke="black" stroke-width="0.5"/>
<path d="M 329.95 237.16 A 11.378 11.378 0 0 0 314.38 252.73" fill="none" stroke="black" stroke-width="0.5"/>
</svg>