<?xml version="1.0" encoding="UTF-8"?>
<svg xmlns="http://www.w3.org/2000/svg" width="800.000" height="600.000" viewBox="0.0 0.0 800.000 600.000" version="1.1">
  <desc>Produce by Acme CAD Converter</desc>
<path d="M365.83 361.51L323.99 205.38"
fill="none" stroke="black" stroke-width="0.5"/>
<path d="M326.37 203L482.5 244.84"
fill="none" stroke="black" stroke-width="0.5"/>
<path d="M369.08 362.38L483.37 248.09"
fill="none" stroke="black" stroke-width="0.5"/>
<path d="M 326.37 203 A 1.944 1.944 0 0 0 323.99 205.38"
fill="none" stroke="black" stroke-width="0.5"/>
<path d="M359.32 363.25L317.49 207.13"
fill="none" stroke="black" stroke-width="0.5"/>
<path d="M328.12 196.5L484.25 238.33"
fill="none" stroke="black" stroke-width="0.5"/>
<path d="M 328.12 196.5 A 8.679 8.679 0 0 0 317.49 207.13"
fill="none" stroke="black" stroke-width="0.5"/>
<path d="M 365.83 361.51 A 1.944 1.944 0 0 0 369.08 362.38"
fill="none" stroke="black" stroke-width="0.5"/>
<path d="M 359.32 363.25 A 8.679 8.679 0 0 0 373.84 367.14"
fill="none" stroke="black" stroke-width="0.5"/>
<path d="M373.84 367.14L488.13 252.85"
fill="none" stroke="black" stroke-width="0.5"/>
<path d="M 483.37 248.09 A 1.944 1.944 0 0 0 482.5 244.83"
fill="none" stroke="black" stroke-width="0.5"/>
<path d="M 488.13 252.85 A 8.679 8.679 0 0 0 484.23 238.33"
fill="none" stroke="black" stroke-width="0.5"/>
</svg>
