<svg class="svg_square" xmlns="http://www.w3.org/2000/svg" version="1.1" viewBox="265.92 214.92 172.57 172.53">
  <desc>Produce by Acme CAD Converter</desc>
<path d="M267.2 301.84L267.2 300.51 267.18 301.17 267.2 301.84Z" fill="black" stroke="black" stroke-width="0.2"/>
<path d="M267.2 301.84L267.25 302.5 267.2 300.51 267.2 301.84Z" fill="black" stroke="black" stroke-width="0.2"/>
<path d="M267.25 302.5L267.25 299.85 267.2 300.51 267.25 302.5Z" fill="black" stroke="black" stroke-width="0.2"/>
<path d="M267.25 302.5L267.35 303.16 267.25 299.85 267.25 302.5Z" fill="black" stroke="black" stroke-width="0.2"/>
<path d="M267.35 303.16L267.35 299.19 267.25 299.85 267.35 303.16Z" fill="black" stroke="black" stroke-width="0.2"/>
<path d="M267.35 303.16L267.48 303.81 267.35 299.19 267.35 303.16Z" fill="black" stroke="black" stroke-width="0.2"/>
<path d="M267.48 303.81L267.48 298.54 267.35 299.19 267.48 303.81Z" fill="black" stroke="black" stroke-width="0.2"/>
<path d="M267.48 303.81L267.64 304.46 267.48 298.54 267.48 303.81Z" fill="black" stroke="black" stroke-width="0.2"/>
<path d="M267.64 304.46L267.64 297.89 267.48 298.54 267.64 304.46Z" fill="black" stroke="black" stroke-width="0.2"/>
<path d="M267.64 304.46L267.85 305.09 267.64 297.89 267.64 304.46Z" fill="black" stroke="black" stroke-width="0.2"/>
<path d="M267.85 305.09L267.85 297.26 267.64 297.89 267.85 305.09Z" fill="black" stroke="black" stroke-width="0.2"/>
<path d="M267.85 305.09L268.08 305.71 267.85 297.26 267.85 305.09Z" fill="black" stroke="black" stroke-width="0.2"/>
<path d="M268.08 305.71L268.08 296.64 267.85 297.26 268.08 305.71Z" fill="black" stroke="black" stroke-width="0.2"/>
<path d="M268.08 305.71L268.35 306.32 268.08 296.64 268.08 305.71Z" fill="black" stroke="black" stroke-width="0.2"/>
<path d="M268.35 306.32L268.35 296.03 268.08 296.64 268.35 306.32Z" fill="black" stroke="black" stroke-width="0.2"/>
<path d="M268.35 306.32L268.66 306.91 268.35 296.03 268.35 306.32Z" fill="black" stroke="black" stroke-width="0.2"/>
<path d="M268.66 306.91L268.66 295.44 268.35 296.03 268.66 306.91Z" fill="black" stroke="black" stroke-width="0.2"/>
<path d="M268.66 306.91L269 307.48 268.66 295.44 268.66 306.91Z" fill="black" stroke="black" stroke-width="0.2"/>
<path d="M269 307.48L269 294.87 268.66 295.44 269 307.48Z" fill="black" stroke="black" stroke-width="0.2"/>
<path d="M269 307.48L269.37 308.03 269 294.87 269 307.48Z" fill="black" stroke="black" stroke-width="0.2"/>
<path d="M269.37 308.03L269.37 294.31 269 294.87 269.37 308.03Z" fill="black" stroke="black" stroke-width="0.2"/>
<path d="M269.37 308.03L269.77 308.57 269.37 294.31 269.37 308.03Z" fill="black" stroke="black" stroke-width="0.2"/>
<path d="M269.77 308.57L269.77 293.78 269.37 294.31 269.77 308.57Z" fill="black" stroke="black" stroke-width="0.2"/>
<path d="M269.77 308.57L270.2 309.07 269.77 293.78 269.77 308.57Z" fill="black" stroke="black" stroke-width="0.2"/>
<path d="M270.2 309.07L270.2 293.28 269.77 293.78 270.2 309.07Z" fill="black" stroke="black" stroke-width="0.2"/>
<path d="M270.2 309.07L270.65 309.56 270.2 293.28 270.2 309.07Z" fill="black" stroke="black" stroke-width="0.2"/>
<path d="M270.65 309.56L270.65 292.79 270.2 293.28 270.65 309.56Z" fill="black" stroke="black" stroke-width="0.2"/>
<path d="M270.65 309.56L276.88 315.78 270.65 292.79 270.65 309.56Z" fill="black" stroke="black" stroke-width="0.2"/>
<path d="M276.88 315.78L276.88 286.56 270.65 292.79 276.88 315.78Z" fill="black" stroke="black" stroke-width="0.2"/>
<path d="M276.88 315.78L276.9 315.8 276.88 301.17 276.88 315.78Z" fill="black" stroke="black" stroke-width="0.2"/>
<path d="M276.9 315.8L276.9 301.46 276.88 301.17 276.9 315.8Z" fill="black" stroke="black" stroke-width="0.2"/>
<path d="M276.88 301.17L276.9 300.89 276.88 286.56 276.88 301.17Z" fill="black" stroke="black" stroke-width="0.2"/>
<path d="M276.9 300.89L276.9 286.55 276.88 286.56 276.9 300.89Z" fill="black" stroke="black" stroke-width="0.2"/>
<path d="M276.9 315.8L276.95 315.86 276.9 301.46 276.9 315.8Z" fill="black" stroke="black" stroke-width="0.2"/>
<path d="M276.95 315.86L276.95 301.73 276.9 301.46 276.95 315.86Z" fill="black" stroke="black" stroke-width="0.2"/>
<path d="M276.9 300.89L276.95 300.62 276.9 286.55 276.9 300.89Z" fill="black" stroke="black" stroke-width="0.2"/>
<path d="M276.95 300.62L276.95 286.49 276.9 286.55 276.95 300.62Z" fill="black" stroke="black" stroke-width="0.2"/>
<path d="M276.95 315.86L277.04 315.95 276.95 301.73 276.95 315.86Z" fill="black" stroke="black" stroke-width="0.2"/>
<path d="M277.04 315.95L277.04 302 276.95 301.73 277.04 315.95Z" fill="black" stroke="black" stroke-width="0.2"/>
<path d="M276.95 300.62L277.04 300.35 276.95 286.49 276.95 300.62Z" fill="black" stroke="black" stroke-width="0.2"/>
<path d="M277.04 300.35L277.04 286.4 276.95 286.49 277.04 300.35Z" fill="black" stroke="black" stroke-width="0.2"/>
<path d="M277.04 315.95L277.17 316.07 277.04 302 277.04 315.95Z" fill="black" stroke="black" stroke-width="0.2"/>
<path d="M277.17 316.07L277.17 302.25 277.04 302 277.17 316.07Z" fill="black" stroke="black" stroke-width="0.2"/>
<path d="M277.04 300.35L277.17 300.1 277.04 286.4 277.04 300.35Z" fill="black" stroke="black" stroke-width="0.2"/>
<path d="M277.17 300.1L277.17 286.28 277.04 286.4 277.17 300.1Z" fill="black" stroke="black" stroke-width="0.2"/>
<path d="M277.17 316.07L277.32 316.23 277.17 302.25 277.17 316.07Z" fill="black" stroke="black" stroke-width="0.2"/>
<path d="M277.32 316.23L277.32 302.49 277.17 302.25 277.32 316.23Z" fill="black" stroke="black" stroke-width="0.2"/>
<path d="M277.17 300.1L277.32 299.86 277.17 286.28 277.17 300.1Z" fill="black" stroke="black" stroke-width="0.2"/>
<path d="M277.32 299.86L277.32 286.12 277.17 286.28 277.32 299.86Z" fill="black" stroke="black" stroke-width="0.2"/>
<path d="M277.32 316.23L277.51 316.42 277.32 302.49 277.32 316.23Z" fill="black" stroke="black" stroke-width="0.2"/>
<path d="M277.51 316.42L277.51 302.7 277.32 302.49 277.51 316.42Z" fill="black" stroke="black" stroke-width="0.2"/>
<path d="M277.32 299.86L277.51 299.65 277.32 286.12 277.32 299.86Z" fill="black" stroke="black" stroke-width="0.2"/>
<path d="M277.51 299.65L277.51 285.93 277.32 286.12 277.51 299.65Z" fill="black" stroke="black" stroke-width="0.2"/>
<path d="M277.51 316.42L343.81 382.71 277.51 302.7 277.51 316.42Z" fill="black" stroke="black" stroke-width="0.2"/>
<path d="M343.81 382.71L343.81 369 277.51 302.7 343.81 382.71Z" fill="black" stroke="black" stroke-width="0.2"/>
<path d="M277.51 299.65L343.81 233.35 277.51 285.93 277.51 299.65Z" fill="black" stroke="black" stroke-width="0.2"/>
<path d="M343.81 233.35L343.81 219.64 277.51 285.93 343.81 233.35Z" fill="black" stroke="black" stroke-width="0.2"/>
<path d="M343.81 382.71L344.29 383.17 343.81 369 343.81 382.71Z" fill="black" stroke="black" stroke-width="0.2"/>
<path d="M344.29 383.17L344.29 369.48 343.81 369 344.29 383.17Z" fill="black" stroke="black" stroke-width="0.2"/>
<path d="M343.81 233.35L344.29 232.87 343.81 219.64 343.81 233.35Z" fill="black" stroke="black" stroke-width="0.2"/>
<path d="M344.29 232.87L344.29 219.18 343.81 219.64 344.29 232.87Z" fill="black" stroke="black" stroke-width="0.2"/>
<path d="M344.29 383.17L344.8 383.6 344.29 369.48 344.29 383.17Z" fill="black" stroke="black" stroke-width="0.2"/>
<path d="M344.8 383.6L344.8 369.99 344.29 369.48 344.8 383.6Z" fill="black" stroke="black" stroke-width="0.2"/>
<path d="M344.29 232.87L344.8 232.36 344.29 219.18 344.29 232.87Z" fill="black" stroke="black" stroke-width="0.2"/>
<path d="M344.8 232.36L344.8 218.75 344.29 219.18 344.8 232.36Z" fill="black" stroke="black" stroke-width="0.2"/>
<path d="M344.8 383.6L345.33 384 344.8 369.99 344.8 383.6Z" fill="black" stroke="black" stroke-width="0.2"/>
<path d="M345.33 384L345.33 370.52 344.8 369.99 345.33 384Z" fill="black" stroke="black" stroke-width="0.2"/>
<path d="M344.8 232.36L345.33 231.83 344.8 218.75 344.8 232.36Z" fill="black" stroke="black" stroke-width="0.2"/>
<path d="M345.33 231.83L345.33 218.35 344.8 218.75 345.33 231.83Z" fill="black" stroke="black" stroke-width="0.2"/>
<path d="M345.33 384L345.88 384.37 345.33 370.52 345.33 384Z" fill="black" stroke="black" stroke-width="0.2"/>
<path d="M345.88 384.37L345.88 371.07 345.33 370.52 345.88 384.37Z" fill="black" stroke="black" stroke-width="0.2"/>
<path d="M345.33 231.83L345.88 231.28 345.33 218.35 345.33 231.83Z" fill="black" stroke="black" stroke-width="0.2"/>
<path d="M345.88 231.28L345.88 217.98 345.33 218.35 345.88 231.28Z" fill="black" stroke="black" stroke-width="0.2"/>
<path d="M345.88 384.37L346.46 384.71 345.88 371.07 345.88 384.37Z" fill="black" stroke="black" stroke-width="0.2"/>
<path d="M346.46 384.71L346.46 371.64 345.88 371.07 346.46 384.71Z" fill="black" stroke="black" stroke-width="0.2"/>
<path d="M345.88 231.28L346.46 230.7 345.88 217.98 345.88 231.28Z" fill="black" stroke="black" stroke-width="0.2"/>
<path d="M346.46 230.7L346.46 217.64 345.88 217.98 346.46 230.7Z" fill="black" stroke="black" stroke-width="0.2"/>
<path d="M346.46 384.71L347.05 385.01 346.46 371.64 346.46 384.71Z" fill="black" stroke="black" stroke-width="0.2"/>
<path d="M347.05 385.01L347.05 372.24 346.46 371.64 347.05 385.01Z" fill="black" stroke="black" stroke-width="0.2"/>
<path d="M346.46 230.7L347.05 230.11 346.46 217.64 346.46 230.7Z" fill="black" stroke="black" stroke-width="0.2"/>
<path d="M347.05 230.11L347.05 217.34 346.46 217.64 347.05 230.11Z" fill="black" stroke="black" stroke-width="0.2"/>
<path d="M347.05 385.01L347.65 385.28 347.05 372.24 347.05 385.01Z" fill="black" stroke="black" stroke-width="0.2"/>
<path d="M347.65 385.28L347.65 372.84 347.05 372.24 347.65 385.28Z" fill="black" stroke="black" stroke-width="0.2"/>
<path d="M347.05 230.11L347.65 229.51 347.05 217.34 347.05 230.11Z" fill="black" stroke="black" stroke-width="0.2"/>
<path d="M347.65 229.51L347.65 217.07 347.05 217.34 347.65 229.51Z" fill="black" stroke="black" stroke-width="0.2"/>
<path d="M347.65 385.28L348.28 385.52 347.65 372.84 347.65 385.28Z" fill="black" stroke="black" stroke-width="0.2"/>
<path d="M348.28 385.52L348.28 373.46 347.65 372.84 348.28 385.52Z" fill="black" stroke="black" stroke-width="0.2"/>
<path d="M347.65 229.51L348.28 228.89 347.65 217.07 347.65 229.51Z" fill="black" stroke="black" stroke-width="0.2"/>
<path d="M348.28 228.89L348.28 216.83 347.65 217.07 348.28 228.89Z" fill="black" stroke="black" stroke-width="0.2"/>
<path d="M348.28 385.52L348.91 385.72 348.28 373.46 348.28 385.52Z" fill="black" stroke="black" stroke-width="0.2"/>
<path d="M348.91 385.72L348.91 374.1 348.28 373.46 348.91 385.72Z" fill="black" stroke="black" stroke-width="0.2"/>
<path d="M348.28 228.89L348.91 228.25 348.28 216.83 348.28 228.89Z" fill="black" stroke="black" stroke-width="0.2"/>
<path d="M348.91 228.25L348.91 216.63 348.28 216.83 348.91 228.25Z" fill="black" stroke="black" stroke-width="0.2"/>
<path d="M348.91 385.72L349.55 385.89 348.91 374.1 348.91 385.72Z" fill="black" stroke="black" stroke-width="0.2"/>
<path d="M349.55 385.89L349.55 374.74 348.91 374.1 349.55 385.89Z" fill="black" stroke="black" stroke-width="0.2"/>
<path d="M348.91 228.25L349.55 227.61 348.91 216.63 348.91 228.25Z" fill="black" stroke="black" stroke-width="0.2"/>
<path d="M349.55 227.61L349.55 216.46 348.91 216.63 349.55 227.61Z" fill="black" stroke="black" stroke-width="0.2"/>
<path d="M349.55 385.89L350.21 386.02 349.55 374.74 349.55 385.89Z" fill="black" stroke="black" stroke-width="0.2"/>
<path d="M350.21 386.02L350.21 375.39 349.55 374.74 350.21 386.02Z" fill="black" stroke="black" stroke-width="0.2"/>
<path d="M349.55 227.61L350.21 226.96 349.55 216.46 349.55 227.61Z" fill="black" stroke="black" stroke-width="0.2"/>
<path d="M350.21 226.96L350.21 216.33 349.55 216.46 350.21 226.96Z" fill="black" stroke="black" stroke-width="0.2"/>
<path d="M350.21 386.02L350.67 386.08 350.21 375.39 350.21 386.02Z" fill="black" stroke="black" stroke-width="0.2"/>
<path d="M350.67 386.08L350.67 375.85 350.21 375.39 350.67 386.08Z" fill="black" stroke="black" stroke-width="0.2"/>
<path d="M350.21 226.96L350.67 226.49 350.21 216.33 350.21 226.96Z" fill="black" stroke="black" stroke-width="0.2"/>
<path d="M350.67 226.49L350.67 216.27 350.21 216.33 350.67 226.49Z" fill="black" stroke="black" stroke-width="0.2"/>
<path d="M350.67 386.08L350.86 386.11 350.67 375.85 350.67 386.08Z" fill="black" stroke="black" stroke-width="0.2"/>
<path d="M350.86 386.11L350.86 376.03 350.67 375.85 350.86 386.11Z" fill="black" stroke="black" stroke-width="0.2"/>
<path d="M350.67 226.49L350.86 226.32 350.67 216.27 350.67 226.49Z" fill="black" stroke="black" stroke-width="0.2"/>
<path d="M350.86 226.32L350.86 216.24 350.67 216.27 350.86 226.32Z" fill="black" stroke="black" stroke-width="0.2"/>
<path d="M350.86 386.11L350.88 386.11 350.86 376.03 350.86 386.11Z" fill="black" stroke="black" stroke-width="0.2"/>
<path d="M350.88 386.11L350.88 376.04 350.86 376.03 350.88 386.11Z" fill="black" stroke="black" stroke-width="0.2"/>
<path d="M350.86 226.32L350.88 226.31 350.86 216.24 350.86 226.32Z" fill="black" stroke="black" stroke-width="0.2"/>
<path d="M350.88 226.31L350.88 216.24 350.86 216.24 350.88 226.31Z" fill="black" stroke="black" stroke-width="0.2"/>
<path d="M350.88 386.11L351.11 386.13 350.88 376.04 350.88 386.11Z" fill="black" stroke="black" stroke-width="0.2"/>
<path d="M351.11 386.13L351.11 376.2 350.88 376.04 351.11 386.13Z" fill="black" stroke="black" stroke-width="0.2"/>
<path d="M350.88 226.31L351.11 226.15 350.88 216.24 350.88 226.31Z" fill="black" stroke="black" stroke-width="0.2"/>
<path d="M351.11 226.15L351.11 216.22 350.88 216.24 351.11 226.15Z" fill="black" stroke="black" stroke-width="0.2"/>
<path d="M351.11 386.13L351.37 386.15 351.11 376.2 351.11 386.13Z" fill="black" stroke="black" stroke-width="0.2"/>
<path d="M351.37 386.15L351.37 376.32 351.11 376.2 351.37 386.15Z" fill="black" stroke="black" stroke-width="0.2"/>
<path d="M351.11 226.15L351.37 226.03 351.11 216.22 351.11 226.15Z" fill="black" stroke="black" stroke-width="0.2"/>
<path d="M351.37 226.03L351.37 216.2 351.11 216.22 351.37 226.03Z" fill="black" stroke="black" stroke-width="0.2"/>
<path d="M351.37 386.15L351.53 386.17 351.37 376.32 351.37 386.15Z" fill="black" stroke="black" stroke-width="0.2"/>
<path d="M351.53 386.17L351.53 376.38 351.37 376.32 351.53 386.17Z" fill="black" stroke="black" stroke-width="0.2"/>
<path d="M351.37 226.03L351.53 225.97 351.37 216.2 351.37 226.03Z" fill="black" stroke="black" stroke-width="0.2"/>
<path d="M351.53 225.97L351.53 216.18 351.37 216.2 351.53 225.97Z" fill="black" stroke="black" stroke-width="0.2"/>
<path d="M351.53 386.17L351.63 386.17 351.53 376.38 351.53 386.17Z" fill="black" stroke="black" stroke-width="0.2"/>
<path d="M351.63 386.17L351.63 376.41 351.53 376.38 351.63 386.17Z" fill="black" stroke="black" stroke-width="0.2"/>
<path d="M351.53 225.97L351.63 225.94 351.53 216.18 351.53 225.97Z" fill="black" stroke="black" stroke-width="0.2"/>
<path d="M351.63 225.94L351.63 216.18 351.53 216.18 351.63 225.94Z" fill="black" stroke="black" stroke-width="0.2"/>
<path d="M351.63 386.17L351.91 386.18 351.63 376.41 351.63 386.17Z" fill="black" stroke="black" stroke-width="0.2"/>
<path d="M351.91 386.18L351.91 376.47 351.63 376.41 351.91 386.18Z" fill="black" stroke="black" stroke-width="0.2"/>
<path d="M351.63 225.94L351.91 225.88 351.63 216.18 351.63 225.94Z" fill="black" stroke="black" stroke-width="0.2"/>
<path d="M351.91 225.88L351.91 216.17 351.63 216.18 351.91 225.88Z" fill="black" stroke="black" stroke-width="0.2"/>
<path d="M351.91 386.18L352.19 386.19 351.91 376.47 351.91 386.18Z" fill="black" stroke="black" stroke-width="0.2"/>
<path d="M352.19 386.19L352.19 376.49 351.91 376.47 352.19 386.19Z" fill="black" stroke="black" stroke-width="0.2"/>
<path d="M351.91 225.88L352.19 225.86 351.91 216.17 351.91 225.88Z" fill="black" stroke="black" stroke-width="0.2"/>
<path d="M352.19 225.86L352.19 216.16 351.91 216.17 352.19 225.86Z" fill="black" stroke="black" stroke-width="0.2"/>
<path d="M352.19 386.19L352.47 386.18 352.19 376.49 352.19 386.19Z" fill="black" stroke="black" stroke-width="0.2"/>
<path d="M352.47 386.18L352.47 376.47 352.19 376.49 352.47 386.18Z" fill="black" stroke="black" stroke-width="0.2"/>
<path d="M352.19 225.86L352.47 225.88 352.19 216.16 352.19 225.86Z" fill="black" stroke="black" stroke-width="0.2"/>
<path d="M352.47 225.88L352.47 216.17 352.19 216.16 352.47 225.88Z" fill="black" stroke="black" stroke-width="0.2"/>
<path d="M352.47 386.18L352.75 386.17 352.47 376.47 352.47 386.18Z" fill="black" stroke="black" stroke-width="0.2"/>
<path d="M352.75 386.17L352.75 376.41 352.47 376.47 352.75 386.17Z" fill="black" stroke="black" stroke-width="0.2"/>
<path d="M352.47 225.88L352.75 225.94 352.47 216.17 352.47 225.88Z" fill="black" stroke="black" stroke-width="0.2"/>
<path d="M352.75 225.94L352.75 216.18 352.47 216.17 352.75 225.94Z" fill="black" stroke="black" stroke-width="0.2"/>
<path d="M352.75 386.17L352.86 386.17 352.75 376.41 352.75 386.17Z" fill="black" stroke="black" stroke-width="0.2"/>
<path d="M352.86 386.17L352.86 376.38 352.75 376.41 352.86 386.17Z" fill="black" stroke="black" stroke-width="0.2"/>
<path d="M352.75 225.94L352.86 225.97 352.75 216.18 352.75 225.94Z" fill="black" stroke="black" stroke-width="0.2"/>
<path d="M352.86 225.97L352.86 216.18 352.75 216.18 352.86 225.97Z" fill="black" stroke="black" stroke-width="0.2"/>
<path d="M352.86 386.17L353.02 386.15 352.86 376.38 352.86 386.17Z" fill="black" stroke="black" stroke-width="0.2"/>
<path d="M353.02 386.15L353.02 376.32 352.86 376.38 353.02 386.15Z" fill="black" stroke="black" stroke-width="0.2"/>
<path d="M352.86 225.97L353.02 226.03 352.86 216.18 352.86 225.97Z" fill="black" stroke="black" stroke-width="0.2"/>
<path d="M353.02 226.03L353.02 216.2 352.86 216.18 353.02 226.03Z" fill="black" stroke="black" stroke-width="0.2"/>
<path d="M353.02 386.15L353.27 386.13 353.02 376.32 353.02 386.15Z" fill="black" stroke="black" stroke-width="0.2"/>
<path d="M353.27 386.13L353.27 376.2 353.02 376.32 353.27 386.13Z" fill="black" stroke="black" stroke-width="0.2"/>
<path d="M353.02 226.03L353.27 226.15 353.02 216.2 353.02 226.03Z" fill="black" stroke="black" stroke-width="0.2"/>
<path d="M353.27 226.15L353.27 216.22 353.02 216.2 353.27 226.15Z" fill="black" stroke="black" stroke-width="0.2"/>
<path d="M353.27 386.13L353.5 386.11 353.27 376.2 353.27 386.13Z" fill="black" stroke="black" stroke-width="0.2"/>
<path d="M353.5 386.11L353.5 376.04 353.27 376.2 353.5 386.11Z" fill="black" stroke="black" stroke-width="0.2"/>
<path d="M353.27 226.15L353.5 226.31 353.27 216.22 353.27 226.15Z" fill="black" stroke="black" stroke-width="0.2"/>
<path d="M353.5 226.31L353.5 216.24 353.27 216.22 353.5 226.31Z" fill="black" stroke="black" stroke-width="0.2"/>
<path d="M353.5 386.11L353.52 386.11 353.5 376.04 353.5 386.11Z" fill="black" stroke="black" stroke-width="0.2"/>
<path d="M353.52 386.11L353.52 376.03 353.5 376.04 353.52 386.11Z" fill="black" stroke="black" stroke-width="0.2"/>
<path d="M353.5 226.31L353.52 226.32 353.5 216.24 353.5 226.31Z" fill="black" stroke="black" stroke-width="0.2"/>
<path d="M353.52 226.32L353.52 216.24 353.5 216.24 353.52 226.32Z" fill="black" stroke="black" stroke-width="0.2"/>
<path d="M353.52 386.11L353.71 386.08 353.52 376.03 353.52 386.11Z" fill="black" stroke="black" stroke-width="0.2"/>
<path d="M353.71 386.08L353.71 375.85 353.52 376.03 353.71 386.08Z" fill="black" stroke="black" stroke-width="0.2"/>
<path d="M353.52 226.32L353.71 226.49 353.52 216.24 353.52 226.32Z" fill="black" stroke="black" stroke-width="0.2"/>
<path d="M353.71 226.49L353.71 216.27 353.52 216.24 353.71 226.49Z" fill="black" stroke="black" stroke-width="0.2"/>
<path d="M353.71 386.08L354.18 386.02 353.71 375.85 353.71 386.08Z" fill="black" stroke="black" stroke-width="0.2"/>
<path d="M354.18 386.02L354.18 375.39 353.71 375.85 354.18 386.02Z" fill="black" stroke="black" stroke-width="0.2"/>
<path d="M353.71 226.49L354.18 226.96 353.71 216.27 353.71 226.49Z" fill="black" stroke="black" stroke-width="0.2"/>
<path d="M354.18 226.96L354.18 216.33 353.71 216.27 354.18 226.96Z" fill="black" stroke="black" stroke-width="0.2"/>
<path d="M354.18 386.02L354.83 385.89 354.18 375.39 354.18 386.02Z" fill="black" stroke="black" stroke-width="0.2"/>
<path d="M354.83 385.89L354.83 374.74 354.18 375.39 354.83 385.89Z" fill="black" stroke="black" stroke-width="0.2"/>
<path d="M354.18 226.96L354.83 227.61 354.18 216.33 354.18 226.96Z" fill="black" stroke="black" stroke-width="0.2"/>
<path d="M354.83 227.61L354.83 216.46 354.18 216.33 354.83 227.61Z" fill="black" stroke="black" stroke-width="0.2"/>
<path d="M354.83 385.89L355.47 385.72 354.83 374.74 354.83 385.89Z" fill="black" stroke="black" stroke-width="0.2"/>
<path d="M355.47 385.72L355.47 374.1 354.83 374.74 355.47 385.72Z" fill="black" stroke="black" stroke-width="0.2"/>
<path d="M354.83 227.61L355.47 228.25 354.83 216.46 354.83 227.61Z" fill="black" stroke="black" stroke-width="0.2"/>
<path d="M355.47 228.25L355.47 216.63 354.83 216.46 355.47 228.25Z" fill="black" stroke="black" stroke-width="0.2"/>
<path d="M355.47 385.72L356.11 385.52 355.47 374.1 355.47 385.72Z" fill="black" stroke="black" stroke-width="0.2"/>
<path d="M356.11 385.52L356.11 373.46 355.47 374.1 356.11 385.52Z" fill="black" stroke="black" stroke-width="0.2"/>
<path d="M355.47 228.25L356.11 228.89 355.47 216.63 355.47 228.25Z" fill="black" stroke="black" stroke-width="0.2"/>
<path d="M356.11 228.89L356.11 216.83 355.47 216.63 356.11 228.89Z" fill="black" stroke="black" stroke-width="0.2"/>
<path d="M356.11 385.52L356.73 385.28 356.11 373.46 356.11 385.52Z" fill="black" stroke="black" stroke-width="0.2"/>
<path d="M356.73 385.28L356.73 372.84 356.11 373.46 356.73 385.28Z" fill="black" stroke="black" stroke-width="0.2"/>
<path d="M356.11 228.89L356.73 229.51 356.11 216.83 356.11 228.89Z" fill="black" stroke="black" stroke-width="0.2"/>
<path d="M356.73 229.51L356.73 217.07 356.11 216.83 356.73 229.51Z" fill="black" stroke="black" stroke-width="0.2"/>
<path d="M356.73 385.28L357.33 385.01 356.73 372.84 356.73 385.28Z" fill="black" stroke="black" stroke-width="0.2"/>
<path d="M357.33 385.01L357.33 372.24 356.73 372.84 357.33 385.01Z" fill="black" stroke="black" stroke-width="0.2"/>
<path d="M356.73 229.51L357.33 230.11 356.73 217.07 356.73 229.51Z" fill="black" stroke="black" stroke-width="0.2"/>
<path d="M357.33 230.11L357.33 217.34 356.73 217.07 357.33 230.11Z" fill="black" stroke="black" stroke-width="0.2"/>
<path d="M357.33 385.01L357.93 384.71 357.33 372.24 357.33 385.01Z" fill="black" stroke="black" stroke-width="0.2"/>
<path d="M357.93 384.71L357.93 371.64 357.33 372.24 357.93 384.71Z" fill="black" stroke="black" stroke-width="0.2"/>
<path d="M357.33 230.11L357.93 230.7 357.33 217.34 357.33 230.11Z" fill="black" stroke="black" stroke-width="0.2"/>
<path d="M357.93 230.7L357.93 217.64 357.33 217.34 357.93 230.7Z" fill="black" stroke="black" stroke-width="0.2"/>
<path d="M357.93 384.71L358.5 384.37 357.93 371.64 357.93 384.71Z" fill="black" stroke="black" stroke-width="0.2"/>
<path d="M358.5 384.37L358.5 371.07 357.93 371.64 358.5 384.37Z" fill="black" stroke="black" stroke-width="0.2"/>
<path d="M357.93 230.7L358.5 231.28 357.93 217.64 357.93 230.7Z" fill="black" stroke="black" stroke-width="0.2"/>
<path d="M358.5 231.28L358.5 217.98 357.93 217.64 358.5 231.28Z" fill="black" stroke="black" stroke-width="0.2"/>
<path d="M358.5 384.37L359.05 384 358.5 371.07 358.5 384.37Z" fill="black" stroke="black" stroke-width="0.2"/>
<path d="M359.05 384L359.05 370.52 358.5 371.07 359.05 384Z" fill="black" stroke="black" stroke-width="0.2"/>
<path d="M358.5 231.28L359.05 231.83 358.5 217.98 358.5 231.28Z" fill="black" stroke="black" stroke-width="0.2"/>
<path d="M359.05 231.83L359.05 218.35 358.5 217.98 359.05 231.83Z" fill="black" stroke="black" stroke-width="0.2"/>
<path d="M359.05 384L359.58 383.6 359.05 370.52 359.05 384Z" fill="black" stroke="black" stroke-width="0.2"/>
<path d="M359.58 383.6L359.58 369.99 359.05 370.52 359.58 383.6Z" fill="black" stroke="black" stroke-width="0.2"/>
<path d="M359.05 231.83L359.58 232.36 359.05 218.35 359.05 231.83Z" fill="black" stroke="black" stroke-width="0.2"/>
<path d="M359.58 232.36L359.58 218.75 359.05 218.35 359.58 232.36Z" fill="black" stroke="black" stroke-width="0.2"/>
<path d="M359.58 383.6L360.09 383.17 359.58 369.99 359.58 383.6Z" fill="black" stroke="black" stroke-width="0.2"/>
<path d="M360.09 383.17L360.09 369.48 359.58 369.99 360.09 383.17Z" fill="black" stroke="black" stroke-width="0.2"/>
<path d="M359.58 232.36L360.09 232.87 359.58 218.75 359.58 232.36Z" fill="black" stroke="black" stroke-width="0.2"/>
<path d="M360.09 232.87L360.09 219.18 359.58 218.75 360.09 232.87Z" fill="black" stroke="black" stroke-width="0.2"/>
<path d="M360.09 383.17L360.57 382.71 360.09 369.48 360.09 383.17Z" fill="black" stroke="black" stroke-width="0.2"/>
<path d="M360.57 382.71L360.57 369 360.09 369.48 360.57 382.71Z" fill="black" stroke="black" stroke-width="0.2"/>
<path d="M360.09 232.87L360.57 233.35 360.09 219.18 360.09 232.87Z" fill="black" stroke="black" stroke-width="0.2"/>
<path d="M360.57 233.35L360.57 219.64 360.09 219.18 360.57 233.35Z" fill="black" stroke="black" stroke-width="0.2"/>
<path d="M360.57 382.71L426.87 316.42 360.57 369 360.57 382.71Z" fill="black" stroke="black" stroke-width="0.2"/>
<path d="M426.87 316.42L426.87 302.7 360.57 369 426.87 316.42Z" fill="black" stroke="black" stroke-width="0.2"/>
<path d="M360.57 233.35L426.87 299.65 360.57 219.64 360.57 233.35Z" fill="black" stroke="black" stroke-width="0.2"/>
<path d="M426.87 299.65L426.87 285.93 360.57 219.64 426.87 299.65Z" fill="black" stroke="black" stroke-width="0.2"/>
<path d="M426.87 316.42L427.06 316.23 426.87 302.7 426.87 316.42Z" fill="black" stroke="black" stroke-width="0.2"/>
<path d="M427.06 316.23L427.06 302.49 426.87 302.7 427.06 316.23Z" fill="black" stroke="black" stroke-width="0.2"/>
<path d="M426.87 299.65L427.06 299.86 426.87 285.93 426.87 299.65Z" fill="black" stroke="black" stroke-width="0.2"/>
<path d="M427.06 299.86L427.06 286.12 426.87 285.93 427.06 299.86Z" fill="black" stroke="black" stroke-width="0.2"/>
<path d="M427.06 316.23L427.21 316.07 427.06 302.49 427.06 316.23Z" fill="black" stroke="black" stroke-width="0.2"/>
<path d="M427.21 316.07L427.21 302.25 427.06 302.49 427.21 316.07Z" fill="black" stroke="black" stroke-width="0.2"/>
<path d="M427.06 299.86L427.21 300.1 427.06 286.12 427.06 299.86Z" fill="black" stroke="black" stroke-width="0.2"/>
<path d="M427.21 300.1L427.21 286.28 427.06 286.12 427.21 300.1Z" fill="black" stroke="black" stroke-width="0.2"/>
<path d="M427.21 316.07L427.34 315.95 427.21 302.25 427.21 316.07Z" fill="black" stroke="black" stroke-width="0.2"/>
<path d="M427.34 315.95L427.34 302 427.21 302.25 427.34 315.95Z" fill="black" stroke="black" stroke-width="0.2"/>
<path d="M427.21 300.1L427.34 300.35 427.21 286.28 427.21 300.1Z" fill="black" stroke="black" stroke-width="0.2"/>
<path d="M427.34 300.35L427.34 286.4 427.21 286.28 427.34 300.35Z" fill="black" stroke="black" stroke-width="0.2"/>
<path d="M427.34 315.95L427.43 315.86 427.34 302 427.34 315.95Z" fill="black" stroke="black" stroke-width="0.2"/>
<path d="M427.43 315.86L427.43 301.73 427.34 302 427.43 315.86Z" fill="black" stroke="black" stroke-width="0.2"/>
<path d="M427.34 300.35L427.43 300.62 427.34 286.4 427.34 300.35Z" fill="black" stroke="black" stroke-width="0.2"/>
<path d="M427.43 300.62L427.43 286.49 427.34 286.4 427.43 300.62Z" fill="black" stroke="black" stroke-width="0.2"/>
<path d="M427.43 315.86L427.48 315.8 427.43 301.73 427.43 315.86Z" fill="black" stroke="black" stroke-width="0.2"/>
<path d="M427.48 315.8L427.48 301.46 427.43 301.73 427.48 315.8Z" fill="black" stroke="black" stroke-width="0.2"/>
<path d="M427.43 300.62L427.48 300.89 427.43 286.49 427.43 300.62Z" fill="black" stroke="black" stroke-width="0.2"/>
<path d="M427.48 300.89L427.48 286.55 427.43 286.49 427.48 300.89Z" fill="black" stroke="black" stroke-width="0.2"/>
<path d="M427.48 315.8L427.5 315.78 427.48 301.46 427.48 315.8Z" fill="black" stroke="black" stroke-width="0.2"/>
<path d="M427.5 315.78L427.5 301.17 427.48 301.46 427.5 315.78Z" fill="black" stroke="black" stroke-width="0.2"/>
<path d="M427.48 300.89L427.5 301.17 427.48 286.55 427.48 300.89Z" fill="black" stroke="black" stroke-width="0.2"/>
<path d="M427.5 301.17L427.5 286.56 427.48 286.55 427.5 301.17Z" fill="black" stroke="black" stroke-width="0.2"/>
<path d="M427.5 315.78L433.73 309.56 427.5 286.56 427.5 315.78Z" fill="black" stroke="black" stroke-width="0.2"/>
<path d="M433.73 309.56L433.73 292.79 427.5 286.56 433.73 309.56Z" fill="black" stroke="black" stroke-width="0.2"/>
<path d="M433.73 309.56L434.19 309.07 433.73 292.79 433.73 309.56Z" fill="black" stroke="black" stroke-width="0.2"/>
<path d="M434.19 309.07L434.19 293.28 433.73 292.79 434.19 309.07Z" fill="black" stroke="black" stroke-width="0.2"/>
<path d="M434.19 309.07L434.62 308.57 434.19 293.28 434.19 309.07Z" fill="black" stroke="black" stroke-width="0.2"/>
<path d="M434.62 308.57L434.62 293.78 434.19 293.28 434.62 308.57Z" fill="black" stroke="black" stroke-width="0.2"/>
<path d="M434.62 308.57L435.02 308.03 434.62 293.78 434.62 308.57Z" fill="black" stroke="black" stroke-width="0.2"/>
<path d="M435.02 308.03L435.02 294.31 434.62 293.78 435.02 308.03Z" fill="black" stroke="black" stroke-width="0.2"/>
<path d="M435.02 308.03L435.38 307.48 435.02 294.31 435.02 308.03Z" fill="black" stroke="black" stroke-width="0.2"/>
<path d="M435.38 307.48L435.38 294.87 435.02 294.31 435.38 307.48Z" fill="black" stroke="black" stroke-width="0.2"/>
<path d="M435.38 307.48L435.72 306.91 435.38 294.87 435.38 307.48Z" fill="black" stroke="black" stroke-width="0.2"/>
<path d="M435.72 306.91L435.72 295.44 435.38 294.87 435.72 306.91Z" fill="black" stroke="black" stroke-width="0.2"/>
<path d="M435.72 306.91L436.03 306.32 435.72 295.44 435.72 306.91Z" fill="black" stroke="black" stroke-width="0.2"/>
<path d="M436.03 306.32L436.03 296.03 435.72 295.44 436.03 306.32Z" fill="black" stroke="black" stroke-width="0.2"/>
<path d="M436.03 306.32L436.3 305.71 436.03 296.03 436.03 306.32Z" fill="black" stroke="black" stroke-width="0.2"/>
<path d="M436.3 305.71L436.3 296.64 436.03 296.03 436.3 305.71Z" fill="black" stroke="black" stroke-width="0.2"/>
<path d="M436.3 305.71L436.54 305.09 436.3 296.64 436.3 305.71Z" fill="black" stroke="black" stroke-width="0.2"/>
<path d="M436.54 305.09L436.54 297.26 436.3 296.64 436.54 305.09Z" fill="black" stroke="black" stroke-width="0.2"/>
<path d="M436.54 305.09L436.74 304.46 436.54 297.26 436.54 305.09Z" fill="black" stroke="black" stroke-width="0.2"/>
<path d="M436.74 304.46L436.74 297.89 436.54 297.26 436.74 304.46Z" fill="black" stroke="black" stroke-width="0.2"/>
<path d="M436.74 304.46L436.9 303.81 436.74 297.89 436.74 304.46Z" fill="black" stroke="black" stroke-width="0.2"/>
<path d="M436.9 303.81L436.9 298.54 436.74 297.89 436.9 303.81Z" fill="black" stroke="black" stroke-width="0.2"/>
<path d="M436.9 303.81L437.03 303.16 436.9 298.54 436.9 303.81Z" fill="black" stroke="black" stroke-width="0.2"/>
<path d="M437.03 303.16L437.03 299.19 436.9 298.54 437.03 303.16Z" fill="black" stroke="black" stroke-width="0.2"/>
<path d="M437.03 303.16L437.13 302.5 437.03 299.19 437.03 303.16Z" fill="black" stroke="black" stroke-width="0.2"/>
<path d="M437.13 302.5L437.13 299.85 437.03 299.19 437.13 302.5Z" fill="black" stroke="black" stroke-width="0.2"/>
<path d="M437.13 302.5L437.18 301.84 437.13 299.85 437.13 302.5Z" fill="black" stroke="black" stroke-width="0.2"/>
<path d="M437.18 301.84L437.18 300.51 437.13 299.85 437.18 301.84Z" fill="black" stroke="black" stroke-width="0.2"/>
<path d="M437.18 301.84L437.2 301.17 437.18 300.51 437.18 301.84Z" fill="black" stroke="black" stroke-width="0.2"/>
<path d="M277.51 299.65L350.67 226.49" fill="none" stroke="black" stroke-width="0.5"/>
<path d="M353.71 226.49L426.87 299.65" fill="none" stroke="black" stroke-width="0.5"/>
<path d="M426.87 302.7L353.71 375.85" fill="none" stroke="black" stroke-width="0.5"/>
<path d="M350.67 375.85L277.51 302.7" fill="none" stroke="black" stroke-width="0.5"/>
<path d="M270.65 292.79L343.81 219.64" fill="none" stroke="black" stroke-width="0.5"/>
<path d="M433.73 292.79L360.57 219.64" fill="none" stroke="black" stroke-width="0.5"/>
<path d="M360.57 382.71L433.73 309.56" fill="none" stroke="black" stroke-width="0.5"/>
<path d="M343.81 382.71L270.65 309.56" fill="none" stroke="black" stroke-width="0.5"/>
<path d="M 350.67 375.85 A 2.155 2.155 0 0 0 353.71 375.85" fill="none" stroke="black" stroke-width="0.5"/>
<path d="M 343.81 382.71 A 11.855 11.855 0 0 0 360.57 382.71" fill="none" stroke="black" stroke-width="0.5"/>
<path d="M 277.51 299.65 A 2.155 2.155 0 0 0 277.51 302.7" fill="none" stroke="black" stroke-width="0.5"/>
<path d="M 270.65 292.79 A 11.855 11.855 0 0 0 270.65 309.56" fill="none" stroke="black" stroke-width="0.5"/>
<path d="M 353.71 226.49 A 2.155 2.155 0 0 0 350.67 226.49" fill="none" stroke="black" stroke-width="0.5"/>
<path d="M 360.57 219.64 A 11.855 11.855 0 0 0 343.81 219.64" fill="none" stroke="black" stroke-width="0.5"/>
<path d="M 426.87 302.7 A 2.155 2.155 0 0 0 426.87 299.65" fill="none" stroke="black" stroke-width="0.5"/>
<path d="M 433.73 309.56 A 11.855 11.855 0 0 0 433.73 292.79" fill="none" stroke="black" stroke-width="0.5"/>
</svg>