<?xml version="1.0" encoding="UTF-8"?>
<svg xmlns="http://www.w3.org/2000/svg" width="800.000" height="600.000" viewBox="0.0 0.0 800.000 600.000" version="1.1">
  <desc>Produce by Acme CAD Converter</desc>
<path d="M255.24 158.98L255.24 157.49 255.22 158.23 255.24 158.98Z"
fill="black" stroke="black" stroke-width="0.2"/>
<path d="M255.24 158.98L255.3 159.73 255.24 157.49 255.24 158.98Z"
fill="black" stroke="black" stroke-width="0.2"/>
<path d="M255.3 159.73L255.3 156.74 255.24 157.49 255.3 159.73Z"
fill="black" stroke="black" stroke-width="0.2"/>
<path d="M255.3 159.73L255.39 160.47 255.3 156.74 255.3 159.73Z"
fill="black" stroke="black" stroke-width="0.2"/>
<path d="M255.39 160.47L255.39 156 255.3 156.74 255.39 160.47Z"
fill="black" stroke="black" stroke-width="0.2"/>
<path d="M255.39 160.47L255.53 161.21 255.39 156 255.39 160.47Z"
fill="black" stroke="black" stroke-width="0.2"/>
<path d="M255.53 161.21L255.53 155.26 255.39 156 255.53 161.21Z"
fill="black" stroke="black" stroke-width="0.2"/>
<path d="M255.53 161.21L255.7 161.93 255.53 155.26 255.53 161.21Z"
fill="black" stroke="black" stroke-width="0.2"/>
<path d="M255.7 161.93L255.7 154.54 255.53 155.26 255.7 161.93Z"
fill="black" stroke="black" stroke-width="0.2"/>
<path d="M255.7 161.93L255.92 162.72 255.7 154.54 255.7 161.93Z"
fill="black" stroke="black" stroke-width="0.2"/>
<path d="M255.92 162.72L255.92 153.82 255.7 154.54 255.92 162.72Z"
fill="black" stroke="black" stroke-width="0.2"/>
<path d="M255.92 162.72L256.17 163.66 255.92 153.82 255.92 162.72Z"
fill="black" stroke="black" stroke-width="0.2"/>
<path d="M256.17 163.66L256.17 153.12 255.92 153.82 256.17 163.66Z"
fill="black" stroke="black" stroke-width="0.2"/>
<path d="M256.17 163.66L256.45 164.72 256.17 153.12 256.17 163.66Z"
fill="black" stroke="black" stroke-width="0.2"/>
<path d="M256.45 164.72L256.45 152.42 256.17 153.12 256.45 164.72Z"
fill="black" stroke="black" stroke-width="0.2"/>
<path d="M256.45 164.72L256.77 165.93 256.45 152.42 256.45 164.72Z"
fill="black" stroke="black" stroke-width="0.2"/>
<path d="M256.77 165.93L256.77 151.75 256.45 152.42 256.77 165.93Z"
fill="black" stroke="black" stroke-width="0.2"/>
<path d="M256.77 165.93L257.13 167.26 256.77 151.75 256.77 165.93Z"
fill="black" stroke="black" stroke-width="0.2"/>
<path d="M257.13 167.26L257.13 151.09 256.77 151.75 257.13 167.26Z"
fill="black" stroke="black" stroke-width="0.2"/>
<path d="M257.13 167.26L257.52 168.72 257.13 151.09 257.13 167.26Z"
fill="black" stroke="black" stroke-width="0.2"/>
<path d="M257.52 168.72L257.52 150.45 257.13 151.09 257.52 168.72Z"
fill="black" stroke="black" stroke-width="0.2"/>
<path d="M257.52 168.72L257.95 170.3 257.52 150.45 257.52 168.72Z"
fill="black" stroke="black" stroke-width="0.2"/>
<path d="M257.95 170.3L257.95 149.84 257.52 150.45 257.95 170.3Z"
fill="black" stroke="black" stroke-width="0.2"/>
<path d="M257.95 170.3L258.4 172 257.95 149.84 257.95 170.3Z"
fill="black" stroke="black" stroke-width="0.2"/>
<path d="M258.4 172L258.4 149.24 257.95 149.84 258.4 172Z"
fill="black" stroke="black" stroke-width="0.2"/>
<path d="M258.4 172L258.89 173.81 258.4 149.24 258.4 172Z"
fill="black" stroke="black" stroke-width="0.2"/>
<path d="M258.89 173.81L258.89 148.68 258.4 149.24 258.89 173.81Z"
fill="black" stroke="black" stroke-width="0.2"/>
<path d="M258.89 173.81L259.4 175.73 258.89 148.68 258.89 173.81Z"
fill="black" stroke="black" stroke-width="0.2"/>
<path d="M259.4 175.73L259.4 148.13 258.89 148.68 259.4 175.73Z"
fill="black" stroke="black" stroke-width="0.2"/>
<path d="M259.4 175.73L259.94 177.76 259.4 148.13 259.4 175.73Z"
fill="black" stroke="black" stroke-width="0.2"/>
<path d="M259.94 177.76L259.94 147.62 259.4 148.13 259.94 177.76Z"
fill="black" stroke="black" stroke-width="0.2"/>
<path d="M259.94 177.76L260.51 179.88 259.94 147.62 259.94 177.76Z"
fill="black" stroke="black" stroke-width="0.2"/>
<path d="M260.51 179.88L260.51 147.13 259.94 147.62 260.51 179.88Z"
fill="black" stroke="black" stroke-width="0.2"/>
<path d="M260.51 179.88L261.11 182.09 260.51 147.13 260.51 179.88Z"
fill="black" stroke="black" stroke-width="0.2"/>
<path d="M261.11 182.09L261.11 146.68 260.51 147.13 261.11 182.09Z"
fill="black" stroke="black" stroke-width="0.2"/>
<path d="M261.11 182.09L261.72 184.39 261.11 146.68 261.11 182.09Z"
fill="black" stroke="black" stroke-width="0.2"/>
<path d="M261.72 184.39L261.72 146.25 261.11 146.68 261.72 184.39Z"
fill="black" stroke="black" stroke-width="0.2"/>
<path d="M261.72 184.39L262.36 186.77 261.72 146.25 261.72 184.39Z"
fill="black" stroke="black" stroke-width="0.2"/>
<path d="M262.36 186.77L262.36 145.86 261.72 146.25 262.36 186.77Z"
fill="black" stroke="black" stroke-width="0.2"/>
<path d="M262.36 186.77L263.02 189.23 262.36 145.86 262.36 186.77Z"
fill="black" stroke="black" stroke-width="0.2"/>
<path d="M263.02 189.23L263.02 145.51 262.36 145.86 263.02 189.23Z"
fill="black" stroke="black" stroke-width="0.2"/>
<path d="M263.02 189.23L263.69 191.74 263.02 145.51 263.02 189.23Z"
fill="black" stroke="black" stroke-width="0.2"/>
<path d="M263.69 191.74L263.69 145.18 263.02 145.51 263.69 191.74Z"
fill="black" stroke="black" stroke-width="0.2"/>
<path d="M263.69 191.74L264.38 194.32 263.69 145.18 263.69 191.74Z"
fill="black" stroke="black" stroke-width="0.2"/>
<path d="M264.38 194.32L264.38 144.9 263.69 145.18 264.38 194.32Z"
fill="black" stroke="black" stroke-width="0.2"/>
<path d="M264.38 194.32L265.09 196.95 264.38 144.9 264.38 194.32Z"
fill="black" stroke="black" stroke-width="0.2"/>
<path d="M265.09 196.95L265.09 144.65 264.38 144.9 265.09 196.95Z"
fill="black" stroke="black" stroke-width="0.2"/>
<path d="M265.09 196.95L265.81 199.63 265.09 144.65 265.09 196.95Z"
fill="black" stroke="black" stroke-width="0.2"/>
<path d="M265.81 199.63L265.81 144.44 265.09 144.65 265.81 199.63Z"
fill="black" stroke="black" stroke-width="0.2"/>
<path d="M265.81 199.63L266.31 201.5 265.81 144.44 265.81 199.63Z"
fill="black" stroke="black" stroke-width="0.2"/>
<path d="M266.31 201.5L266.31 144.32 265.81 144.44 266.31 201.5Z"
fill="black" stroke="black" stroke-width="0.2"/>
<path d="M266.31 158.37L266.31 158.01 266.31 144.32 266.31 158.37Z"
fill="black" stroke="black" stroke-width="0.2"/>
<path d="M266.31 158.01L266.31 144.32 266.31 144.32 266.31 158.01Z"
fill="black" stroke="black" stroke-width="0.2"/>
<path d="M266.31 201.5L266.34 201.62 266.31 158.37 266.31 201.5Z"
fill="black" stroke="black" stroke-width="0.2"/>
<path d="M266.34 201.62L266.34 158.72 266.31 158.37 266.34 201.62Z"
fill="black" stroke="black" stroke-width="0.2"/>
<path d="M266.31 158.01L266.35 157.66 266.31 144.32 266.31 158.01Z"
fill="black" stroke="black" stroke-width="0.2"/>
<path d="M266.35 157.66L266.35 144.3 266.31 144.32 266.35 157.66Z"
fill="black" stroke="black" stroke-width="0.2"/>
<path d="M266.34 201.62L266.41 201.89 266.34 158.72 266.34 201.62Z"
fill="black" stroke="black" stroke-width="0.2"/>
<path d="M266.41 201.89L266.41 159.06 266.34 158.72 266.41 201.89Z"
fill="black" stroke="black" stroke-width="0.2"/>
<path d="M266.35 157.66L266.44 157.32 266.35 144.3 266.35 157.66Z"
fill="black" stroke="black" stroke-width="0.2"/>
<path d="M266.44 157.32L266.44 144.29 266.35 144.3 266.44 157.32Z"
fill="black" stroke="black" stroke-width="0.2"/>
<path d="M266.44 157.32L266.53 157.05 266.44 144.29 266.44 157.32Z"
fill="black" stroke="black" stroke-width="0.2"/>
<path d="M266.53 157.05L266.53 144.26 266.44 144.29 266.53 157.05Z"
fill="black" stroke="black" stroke-width="0.2"/>
<path d="M266.53 157.05L266.56 156.99 266.53 144.26 266.53 157.05Z"
fill="black" stroke="black" stroke-width="0.2"/>
<path d="M266.56 156.99L266.56 144.26 266.53 144.26 266.56 156.99Z"
fill="black" stroke="black" stroke-width="0.2"/>
<path d="M266.56 156.99L266.71 156.67 266.56 144.26 266.56 156.99Z"
fill="black" stroke="black" stroke-width="0.2"/>
<path d="M266.71 156.67L266.71 144.23 266.56 144.26 266.71 156.67Z"
fill="black" stroke="black" stroke-width="0.2"/>
<path d="M266.71 156.67L266.9 156.38 266.71 144.23 266.71 156.67Z"
fill="black" stroke="black" stroke-width="0.2"/>
<path d="M266.9 156.38L266.9 144.19 266.71 144.23 266.9 156.38Z"
fill="black" stroke="black" stroke-width="0.2"/>
<path d="M266.9 156.38L267.12 156.1 266.9 144.19 266.9 156.38Z"
fill="black" stroke="black" stroke-width="0.2"/>
<path d="M267.12 156.1L267.12 144.15 266.9 144.19 267.12 156.1Z"
fill="black" stroke="black" stroke-width="0.2"/>
<path d="M267.12 156.1L267.27 155.95 267.12 144.15 267.12 156.1Z"
fill="black" stroke="black" stroke-width="0.2"/>
<path d="M267.27 155.95L267.27 144.13 267.12 144.15 267.27 155.95Z"
fill="black" stroke="black" stroke-width="0.2"/>
<path d="M267.27 155.95L267.37 155.85 267.27 144.13 267.27 155.95Z"
fill="black" stroke="black" stroke-width="0.2"/>
<path d="M267.37 155.85L267.37 144.11 267.27 144.13 267.37 155.85Z"
fill="black" stroke="black" stroke-width="0.2"/>
<path d="M267.37 155.85L267.64 155.63 267.37 144.11 267.37 155.85Z"
fill="black" stroke="black" stroke-width="0.2"/>
<path d="M267.64 155.63L267.64 144.08 267.37 144.11 267.64 155.63Z"
fill="black" stroke="black" stroke-width="0.2"/>
<path d="M267.64 155.63L267.94 155.44 267.64 144.08 267.64 155.63Z"
fill="black" stroke="black" stroke-width="0.2"/>
<path d="M267.94 155.44L267.94 144.04 267.64 144.08 267.94 155.44Z"
fill="black" stroke="black" stroke-width="0.2"/>
<path d="M267.94 155.44L268.01 155.41 267.94 144.04 267.94 155.44Z"
fill="black" stroke="black" stroke-width="0.2"/>
<path d="M268.01 155.41L268.01 144.03 267.94 144.04 268.01 155.41Z"
fill="black" stroke="black" stroke-width="0.2"/>
<path d="M268.01 155.41L268.26 155.29 268.01 144.03 268.01 155.41Z"
fill="black" stroke="black" stroke-width="0.2"/>
<path d="M268.26 155.29L268.26 144.01 268.01 144.03 268.26 155.29Z"
fill="black" stroke="black" stroke-width="0.2"/>
<path d="M268.26 155.29L268.59 155.17 268.26 144.01 268.26 155.29Z"
fill="black" stroke="black" stroke-width="0.2"/>
<path d="M268.59 155.17L268.59 143.98 268.26 144.01 268.59 155.17Z"
fill="black" stroke="black" stroke-width="0.2"/>
<path d="M268.59 155.17L268.76 155.13 268.59 143.98 268.59 155.17Z"
fill="black" stroke="black" stroke-width="0.2"/>
<path d="M268.76 155.13L268.76 143.97 268.59 143.98 268.76 155.13Z"
fill="black" stroke="black" stroke-width="0.2"/>
<path d="M268.76 155.13L268.93 155.09 268.76 143.97 268.76 155.13Z"
fill="black" stroke="black" stroke-width="0.2"/>
<path d="M268.93 155.09L268.93 143.96 268.76 143.97 268.93 155.09Z"
fill="black" stroke="black" stroke-width="0.2"/>
<path d="M268.93 155.09L269.28 155.04 268.93 143.96 268.93 155.09Z"
fill="black" stroke="black" stroke-width="0.2"/>
<path d="M269.28 155.04L269.28 143.96 268.93 143.96 269.28 155.04Z"
fill="black" stroke="black" stroke-width="0.2"/>
<path d="M269.28 155.04L269.5 155.04 269.28 143.96 269.28 155.04Z"
fill="black" stroke="black" stroke-width="0.2"/>
<path d="M269.5 155.04L269.5 143.95 269.28 143.96 269.5 155.04Z"
fill="black" stroke="black" stroke-width="0.2"/>
<path d="M269.5 155.04L269.64 155.04 269.5 143.95 269.5 155.04Z"
fill="black" stroke="black" stroke-width="0.2"/>
<path d="M269.64 155.04L269.64 143.95 269.5 143.95 269.64 155.04Z"
fill="black" stroke="black" stroke-width="0.2"/>
<path d="M269.64 155.04L269.99 155.07 269.64 143.95 269.64 155.04Z"
fill="black" stroke="black" stroke-width="0.2"/>
<path d="M269.99 155.07L269.99 143.96 269.64 143.95 269.99 155.07Z"
fill="black" stroke="black" stroke-width="0.2"/>
<path d="M269.99 155.07L270.25 155.13 269.99 143.96 269.99 155.07Z"
fill="black" stroke="black" stroke-width="0.2"/>
<path d="M270.25 155.13L270.25 143.97 269.99 143.96 270.25 155.13Z"
fill="black" stroke="black" stroke-width="0.2"/>
<path d="M270.25 155.13L270.33 155.14 270.25 143.97 270.25 155.13Z"
fill="black" stroke="black" stroke-width="0.2"/>
<path d="M270.33 155.14L270.33 143.98 270.25 143.97 270.33 155.14Z"
fill="black" stroke="black" stroke-width="0.2"/>
<path d="M270.33 155.14L271 155.32 270.33 143.98 270.33 155.14Z"
fill="black" stroke="black" stroke-width="0.2"/>
<path d="M271 155.32L271 144.03 270.33 143.98 271 155.32Z"
fill="black" stroke="black" stroke-width="0.2"/>
<path d="M271 155.32L271.74 155.52 271 144.03 271 155.32Z"
fill="black" stroke="black" stroke-width="0.2"/>
<path d="M271.74 155.52L271.74 144.13 271 144.03 271.74 155.52Z"
fill="black" stroke="black" stroke-width="0.2"/>
<path d="M271.74 155.52L272.47 155.72 271.74 144.13 271.74 155.52Z"
fill="black" stroke="black" stroke-width="0.2"/>
<path d="M272.47 155.72L272.47 144.26 271.74 144.13 272.47 155.72Z"
fill="black" stroke="black" stroke-width="0.2"/>
<path d="M272.47 155.72L273.2 155.91 272.47 144.26 272.47 155.72Z"
fill="black" stroke="black" stroke-width="0.2"/>
<path d="M273.2 155.91L273.2 144.44 272.47 144.26 273.2 155.91Z"
fill="black" stroke="black" stroke-width="0.2"/>
<path d="M266.41 201.89L324.56 418.91 266.41 159.06 266.41 201.89Z"
fill="black" stroke="black" stroke-width="0.2"/>
<path d="M324.56 418.91L324.56 376.08 266.41 159.06 324.56 418.91Z"
fill="black" stroke="black" stroke-width="0.2"/>
<path d="M324.56 418.91L324.77 419.63 324.56 376.08 324.56 418.91Z"
fill="black" stroke="black" stroke-width="0.2"/>
<path d="M324.77 419.63L324.77 376.88 324.56 376.08 324.77 419.63Z"
fill="black" stroke="black" stroke-width="0.2"/>
<path d="M324.77 419.63L325.02 420.33 324.77 376.88 324.77 419.63Z"
fill="black" stroke="black" stroke-width="0.2"/>
<path d="M325.02 420.33L325.02 377.81 324.77 376.88 325.02 420.33Z"
fill="black" stroke="black" stroke-width="0.2"/>
<path d="M325.02 420.33L325.31 421.03 325.02 377.81 325.02 420.33Z"
fill="black" stroke="black" stroke-width="0.2"/>
<path d="M325.31 421.03L325.31 378.87 325.02 377.81 325.31 421.03Z"
fill="black" stroke="black" stroke-width="0.2"/>
<path d="M325.31 421.03L325.63 421.7 325.31 378.87 325.31 421.03Z"
fill="black" stroke="black" stroke-width="0.2"/>
<path d="M325.63 421.7L325.63 380.08 325.31 378.87 325.63 421.7Z"
fill="black" stroke="black" stroke-width="0.2"/>
<path d="M325.63 421.7L325.99 422.36 325.63 380.08 325.63 421.7Z"
fill="black" stroke="black" stroke-width="0.2"/>
<path d="M325.99 422.36L325.99 381.41 325.63 380.08 325.99 422.36Z"
fill="black" stroke="black" stroke-width="0.2"/>
<path d="M325.99 422.36L326.38 423 325.99 381.41 325.99 422.36Z"
fill="black" stroke="black" stroke-width="0.2"/>
<path d="M326.38 423L326.38 382.87 325.99 381.41 326.38 423Z"
fill="black" stroke="black" stroke-width="0.2"/>
<path d="M326.38 423L326.8 423.61 326.38 382.87 326.38 423Z"
fill="black" stroke="black" stroke-width="0.2"/>
<path d="M326.8 423.61L326.8 384.45 326.38 382.87 326.8 423.61Z"
fill="black" stroke="black" stroke-width="0.2"/>
<path d="M326.8 423.61L327.26 424.21 326.8 384.45 326.8 423.61Z"
fill="black" stroke="black" stroke-width="0.2"/>
<path d="M327.26 424.21L327.26 386.15 326.8 384.45 327.26 424.21Z"
fill="black" stroke="black" stroke-width="0.2"/>
<path d="M327.26 424.21L327.74 424.77 327.26 386.15 327.26 424.21Z"
fill="black" stroke="black" stroke-width="0.2"/>
<path d="M327.74 424.77L327.74 387.96 327.26 386.15 327.74 424.77Z"
fill="black" stroke="black" stroke-width="0.2"/>
<path d="M327.74 424.77L328.26 425.32 327.74 387.96 327.74 424.77Z"
fill="black" stroke="black" stroke-width="0.2"/>
<path d="M328.26 425.32L328.26 389.88 327.74 387.96 328.26 425.32Z"
fill="black" stroke="black" stroke-width="0.2"/>
<path d="M328.26 425.32L328.8 425.83 328.26 389.88 328.26 425.32Z"
fill="black" stroke="black" stroke-width="0.2"/>
<path d="M328.8 425.83L328.8 391.91 328.26 389.88 328.8 425.83Z"
fill="black" stroke="black" stroke-width="0.2"/>
<path d="M328.8 425.83L329.37 426.32 328.8 391.91 328.8 425.83Z"
fill="black" stroke="black" stroke-width="0.2"/>
<path d="M329.37 426.32L329.37 394.03 328.8 391.91 329.37 426.32Z"
fill="black" stroke="black" stroke-width="0.2"/>
<path d="M329.37 426.32L329.96 426.77 329.37 394.03 329.37 426.32Z"
fill="black" stroke="black" stroke-width="0.2"/>
<path d="M329.96 426.77L329.96 396.24 329.37 394.03 329.96 426.77Z"
fill="black" stroke="black" stroke-width="0.2"/>
<path d="M329.96 426.77L330.58 427.2 329.96 396.24 329.96 426.77Z"
fill="black" stroke="black" stroke-width="0.2"/>
<path d="M330.58 427.2L330.58 398.54 329.96 396.24 330.58 427.2Z"
fill="black" stroke="black" stroke-width="0.2"/>
<path d="M330.58 427.2L331.22 427.59 330.58 398.54 330.58 427.2Z"
fill="black" stroke="black" stroke-width="0.2"/>
<path d="M331.22 427.59L331.22 400.92 330.58 398.54 331.22 427.59Z"
fill="black" stroke="black" stroke-width="0.2"/>
<path d="M331.22 427.59L331.88 427.94 331.22 400.92 331.22 427.59Z"
fill="black" stroke="black" stroke-width="0.2"/>
<path d="M331.88 427.94L331.88 403.38 331.22 400.92 331.88 427.94Z"
fill="black" stroke="black" stroke-width="0.2"/>
<path d="M331.88 427.94L332.55 428.27 331.88 403.38 331.88 427.94Z"
fill="black" stroke="black" stroke-width="0.2"/>
<path d="M332.55 428.27L332.55 405.89 331.88 403.38 332.55 428.27Z"
fill="black" stroke="black" stroke-width="0.2"/>
<path d="M332.55 428.27L333.24 428.55 332.55 405.89 332.55 428.27Z"
fill="black" stroke="black" stroke-width="0.2"/>
<path d="M333.24 428.55L333.24 408.47 332.55 405.89 333.24 428.55Z"
fill="black" stroke="black" stroke-width="0.2"/>
<path d="M333.24 428.55L333.95 428.8 333.24 408.47 333.24 428.55Z"
fill="black" stroke="black" stroke-width="0.2"/>
<path d="M333.95 428.8L333.95 411.1 333.24 408.47 333.95 428.8Z"
fill="black" stroke="black" stroke-width="0.2"/>
<path d="M333.95 428.8L334.66 429.01 333.95 411.1 333.95 428.8Z"
fill="black" stroke="black" stroke-width="0.2"/>
<path d="M334.66 429.01L334.66 413.78 333.95 411.1 334.66 429.01Z"
fill="black" stroke="black" stroke-width="0.2"/>
<path d="M334.66 429.01L335.27 429.16 334.66 413.78 334.66 429.01Z"
fill="black" stroke="black" stroke-width="0.2"/>
<path d="M335.27 429.16L335.27 416.04 334.66 413.78 335.27 429.16Z"
fill="black" stroke="black" stroke-width="0.2"/>
<path d="M335.27 429.16L335.38 429.19 335.27 416.04 335.27 429.16Z"
fill="black" stroke="black" stroke-width="0.2"/>
<path d="M335.38 429.19L335.38 416.38 335.27 416.04 335.38 429.19Z"
fill="black" stroke="black" stroke-width="0.2"/>
<path d="M335.38 429.19L335.39 429.19 335.38 416.38 335.38 429.19Z"
fill="black" stroke="black" stroke-width="0.2"/>
<path d="M335.39 429.19L335.39 416.4 335.38 416.38 335.39 429.19Z"
fill="black" stroke="black" stroke-width="0.2"/>
<path d="M335.39 429.19L335.53 429.21 335.39 416.4 335.39 429.19Z"
fill="black" stroke="black" stroke-width="0.2"/>
<path d="M335.53 429.21L335.53 416.7 335.39 416.4 335.53 429.21Z"
fill="black" stroke="black" stroke-width="0.2"/>
<path d="M335.53 429.21L335.71 429.25 335.53 416.7 335.53 429.21Z"
fill="black" stroke="black" stroke-width="0.2"/>
<path d="M335.71 429.25L335.71 417 335.53 416.7 335.71 429.25Z"
fill="black" stroke="black" stroke-width="0.2"/>
<path d="M335.71 429.25L335.92 429.29 335.71 417 335.71 429.25Z"
fill="black" stroke="black" stroke-width="0.2"/>
<path d="M335.92 429.29L335.92 417.28 335.71 417 335.92 429.29Z"
fill="black" stroke="black" stroke-width="0.2"/>
<path d="M335.92 429.29L336.13 429.32 335.92 417.28 335.92 429.29Z"
fill="black" stroke="black" stroke-width="0.2"/>
<path d="M336.13 429.32L336.13 417.5 335.92 417.28 336.13 429.32Z"
fill="black" stroke="black" stroke-width="0.2"/>
<path d="M336.13 429.32L336.16 429.33 336.13 417.5 336.13 429.32Z"
fill="black" stroke="black" stroke-width="0.2"/>
<path d="M336.16 429.33L336.16 417.54 336.13 417.5 336.16 429.33Z"
fill="black" stroke="black" stroke-width="0.2"/>
<path d="M336.16 429.33L336.43 429.36 336.16 417.54 336.16 429.33Z"
fill="black" stroke="black" stroke-width="0.2"/>
<path d="M336.43 429.36L336.43 417.77 336.16 417.54 336.43 429.36Z"
fill="black" stroke="black" stroke-width="0.2"/>
<path d="M336.43 429.36L336.72 429.4 336.43 417.77 336.43 429.36Z"
fill="black" stroke="black" stroke-width="0.2"/>
<path d="M336.72 429.4L336.72 417.96 336.43 417.77 336.72 429.4Z"
fill="black" stroke="black" stroke-width="0.2"/>
<path d="M336.72 429.4L336.87 429.42 336.72 417.96 336.72 429.4Z"
fill="black" stroke="black" stroke-width="0.2"/>
<path d="M336.87 429.42L336.87 418.04 336.72 417.96 336.87 429.42Z"
fill="black" stroke="black" stroke-width="0.2"/>
<path d="M336.87 429.42L337.03 429.44 336.87 418.04 336.87 429.42Z"
fill="black" stroke="black" stroke-width="0.2"/>
<path d="M337.03 429.44L337.03 418.13 336.87 418.04 337.03 429.44Z"
fill="black" stroke="black" stroke-width="0.2"/>
<path d="M337.03 429.44L337.36 429.46 337.03 418.13 337.03 429.44Z"
fill="black" stroke="black" stroke-width="0.2"/>
<path d="M337.36 429.46L337.36 418.26 337.03 418.13 337.36 429.46Z"
fill="black" stroke="black" stroke-width="0.2"/>
<path d="M337.36 429.46L337.61 429.48 337.36 418.26 337.36 429.46Z"
fill="black" stroke="black" stroke-width="0.2"/>
<path d="M337.61 429.48L337.61 418.32 337.36 418.26 337.61 429.48Z"
fill="black" stroke="black" stroke-width="0.2"/>
<path d="M337.61 429.48L337.7 429.48 337.61 418.32 337.61 429.48Z"
fill="black" stroke="black" stroke-width="0.2"/>
<path d="M337.7 429.48L337.7 418.35 337.61 418.32 337.7 429.48Z"
fill="black" stroke="black" stroke-width="0.2"/>
<path d="M337.7 429.48L338.05 429.49 337.7 418.35 337.7 429.48Z"
fill="black" stroke="black" stroke-width="0.2"/>
<path d="M338.05 429.49L338.05 418.4 337.7 418.35 338.05 429.49Z"
fill="black" stroke="black" stroke-width="0.2"/>
<path d="M338.05 429.49L338.36 429.5 338.05 418.4 338.05 429.49Z"
fill="black" stroke="black" stroke-width="0.2"/>
<path d="M338.36 429.5L338.36 418.41 338.05 418.4 338.36 429.5Z"
fill="black" stroke="black" stroke-width="0.2"/>
<path d="M338.36 429.5L338.4 429.5 338.36 418.41 338.36 429.5Z"
fill="black" stroke="black" stroke-width="0.2"/>
<path d="M338.4 429.5L338.4 418.41 338.36 418.41 338.4 429.5Z"
fill="black" stroke="black" stroke-width="0.2"/>
<path d="M338.4 429.5L338.76 429.49 338.4 418.41 338.4 429.5Z"
fill="black" stroke="black" stroke-width="0.2"/>
<path d="M338.76 429.49L338.76 418.39 338.4 418.41 338.76 429.49Z"
fill="black" stroke="black" stroke-width="0.2"/>
<path d="M338.76 429.49L339.1 429.48 338.76 418.39 338.76 429.49Z"
fill="black" stroke="black" stroke-width="0.2"/>
<path d="M339.1 429.48L339.1 418.33 338.76 418.39 339.1 429.48Z"
fill="black" stroke="black" stroke-width="0.2"/>
<path d="M339.1 429.48L339.11 429.48 339.1 418.33 339.1 429.48Z"
fill="black" stroke="black" stroke-width="0.2"/>
<path d="M339.11 429.48L339.11 418.33 339.1 418.33 339.11 429.48Z"
fill="black" stroke="black" stroke-width="0.2"/>
<path d="M339.11 429.48L339.44 429.45 339.11 418.33 339.11 429.48Z"
fill="black" stroke="black" stroke-width="0.2"/>
<path d="M339.44 429.45L339.44 418.23 339.11 418.33 339.44 429.45Z"
fill="black" stroke="black" stroke-width="0.2"/>
<path d="M339.44 429.45L339.77 429.43 339.44 418.23 339.44 429.45Z"
fill="black" stroke="black" stroke-width="0.2"/>
<path d="M339.77 429.43L339.77 418.09 339.44 418.23 339.77 429.43Z"
fill="black" stroke="black" stroke-width="0.2"/>
<path d="M339.77 429.43L339.85 429.42 339.77 418.09 339.77 429.43Z"
fill="black" stroke="black" stroke-width="0.2"/>
<path d="M339.85 429.42L339.85 418.04 339.77 418.09 339.85 429.42Z"
fill="black" stroke="black" stroke-width="0.2"/>
<path d="M339.85 429.42L340.07 429.39 339.85 418.04 339.85 429.42Z"
fill="black" stroke="black" stroke-width="0.2"/>
<path d="M340.07 429.39L340.07 417.92 339.85 418.04 340.07 429.39Z"
fill="black" stroke="black" stroke-width="0.2"/>
<path d="M340.07 429.39L340.36 429.36 340.07 417.92 340.07 429.39Z"
fill="black" stroke="black" stroke-width="0.2"/>
<path d="M340.36 429.36L340.36 417.71 340.07 417.92 340.36 429.36Z"
fill="black" stroke="black" stroke-width="0.2"/>
<path d="M340.36 429.36L340.6 429.32 340.36 417.71 340.36 429.36Z"
fill="black" stroke="black" stroke-width="0.2"/>
<path d="M340.6 429.32L340.6 417.5 340.36 417.71 340.6 429.32Z"
fill="black" stroke="black" stroke-width="0.2"/>
<path d="M340.6 429.32L340.62 429.32 340.6 417.5 340.6 429.32Z"
fill="black" stroke="black" stroke-width="0.2"/>
<path d="M340.62 429.32L340.62 417.48 340.6 417.5 340.62 429.32Z"
fill="black" stroke="black" stroke-width="0.2"/>
<path d="M340.62 429.32L341.33 429.19 340.62 417.48 340.62 429.32Z"
fill="black" stroke="black" stroke-width="0.2"/>
<path d="M341.33 429.19L341.33 416.77 340.62 417.48 341.33 429.19Z"
fill="black" stroke="black" stroke-width="0.2"/>
<path d="M341.33 429.19L342.06 429.01 341.33 416.77 341.33 429.19Z"
fill="black" stroke="black" stroke-width="0.2"/>
<path d="M342.06 429.01L342.06 416.04 341.33 416.77 342.06 429.01Z"
fill="black" stroke="black" stroke-width="0.2"/>
<path d="M342.06 429.01L342.77 428.8 342.06 416.04 342.06 429.01Z"
fill="black" stroke="black" stroke-width="0.2"/>
<path d="M342.77 428.8L342.77 415.33 342.06 416.04 342.77 428.8Z"
fill="black" stroke="black" stroke-width="0.2"/>
<path d="M342.77 428.8L343.48 428.55 342.77 415.33 342.77 428.8Z"
fill="black" stroke="black" stroke-width="0.2"/>
<path d="M343.48 428.55L343.48 414.62 342.77 415.33 343.48 428.55Z"
fill="black" stroke="black" stroke-width="0.2"/>
<path d="M343.48 428.55L344.17 428.27 343.48 414.62 343.48 428.55Z"
fill="black" stroke="black" stroke-width="0.2"/>
<path d="M344.17 428.27L344.17 413.93 343.48 414.62 344.17 428.27Z"
fill="black" stroke="black" stroke-width="0.2"/>
<path d="M344.17 428.27L344.85 427.94 344.17 413.93 344.17 428.27Z"
fill="black" stroke="black" stroke-width="0.2"/>
<path d="M344.85 427.94L344.85 413.26 344.17 413.93 344.85 427.94Z"
fill="black" stroke="black" stroke-width="0.2"/>
<path d="M344.85 427.94L345.5 427.59 344.85 413.26 344.85 427.94Z"
fill="black" stroke="black" stroke-width="0.2"/>
<path d="M345.5 427.59L345.5 412.6 344.85 413.26 345.5 427.59Z"
fill="black" stroke="black" stroke-width="0.2"/>
<path d="M345.5 427.59L346.14 427.2 345.5 412.6 345.5 427.59Z"
fill="black" stroke="black" stroke-width="0.2"/>
<path d="M346.14 427.2L346.14 411.96 345.5 412.6 346.14 427.2Z"
fill="black" stroke="black" stroke-width="0.2"/>
<path d="M346.14 427.2L346.76 426.77 346.14 411.96 346.14 427.2Z"
fill="black" stroke="black" stroke-width="0.2"/>
<path d="M346.76 426.77L346.76 411.34 346.14 411.96 346.76 426.77Z"
fill="black" stroke="black" stroke-width="0.2"/>
<path d="M346.76 426.77L347.35 426.32 346.76 411.34 346.76 426.77Z"
fill="black" stroke="black" stroke-width="0.2"/>
<path d="M347.35 426.32L347.35 410.75 346.76 411.34 347.35 426.32Z"
fill="black" stroke="black" stroke-width="0.2"/>
<path d="M347.35 426.32L347.92 425.83 347.35 410.75 347.35 426.32Z"
fill="black" stroke="black" stroke-width="0.2"/>
<path d="M347.92 425.83L347.92 410.18 347.35 410.75 347.92 425.83Z"
fill="black" stroke="black" stroke-width="0.2"/>
<path d="M347.92 425.83L348.46 425.32 347.92 410.18 347.92 425.83Z"
fill="black" stroke="black" stroke-width="0.2"/>
<path d="M348.46 425.32L348.46 409.64 347.92 410.18 348.46 425.32Z"
fill="black" stroke="black" stroke-width="0.2"/>
<path d="M273.2 155.91L527.31 224 273.2 144.44 273.2 155.91Z"
fill="black" stroke="black" stroke-width="0.2"/>
<path d="M527.31 224L527.31 212.52 273.2 144.44 527.31 224Z"
fill="black" stroke="black" stroke-width="0.2"/>
<path d="M527.31 224L527.64 224.11 527.31 212.52 527.31 224Z"
fill="black" stroke="black" stroke-width="0.2"/>
<path d="M527.64 224.11L527.64 212.61 527.31 212.52 527.64 224.11Z"
fill="black" stroke="black" stroke-width="0.2"/>
<path d="M527.64 224.11L527.96 224.26 527.64 212.61 527.64 224.11Z"
fill="black" stroke="black" stroke-width="0.2"/>
<path d="M527.96 224.26L527.96 212.7 527.64 212.61 527.96 224.26Z"
fill="black" stroke="black" stroke-width="0.2"/>
<path d="M527.96 224.26L528.27 224.44 527.96 212.7 527.96 224.26Z"
fill="black" stroke="black" stroke-width="0.2"/>
<path d="M528.27 224.44L528.27 212.78 527.96 212.7 528.27 224.44Z"
fill="black" stroke="black" stroke-width="0.2"/>
<path d="M528.27 224.44L528.55 224.65 528.27 212.78 528.27 224.44Z"
fill="black" stroke="black" stroke-width="0.2"/>
<path d="M528.55 224.65L528.55 212.86 528.27 212.78 528.55 224.65Z"
fill="black" stroke="black" stroke-width="0.2"/>
<path d="M348.46 425.32L528.75 245.03 348.46 409.64 348.46 425.32Z"
fill="black" stroke="black" stroke-width="0.2"/>
<path d="M528.75 245.03L528.75 229.36 348.46 409.64 528.75 245.03Z"
fill="black" stroke="black" stroke-width="0.2"/>
<path d="M528.55 224.65L528.8 224.89 528.55 212.86 528.55 224.65Z"
fill="black" stroke="black" stroke-width="0.2"/>
<path d="M528.8 224.89L528.8 212.93 528.55 212.86 528.8 224.89Z"
fill="black" stroke="black" stroke-width="0.2"/>
<path d="M528.75 245.03L528.98 244.8 528.75 229.36 528.75 245.03Z"
fill="black" stroke="black" stroke-width="0.2"/>
<path d="M528.98 244.8L528.98 229.09 528.75 229.36 528.98 244.8Z"
fill="black" stroke="black" stroke-width="0.2"/>
<path d="M528.8 224.89L529.03 225.16 528.8 212.93 528.8 224.89Z"
fill="black" stroke="black" stroke-width="0.2"/>
<path d="M529.03 225.16L529.03 212.99 528.8 212.93 529.03 225.16Z"
fill="black" stroke="black" stroke-width="0.2"/>
<path d="M528.98 244.8L529.19 244.59 528.98 229.09 528.98 244.8Z"
fill="black" stroke="black" stroke-width="0.2"/>
<path d="M529.19 244.59L529.19 228.81 528.98 229.09 529.19 244.59Z"
fill="black" stroke="black" stroke-width="0.2"/>
<path d="M529.03 225.16L529.23 225.45 529.03 212.99 529.03 225.16Z"
fill="black" stroke="black" stroke-width="0.2"/>
<path d="M529.23 225.45L529.23 213.04 529.03 212.99 529.23 225.45Z"
fill="black" stroke="black" stroke-width="0.2"/>
<path d="M529.19 244.59L529.36 244.42 529.19 228.81 529.19 244.59Z"
fill="black" stroke="black" stroke-width="0.2"/>
<path d="M529.36 244.42L529.36 228.5 529.19 228.81 529.36 244.42Z"
fill="black" stroke="black" stroke-width="0.2"/>
<path d="M529.23 225.45L529.39 225.76 529.23 213.04 529.23 225.45Z"
fill="black" stroke="black" stroke-width="0.2"/>
<path d="M529.39 225.76L529.39 213.08 529.23 213.04 529.39 225.76Z"
fill="black" stroke="black" stroke-width="0.2"/>
<path d="M529.36 244.42L529.5 244.28 529.36 228.5 529.36 244.42Z"
fill="black" stroke="black" stroke-width="0.2"/>
<path d="M529.5 244.28L529.5 228.17 529.36 228.5 529.5 244.28Z"
fill="black" stroke="black" stroke-width="0.2"/>
<path d="M529.39 225.76L529.52 226.09 529.39 213.08 529.39 225.76Z"
fill="black" stroke="black" stroke-width="0.2"/>
<path d="M529.52 226.09L529.52 213.12 529.39 213.08 529.52 226.09Z"
fill="black" stroke="black" stroke-width="0.2"/>
<path d="M529.5 244.28L529.6 244.18 529.5 228.17 529.5 244.28Z"
fill="black" stroke="black" stroke-width="0.2"/>
<path d="M529.6 244.18L529.6 227.83 529.5 228.17 529.6 244.18Z"
fill="black" stroke="black" stroke-width="0.2"/>
<path d="M529.52 226.09L529.61 226.43 529.52 213.12 529.52 226.09Z"
fill="black" stroke="black" stroke-width="0.2"/>
<path d="M529.61 226.43L529.61 213.14 529.52 213.12 529.61 226.43Z"
fill="black" stroke="black" stroke-width="0.2"/>
<path d="M529.6 244.18L529.66 244.12 529.6 227.83 529.6 244.18Z"
fill="black" stroke="black" stroke-width="0.2"/>
<path d="M529.66 244.12L529.66 227.49 529.6 227.83 529.66 244.12Z"
fill="black" stroke="black" stroke-width="0.2"/>
<path d="M529.61 226.43L529.67 226.78 529.61 213.14 529.61 226.43Z"
fill="black" stroke="black" stroke-width="0.2"/>
<path d="M529.67 226.78L529.67 213.16 529.61 213.14 529.67 226.78Z"
fill="black" stroke="black" stroke-width="0.2"/>
<path d="M529.66 244.12L529.68 244.1 529.66 227.49 529.66 244.12Z"
fill="black" stroke="black" stroke-width="0.2"/>
<path d="M529.68 244.1L529.68 227.13 529.66 227.49 529.68 244.1Z"
fill="black" stroke="black" stroke-width="0.2"/>
<path d="M529.67 226.78L529.68 227.13 529.67 213.16 529.67 226.78Z"
fill="black" stroke="black" stroke-width="0.2"/>
<path d="M529.68 227.13L529.68 213.16 529.67 213.16 529.68 227.13Z"
fill="black" stroke="black" stroke-width="0.2"/>
<path d="M529.68 244.1L530.17 243.61 529.68 213.16 529.68 244.1Z"
fill="black" stroke="black" stroke-width="0.2"/>
<path d="M530.17 243.61L530.17 213.29 529.68 213.16 530.17 243.61Z"
fill="black" stroke="black" stroke-width="0.2"/>
<path d="M530.17 243.61L530.89 242.89 530.17 213.29 530.17 243.61Z"
fill="black" stroke="black" stroke-width="0.2"/>
<path d="M530.89 242.89L530.89 213.5 530.17 213.29 530.89 242.89Z"
fill="black" stroke="black" stroke-width="0.2"/>
<path d="M530.89 242.89L531.59 242.19 530.89 213.5 530.89 242.89Z"
fill="black" stroke="black" stroke-width="0.2"/>
<path d="M531.59 242.19L531.59 213.75 530.89 213.5 531.59 242.19Z"
fill="black" stroke="black" stroke-width="0.2"/>
<path d="M531.59 242.19L532.28 241.49 531.59 213.75 531.59 242.19Z"
fill="black" stroke="black" stroke-width="0.2"/>
<path d="M532.28 241.49L532.28 214.04 531.59 213.75 532.28 241.49Z"
fill="black" stroke="black" stroke-width="0.2"/>
<path d="M532.28 241.49L532.96 240.82 532.28 214.04 532.28 241.49Z"
fill="black" stroke="black" stroke-width="0.2"/>
<path d="M532.96 240.82L532.96 214.36 532.28 214.04 532.96 240.82Z"
fill="black" stroke="black" stroke-width="0.2"/>
<path d="M532.96 240.82L533.62 240.16 532.96 214.36 532.96 240.82Z"
fill="black" stroke="black" stroke-width="0.2"/>
<path d="M533.62 240.16L533.62 214.72 532.96 214.36 533.62 240.16Z"
fill="black" stroke="black" stroke-width="0.2"/>
<path d="M533.62 240.16L534.26 239.52 533.62 214.72 533.62 240.16Z"
fill="black" stroke="black" stroke-width="0.2"/>
<path d="M534.26 239.52L534.26 215.11 533.62 214.72 534.26 239.52Z"
fill="black" stroke="black" stroke-width="0.2"/>
<path d="M534.26 239.52L534.87 238.91 534.26 215.11 534.26 239.52Z"
fill="black" stroke="black" stroke-width="0.2"/>
<path d="M534.87 238.91L534.87 215.53 534.26 215.11 534.87 238.91Z"
fill="black" stroke="black" stroke-width="0.2"/>
<path d="M534.87 238.91L535.47 238.31 534.87 215.53 534.87 238.91Z"
fill="black" stroke="black" stroke-width="0.2"/>
<path d="M535.47 238.31L535.47 215.98 534.87 215.53 535.47 238.31Z"
fill="black" stroke="black" stroke-width="0.2"/>
<path d="M535.47 238.31L536.04 237.74 535.47 215.98 535.47 238.31Z"
fill="black" stroke="black" stroke-width="0.2"/>
<path d="M536.04 237.74L536.04 216.47 535.47 215.98 536.04 237.74Z"
fill="black" stroke="black" stroke-width="0.2"/>
<path d="M536.04 237.74L536.58 237.2 536.04 216.47 536.04 237.74Z"
fill="black" stroke="black" stroke-width="0.2"/>
<path d="M536.58 237.2L536.58 216.99 536.04 216.47 536.58 237.2Z"
fill="black" stroke="black" stroke-width="0.2"/>
<path d="M536.58 237.2L536.58 237.19 536.58 216.99 536.58 237.2Z"
fill="black" stroke="black" stroke-width="0.2"/>
<path d="M536.58 237.19L536.58 216.99 536.58 216.99 536.58 237.19Z"
fill="black" stroke="black" stroke-width="0.2"/>
<path d="M536.58 237.19L537.09 236.66 536.58 216.99 536.58 237.19Z"
fill="black" stroke="black" stroke-width="0.2"/>
<path d="M537.09 236.66L537.09 217.53 536.58 216.99 537.09 236.66Z"
fill="black" stroke="black" stroke-width="0.2"/>
<path d="M537.09 236.66L537.1 236.65 537.09 217.53 537.09 236.66Z"
fill="black" stroke="black" stroke-width="0.2"/>
<path d="M537.1 236.65L537.1 217.53 537.09 217.53 537.1 236.65Z"
fill="black" stroke="black" stroke-width="0.2"/>
<path d="M537.1 236.65L537.58 236.09 537.1 217.53 537.1 236.65Z"
fill="black" stroke="black" stroke-width="0.2"/>
<path d="M537.58 236.09L537.58 218.1 537.1 217.53 537.58 236.09Z"
fill="black" stroke="black" stroke-width="0.2"/>
<path d="M537.58 236.09L537.59 236.08 537.58 218.1 537.58 236.09Z"
fill="black" stroke="black" stroke-width="0.2"/>
<path d="M537.59 236.08L537.59 218.1 537.58 218.1 537.59 236.08Z"
fill="black" stroke="black" stroke-width="0.2"/>
<path d="M537.59 236.08L538.04 235.5 537.59 218.1 537.59 236.08Z"
fill="black" stroke="black" stroke-width="0.2"/>
<path d="M538.04 235.5L538.04 218.69 537.59 218.1 538.04 235.5Z"
fill="black" stroke="black" stroke-width="0.2"/>
<path d="M538.04 235.5L538.04 235.49 538.04 218.69 538.04 235.5Z"
fill="black" stroke="black" stroke-width="0.2"/>
<path d="M538.04 235.49L538.04 218.7 538.04 218.69 538.04 235.49Z"
fill="black" stroke="black" stroke-width="0.2"/>
<path d="M538.04 235.49L538.46 234.88 538.04 218.7 538.04 235.49Z"
fill="black" stroke="black" stroke-width="0.2"/>
<path d="M538.46 234.88L538.46 219.31 538.04 218.7 538.46 234.88Z"
fill="black" stroke="black" stroke-width="0.2"/>
<path d="M538.46 234.88L538.46 234.87 538.46 219.31 538.46 234.88Z"
fill="black" stroke="black" stroke-width="0.2"/>
<path d="M538.46 234.87L538.46 219.31 538.46 219.31 538.46 234.87Z"
fill="black" stroke="black" stroke-width="0.2"/>
<path d="M538.46 234.87L538.85 234.24 538.46 219.31 538.46 234.87Z"
fill="black" stroke="black" stroke-width="0.2"/>
<path d="M538.85 234.24L538.85 219.94 538.46 219.31 538.85 234.24Z"
fill="black" stroke="black" stroke-width="0.2"/>
<path d="M538.85 234.24L538.86 234.23 538.85 219.94 538.85 234.24Z"
fill="black" stroke="black" stroke-width="0.2"/>
<path d="M538.86 234.23L538.86 219.95 538.85 219.94 538.86 234.23Z"
fill="black" stroke="black" stroke-width="0.2"/>
<path d="M538.86 234.23L539.21 233.58 538.86 219.95 538.86 234.23Z"
fill="black" stroke="black" stroke-width="0.2"/>
<path d="M539.21 233.58L539.21 220.6 538.86 219.95 539.21 233.58Z"
fill="black" stroke="black" stroke-width="0.2"/>
<path d="M539.21 233.58L539.21 233.58 539.21 220.6 539.21 233.58Z"
fill="black" stroke="black" stroke-width="0.2"/>
<path d="M539.21 233.58L539.21 220.61 539.21 220.6 539.21 233.58Z"
fill="black" stroke="black" stroke-width="0.2"/>
<path d="M539.21 233.58L539.53 232.91 539.21 220.61 539.21 233.58Z"
fill="black" stroke="black" stroke-width="0.2"/>
<path d="M539.53 232.91L539.53 221.28 539.21 220.61 539.53 232.91Z"
fill="black" stroke="black" stroke-width="0.2"/>
<path d="M539.53 232.91L539.53 232.9 539.53 221.28 539.53 232.91Z"
fill="black" stroke="black" stroke-width="0.2"/>
<path d="M539.53 232.9L539.53 221.28 539.53 221.28 539.53 232.9Z"
fill="black" stroke="black" stroke-width="0.2"/>
<path d="M539.53 232.9L539.82 232.22 539.53 221.28 539.53 232.9Z"
fill="black" stroke="black" stroke-width="0.2"/>
<path d="M539.82 232.22L539.82 221.97 539.53 221.28 539.82 232.22Z"
fill="black" stroke="black" stroke-width="0.2"/>
<path d="M539.82 232.22L539.82 232.21 539.82 221.97 539.82 232.22Z"
fill="black" stroke="black" stroke-width="0.2"/>
<path d="M539.82 232.21L539.82 221.98 539.82 221.97 539.82 232.21Z"
fill="black" stroke="black" stroke-width="0.2"/>
<path d="M539.82 232.21L540.07 231.51 539.82 221.98 539.82 232.21Z"
fill="black" stroke="black" stroke-width="0.2"/>
<path d="M540.07 231.51L540.07 222.67 539.82 221.98 540.07 231.51Z"
fill="black" stroke="black" stroke-width="0.2"/>
<path d="M540.07 231.51L540.07 231.5 540.07 222.67 540.07 231.51Z"
fill="black" stroke="black" stroke-width="0.2"/>
<path d="M540.07 231.5L540.07 222.68 540.07 222.67 540.07 231.5Z"
fill="black" stroke="black" stroke-width="0.2"/>
<path d="M540.07 231.5L540.28 230.79 540.07 222.68 540.07 231.5Z"
fill="black" stroke="black" stroke-width="0.2"/>
<path d="M540.28 230.79L540.28 223.39 540.07 222.68 540.28 230.79Z"
fill="black" stroke="black" stroke-width="0.2"/>
<path d="M540.28 230.79L540.28 230.79 540.28 223.39 540.28 230.79Z"
fill="black" stroke="black" stroke-width="0.2"/>
<path d="M540.28 230.79L540.28 223.4 540.28 223.39 540.28 230.79Z"
fill="black" stroke="black" stroke-width="0.2"/>
<path d="M540.28 230.79L540.46 230.07 540.28 223.4 540.28 230.79Z"
fill="black" stroke="black" stroke-width="0.2"/>
<path d="M540.46 230.07L540.46 224.12 540.28 223.4 540.46 230.07Z"
fill="black" stroke="black" stroke-width="0.2"/>
<path d="M540.46 230.07L540.46 230.06 540.46 224.12 540.46 230.07Z"
fill="black" stroke="black" stroke-width="0.2"/>
<path d="M540.46 230.06L540.46 224.13 540.46 224.12 540.46 230.06Z"
fill="black" stroke="black" stroke-width="0.2"/>
<path d="M540.46 230.06L540.59 229.33 540.46 224.13 540.46 230.06Z"
fill="black" stroke="black" stroke-width="0.2"/>
<path d="M540.59 229.33L540.59 224.85 540.46 224.13 540.59 229.33Z"
fill="black" stroke="black" stroke-width="0.2"/>
<path d="M540.59 229.33L540.59 229.32 540.59 224.85 540.59 229.33Z"
fill="black" stroke="black" stroke-width="0.2"/>
<path d="M540.59 229.32L540.59 224.86 540.59 224.85 540.59 229.32Z"
fill="black" stroke="black" stroke-width="0.2"/>
<path d="M540.59 229.32L540.69 228.59 540.59 224.86 540.59 229.32Z"
fill="black" stroke="black" stroke-width="0.2"/>
<path d="M540.69 228.59L540.69 225.59 540.59 224.86 540.69 228.59Z"
fill="black" stroke="black" stroke-width="0.2"/>
<path d="M540.69 228.59L540.69 228.58 540.69 225.59 540.69 228.59Z"
fill="black" stroke="black" stroke-width="0.2"/>
<path d="M540.69 228.58L540.69 225.61 540.69 225.59 540.69 228.58Z"
fill="black" stroke="black" stroke-width="0.2"/>
<path d="M540.69 228.58L540.75 227.84 540.69 225.61 540.69 228.58Z"
fill="black" stroke="black" stroke-width="0.2"/>
<path d="M540.75 227.84L540.75 226.34 540.69 225.61 540.75 227.84Z"
fill="black" stroke="black" stroke-width="0.2"/>
<path d="M540.75 227.84L540.75 227.84 540.75 226.34 540.75 227.84Z"
fill="black" stroke="black" stroke-width="0.2"/>
<path d="M540.75 227.84L540.75 226.36 540.75 226.34 540.75 227.84Z"
fill="black" stroke="black" stroke-width="0.2"/>
<path d="M540.75 227.84L540.77 227.09 540.75 226.36 540.75 227.84Z"
fill="black" stroke="black" stroke-width="0.2"/>
<path d="M335.27 416.04L266.41 159.06"
fill="none" stroke="black" stroke-width="0.5"/>
<path d="M270.33 155.14L527.32 224"
fill="none" stroke="black" stroke-width="0.5"/>
<path d="M340.62 417.48L528.75 229.36"
fill="none" stroke="black" stroke-width="0.5"/>
<path d="M 270.33 155.14 A 3.2 3.2 0 0 0 266.41 159.06"
fill="none" stroke="black" stroke-width="0.5"/>
<path d="M324.56 418.91L255.7 161.93"
fill="none" stroke="black" stroke-width="0.5"/>
<path d="M273.2 144.44L530.19 213.3"
fill="none" stroke="black" stroke-width="0.5"/>
<path d="M 273.2 144.44 A 14.285 14.285 0 0 0 255.7 161.93"
fill="none" stroke="black" stroke-width="0.5"/>
<path d="M 335.27 416.04 A 3.2 3.2 0 0 0 340.62 417.48"
fill="none" stroke="black" stroke-width="0.5"/>
<path d="M 324.56 418.91 A 14.285 14.285 0 0 0 348.46 425.32"
fill="none" stroke="black" stroke-width="0.5"/>
<path d="M348.46 425.32L536.58 237.19"
fill="none" stroke="black" stroke-width="0.5"/>
<path d="M 528.75 229.36 A 3.2 3.2 0 0 0 527.31 224"
fill="none" stroke="black" stroke-width="0.5"/>
<path d="M 536.58 237.19 A 14.285 14.285 0 0 0 530.17 213.29"
fill="none" stroke="black" stroke-width="0.5"/>
</svg>
